<?xml version="1.0" standalone="no"?>
<!DOCTYPE svg PUBLIC "-//W3C//DTD SVG 1.1//EN" "http://www.w3.org/Graphics/SVG/1.1/DTD/svg11.dtd" >
<svg xmlns="http://www.w3.org/2000/svg" xmlns:xlink="http://www.w3.org/1999/xlink" version="1.1">
<metadata>
Created by FontForge 20161003 at Wed Apr  5 09:11:53 2017
 By www-data
Copyright (c) 2009 by Andrij Shevchenko / AndrijType. All rights reserved.
</metadata>
<defs>
<font id="OksanaSansWideHeavy" horiz-adv-x="837" >
  <font-face 
    font-family="OksanaSansWideHeavy"
    font-weight="900"
    font-stretch="expanded"
    units-per-em="1000"
    panose-1="2 1 9 5 4 2 0 2 0 4"
    ascent="750"
    descent="-250"
    x-height="500"
    cap-height="650"
    bbox="-84 -279 2114 1034"
    underline-thickness="50"
    underline-position="-100"
    unicode-range="U+0020-FB06"
  />
<missing-glyph horiz-adv-x="994" 
d="M717 318q0 34 24.5 57.5t61.5 23.5q36 0 60.5 -23.5t24.5 -57.5q0 -35 -24 -58.5t-61 -23.5t-61.5 23.5t-24.5 58.5zM412 558q0 35 24.5 58.5t61.5 23.5t61 -23.5t24 -58.5q0 -34 -24.5 -57.5t-60.5 -23.5q-37 0 -61.5 23.5t-24.5 57.5zM412 78q0 34 24.5 57.5t61.5 23.5
q36 0 60.5 -23.5t24.5 -57.5q0 -35 -24 -58.5t-61 -23.5t-61.5 23.5t-24.5 58.5zM258 231l109 86l-105 83l115 116l121 -96l122 96l115 -116l-105 -83l109 -86l-116 -116l-125 98l-124 -98zM106 318q0 34 24.5 57.5t61.5 23.5t61.5 -23.5t24.5 -57.5q0 -35 -24 -58.5
t-61 -23.5t-62 23.5t-25 58.5z" />
    <glyph glyph-name="fi" unicode="fi" horiz-adv-x="944" 
d="M614 698q0 45 35 82.5t93 37.5q59 0 94 -37t35 -83q0 -45 -35 -82t-94 -37q-58 0 -93 37t-35 82zM39 320v180h71v32q0 97 69 163t208 66q57 0 106 -8t69 -16l20 -8v-190q-57 15 -141 15q-81 0 -81 -22v-32h509v-500h-251v320h-258v-320h-250v320h-71z" />
    <glyph glyph-name="fl" unicode="fl" horiz-adv-x="1011" 
d="M39 320v180h71v32q0 229 331 229q44 0 113 -2.5t116 -5.5l46 -3h231v-750h-250v550q-153 11 -232 11q-62 0 -83.5 -6.5t-21.5 -22.5v-32h187v-180h-187v-320h-250v320h-71z" />
    <glyph glyph-name="afii10104_afii10104" unicode="&#x457;&#x457;" horiz-adv-x="810" 
d="M485 0v500h250v-500h-250zM75 0v500h250v-500h-250zM-80 698q0 44 38.5 82t93.5 38q39 0 70.5 -20.5t48.5 -51.5q17 31 49 51.5t71 20.5q73 0 116 -65q41 65 115 65q39 0 71 -20.5t49 -51.5q17 31 48.5 51.5t70.5 20.5q56 0 95 -38t39 -82t-39 -81.5t-95 -37.5
q-39 0 -70.5 20t-48.5 51q-17 -31 -48.5 -51t-71.5 -20q-76 0 -115 64q-41 -64 -116 -64q-39 0 -71 20t-49 50q-17 -30 -48.5 -50t-70.5 -20q-55 0 -93.5 37.5t-38.5 81.5z" />
    <glyph glyph-name="afii10103_afii10104" unicode="&#x456;&#x457;" horiz-adv-x="810" 
d="M629 698q0 44 39 82t93 38q56 0 95 -38t39 -82t-39 -81.5t-95 -37.5q-55 0 -93.5 37.5t-38.5 81.5zM485 0v500h250v-500h-250zM348 698q0 44 38.5 82t93.5 38q56 0 94.5 -38t38.5 -82t-38.5 -81.5t-94.5 -37.5q-55 0 -93.5 37.5t-38.5 81.5zM75 0v500h250v-500h-250z
M71 698q0 45 35 82.5t93 37.5q59 0 94 -37t35 -83q0 -45 -35 -82t-94 -37q-58 0 -93 37t-35 82z" />
    <glyph glyph-name=".notdef" horiz-adv-x="994" 
d="M717 318q0 34 24.5 57.5t61.5 23.5q36 0 60.5 -23.5t24.5 -57.5q0 -35 -24 -58.5t-61 -23.5t-61.5 23.5t-24.5 58.5zM412 558q0 35 24.5 58.5t61.5 23.5t61 -23.5t24 -58.5q0 -34 -24.5 -57.5t-60.5 -23.5q-37 0 -61.5 23.5t-24.5 57.5zM412 78q0 34 24.5 57.5t61.5 23.5
q36 0 60.5 -23.5t24.5 -57.5q0 -35 -24 -58.5t-61 -23.5t-61.5 23.5t-24.5 58.5zM258 231l109 86l-105 83l115 116l121 -96l122 96l115 -116l-105 -83l109 -86l-116 -116l-125 98l-124 -98zM106 318q0 34 24.5 57.5t61.5 23.5t61.5 -23.5t24.5 -57.5q0 -35 -24 -58.5
t-61 -23.5t-62 23.5t-25 58.5z" />
    <glyph glyph-name=".null" horiz-adv-x="0" 
 />
    <glyph glyph-name="nonmarkingreturn" horiz-adv-x="333" 
 />
    <glyph glyph-name="space" unicode=" " horiz-adv-x="415" 
 />
    <glyph glyph-name="exclam" unicode="!" horiz-adv-x="541" 
d="M144 750h267l-30 -450h-214zM143 99q0 53 38 90.5t95 37.5t95 -37.5t38 -90.5t-38 -90t-95 -37t-95 37t-38 90z" />
    <glyph glyph-name="quotedbl" unicode="&#x22;" horiz-adv-x="677" 
d="M373 745h237l-25 -285h-190zM34 745h237l-25 -285h-190z" />
    <glyph glyph-name="numbersign" unicode="#" horiz-adv-x="812" 
d="M358 304h75l14 42h-76zM56 157v147h148l14 42h-162v147h209l42 130l142 -39l-30 -91h75l38 117l142 -39l-25 -78h106v-147h-154l-13 -42h167v-147h-214l-42 -131l-142 39l29 92h-76l-38 -118l-140 39l25 79h-101z" />
    <glyph glyph-name="dollar" unicode="$" horiz-adv-x="651" 
d="M20 125l75 152q15 -9 39.5 -22t87 -34.5t108.5 -21.5q30 0 30 5q0 6 -31.5 14.5t-76 21t-89 31.5t-76 55.5t-31.5 83.5q0 64 53.5 110.5t140.5 65.5l-8 114h238l-10 -110q36 -4 67 -10t43 -10l13 -5v-167q-126 44 -222 44q-51 0 -51 -10q0 -8 31.5 -15t76 -17.5t89 -27.5
t76 -51.5t31.5 -81.5q0 -62 -40 -109.5t-113 -70.5l9 -109h-238l7 97q-73 8 -130 27.5t-78 35.5z" />
    <glyph glyph-name="percent" unicode="%" horiz-adv-x="1506" 
d="M1113 211q0 -22 17.5 -39t55.5 -17q40 0 59.5 17.5t19.5 38.5q0 20 -20 36t-59 16q-36 0 -54.5 -16t-18.5 -36zM903 210q0 96 80.5 165.5t202.5 69.5q120 0 203.5 -70t83.5 -165q0 -97 -80 -167.5t-207 -70.5q-130 0 -206.5 69.5t-76.5 168.5zM368 0l529 650h245
l-528 -650h-246zM244 443q0 -22 17.5 -39t55.5 -17q40 0 59.5 17.5t19.5 38.5q0 20 -20 36t-59 16q-36 0 -54.5 -16t-18.5 -36zM34 442q0 96 80.5 165.5t202.5 69.5q120 0 203.5 -70t83.5 -165q0 -97 -80 -167.5t-207 -70.5q-130 0 -206.5 69.5t-76.5 168.5z" />
    <glyph glyph-name="ampersand" unicode="&#x26;" horiz-adv-x="1059" 
d="M291 207q0 -55 91 -55q34 0 61.5 6t43.5 14t26.5 16.5t14.5 14.5l4 6v45h-87q-80 0 -117 -9.5t-37 -37.5zM32 198q0 57 41 102t121 71q-68 47 -68 125q0 87 72.5 134t205.5 47q51 0 94 -7.5t60 -14.5l18 -7v-141q-79 14 -141 14q-77 0 -77 -41q0 -23 25.5 -34t49.5 -12
h99v54l250 79v-133h244v-180h-244v-30q0 -24 16.5 -40.5t50.5 -16.5q23 0 67 8.5t77 17.5l33 9v-153q-4 -3 -11 -8.5t-33 -18.5t-54.5 -23t-75 -18.5t-95.5 -8.5q-148 0 -196 91h-6q-1 -4 -4.5 -10t-19 -21.5t-37 -27.5t-62.5 -22t-92 -10q-135 0 -221.5 59.5t-86.5 166.5z
" />
    <glyph glyph-name="quotesingle" unicode="'" horiz-adv-x="339" 
d="M34 745h237l-25 -285h-190z" />
    <glyph glyph-name="parenleft" unicode="(" horiz-adv-x="576" 
d="M116 272q0 71 12 135.5t31.5 111.5t42.5 87.5t46.5 66.5t43 45t31.5 27l12 8l191 -74q-7 -6 -17.5 -17t-38 -49.5t-48.5 -82t-38.5 -114t-17.5 -144.5t16.5 -143t40 -114t47 -79.5t40.5 -49.5l16 -16l-191 -74q-5 3 -12.5 8t-30.5 25.5t-43.5 44.5t-46 65t-43.5 87
t-30.5 110.5t-12.5 135.5z" />
    <glyph glyph-name="parenright" unicode=")" horiz-adv-x="576" 
d="M50 -130q7 6 17.5 17t38 49.5t48.5 82t38.5 114t17.5 144.5t-16.5 143t-40 114t-47 79.5t-40.5 50.5l-16 15l191 74q5 -3 12.5 -8t30.5 -25.5t43.5 -44.5t46 -65t43.5 -87t30.5 -110.5t12.5 -135.5t-12 -135.5t-31.5 -111.5t-43 -87.5t-46.5 -66.5t-42.5 -45t-31.5 -27
l-12 -8z" />
    <glyph glyph-name="asterisk" unicode="*" horiz-adv-x="560" 
d="M-4 468l74 225l129 -85l-38 152h238l-41 -151l132 83l74 -225l-156 -8l120 -101l-192 -139l-55 146l-59 -145l-191 140l120 97z" />
    <glyph glyph-name="plus" unicode="+" horiz-adv-x="723" 
d="M32 179v182h229v193h205v-193h225v-182h-225v-194h-205v194h-229z" />
    <glyph glyph-name="comma" unicode="," horiz-adv-x="422" 
d="M44 -137q33 58 55.5 118t22.5 85l-35 103q4 5 12.5 11.5t36.5 18t58 11.5q52 0 92.5 -28t40.5 -74q0 -123 -143 -297z" />
    <glyph glyph-name="hyphen" unicode="-" horiz-adv-x="524" 
d="M34 179v182h456v-182h-456z" />
    <glyph glyph-name="period" unicode="." horiz-adv-x="484" 
d="M109 99q0 53 38 90.5t95 37.5t95 -37.5t38 -90.5t-38 -90t-95 -37t-95 37t-38 90z" />
    <glyph glyph-name="slash" unicode="/" horiz-adv-x="719" 
d="M-33 -250q119 227 260 477t222 387l81 136h245q-295 -491 -561 -1000h-247z" />
    <glyph glyph-name="zero" unicode="0" horiz-adv-x="867" 
d="M292 323q0 -70 31 -105.5t108 -35.5t111 36.5t34 104.5q0 144 -145 144q-139 0 -139 -144zM34 323q0 151 106.5 252.5t290.5 101.5t294 -102t110 -252t-110 -250.5t-294 -100.5t-290.5 100t-106.5 251z" />
    <glyph glyph-name="one" unicode="1" horiz-adv-x="620" 
d="M-15 426q68 58 139.5 114t109.5 83l37 27h263v-650h-263v405q-103 -83 -175 -131z" />
    <glyph glyph-name="two" unicode="2" horiz-adv-x="734" 
d="M21 0v200q9 3 23.5 7.5t57.5 19t82 29.5t86.5 36t82 40.5t58 41t23.5 39.5q0 33 -37.5 48t-119.5 15q-38 0 -93 -5t-92 -11l-36 -5v180q11 5 33 12t97 18.5t159 11.5q171 0 260 -66.5t89 -172.5q0 -160 -292 -264q155 21 298 21v-195h-679z" />
    <glyph glyph-name="three" unicode="3" horiz-adv-x="754" 
d="M15 86l99 164q11 -9 31 -22.5t79 -36.5t115 -23q113 0 113 47t-162 47l-91 123l118 89q-131 -9 -218 -9v185h560v-135q-70 -56 -163 -122q225 -36 225 -182q0 -76 -49 -131t-129 -81.5t-182 -26.5q-67 0 -127.5 11.5t-98.5 28.5t-66.5 34t-40.5 28z" />
    <glyph glyph-name="four" unicode="4" horiz-adv-x="820" 
d="M241 285q168 8 189 8v65q7 19 7 62q-81 -40 -196 -135zM9 119v175q92 84 215 173t200 136l76 47h180v-356h131v-175h-131v-119h-250v119h-421z" />
    <glyph glyph-name="five" unicode="5" horiz-adv-x="754" 
d="M20 80l84 152q13 -7 35 -17.5t80 -28.5t102 -18q69 0 99.5 12t30.5 38q0 56 -154 56q-56 0 -158 -12h-4q5 109 12 206t11 140l4 42h497v-185q-167 0 -299 10q-1 -18 -5 -58h15q176 0 263.5 -56t87.5 -147q0 -106 -101.5 -174t-275.5 -68q-59 0 -114 11t-91.5 27t-64.5 32
t-41 27z" />
    <glyph glyph-name="six" unicode="6" horiz-adv-x="781" 
d="M293 237q0 -27 23.5 -50.5t84.5 -23.5q45 0 72 13.5t27 37.5q0 50 -91 50q-56 0 -116 -20v-7zM34 237q0 122 73 223t185 156t235 61l57 -174q-178 -10 -245 -96q70 25 133 25q126 0 207 -62t81 -134q0 -113 -106.5 -188.5t-273.5 -75.5q-164 0 -255 77.5t-91 187.5z" />
    <glyph glyph-name="seven" unicode="7" horiz-adv-x="701" 
d="M9 450v200h683v-140q-18 -22 -48 -64t-110.5 -175t-146.5 -271h-293q100 208 271 460q-170 -10 -356 -10z" />
    <glyph glyph-name="eight" unicode="8" horiz-adv-x="822" 
d="M316 467q0 -27 101 -63q92 35 92 63q0 22 -27.5 34t-69.5 12t-69 -12t-27 -34zM290 197q0 -60 122 -60t122 60q0 16 -19 28.5t-49 20t-49.5 11t-36.5 5.5q-90 -31 -90 -65zM34 190q0 97 141 146q-105 62 -105 149q0 83 95.5 137.5t246.5 54.5t246 -54.5t95 -137.5
q0 -88 -108 -137q146 -56 146 -158q0 -107 -99 -162.5t-280 -55.5q-180 0 -279 55.5t-99 162.5z" />
    <glyph glyph-name="nine" unicode="9" horiz-adv-x="781" 
d="M282 435q0 -50 90 -50q59 0 116 19v8q0 74 -108 74q-98 0 -98 -51zM21 428q0 109 104.5 179t275.5 70q165 0 255.5 -80t90.5 -185q0 -92 -42.5 -172.5t-113 -135.5t-158 -89.5t-179.5 -42.5l-57 174q168 15 238 93q-64 -22 -126 -22q-134 0 -211 56.5t-77 154.5z" />
    <glyph glyph-name="colon" unicode=":" horiz-adv-x="484" 
d="M109 394q0 53 38 90.5t95 37.5t95 -37.5t38 -90.5t-38 -90t-95 -37t-95 37t-38 90zM109 114q0 53 38 90.5t95 37.5t95 -37.5t38 -90.5t-38 -90t-95 -37t-95 37t-38 90z" />
    <glyph glyph-name="semicolon" unicode=";" horiz-adv-x="484" 
d="M109 394q0 53 38 90.5t95 37.5t95 -37.5t38 -90.5t-38 -90t-95 -37t-95 37t-38 90zM80 -137q33 58 55.5 118t22.5 85l-35 103q4 5 12.5 11.5t36.5 18t58 11.5q52 0 92.5 -28t40.5 -74q0 -123 -143 -297z" />
    <glyph glyph-name="less" unicode="&#x3c;" horiz-adv-x="570" 
d="M51 314l368 268l112 -117l-228 -151l228 -151l-112 -117z" />
    <glyph glyph-name="equal" unicode="=" horiz-adv-x="836" 
d="M32 314v182h771v-182h-771zM32 44v182h771v-182h-771z" />
    <glyph glyph-name="greater" unicode="&#x3e;" horiz-adv-x="570" 
d="M38 163l229 151l-229 151l113 117l367 -268l-367 -268z" />
    <glyph glyph-name="question" unicode="?" horiz-adv-x="619" 
d="M68 99q0 53 38 90.5t95 37.5t95 -37.5t38 -90.5t-38 -90t-95 -37t-95 37t-38 90zM9 540v179q9 5 27 12t80.5 18.5t133.5 11.5q162 0 254.5 -65t92.5 -136q0 -55 -23.5 -93t-58.5 -54.5t-76 -29t-76 -19.5t-58.5 -23t-23.5 -42q0 -15 7 -32l-184 -18q-26 55 -26 95
q0 49 37 81.5t82 45t82 28t37 33.5q0 16 -29.5 26.5t-89.5 10.5q-36 0 -83 -7.5t-76 -14.5z" />
    <glyph glyph-name="at" unicode="@" horiz-adv-x="1344" 
d="M585 184q0 -28 19.5 -41.5t66.5 -13.5q63 0 98 47v91q-38 4 -58 4q-126 0 -126 -87zM109 182q0 201 167.5 327.5t439.5 126.5q245 0 386.5 -100.5t141.5 -268.5q0 -62 -19 -112.5t-50 -83t-71.5 -54.5t-80.5 -31t-81 -9q-134 0 -163 86h-7q-1 -3 -4.5 -9t-15.5 -21
t-27.5 -26t-43.5 -20.5t-60 -9.5q-97 0 -159.5 60.5t-62.5 146.5q0 93 79.5 159.5t233.5 66.5q57 0 114.5 -13t85.5 -27l29 -13v-235q0 -13 18 -13h11q90 0 90 158q0 105 -93.5 160t-250.5 55q-80 0 -149.5 -15.5t-130 -48.5t-96 -93.5t-35.5 -142.5q0 -72 31.5 -127
t87 -86.5t123.5 -47t149 -15.5v-154q-284 0 -435.5 111t-151.5 319z" />
    <glyph glyph-name="A" unicode="A" horiz-adv-x="985" 
d="M391 257h196q-67 156 -97 214q-24 -45 -99 -214zM15 0l325 650l3 -5l2 5h312l313 -650h-268l-46 99h-335l-41 -99h-265z" />
    <glyph glyph-name="B" unicode="B" horiz-adv-x="850" 
d="M325 387q96 4 121 4q24 0 38 -1q25 21 25 44q0 11 -2 19.5t-9 20t-24.5 17.5t-44.5 6q-41 0 -104 -7v-103zM325 162q62 -8 110 -8q131 0 131 52q0 13 -7 22t-35 16t-78 7q-17 0 -121 -4v-85zM92 0v650q142 27 337 27q168 0 240 -57.5t72 -142.5q0 -74 -59 -126
q134 -51 134 -154t-98 -164t-272 -61q-97 0 -185.5 7t-128.5 14z" />
    <glyph glyph-name="C" unicode="C" horiz-adv-x="880" 
d="M34 323q0 146 129 250t333 104q90 0 164 -12.5t102 -24.5l29 -13l-12 -262h-195l4 107q-40 4 -61 4q-222 0 -222 -153q0 -63 58 -106.5t159 -43.5q62 0 131 23.5t107 47.5l38 23l73 -149q-4 -6 -12.5 -16t-41.5 -35t-73 -44t-110 -35t-150 -16q-203 0 -326.5 102
t-123.5 249z" />
    <glyph glyph-name="D" unicode="D" horiz-adv-x="990" 
d="M355 174q29 -2 96 -2q106 0 172.5 41t66.5 110q0 64 -65 109t-178 45q-30 0 -92 -5v-298zM92 0v650q163 27 358 27q223 0 365 -100.5t142 -253.5q0 -155 -137 -253t-368 -98q-92 0 -182 7t-134 14z" />
    <glyph glyph-name="E" unicode="E" horiz-adv-x="785" 
d="M92 0v650h639v-185h-378v-42h301v-178h-301v-60h392v-185h-653z" />
    <glyph glyph-name="F" unicode="F" horiz-adv-x="752" 
d="M92 0v650h645v-185h-384v-89h337v-180h-337v-196h-261z" />
    <glyph glyph-name="G" unicode="G" horiz-adv-x="939" 
d="M34 323q0 149 133 251.5t338 102.5q88 0 170.5 -11.5t121.5 -23.5l39 -12v-184q-169 30 -282 30q-132 0 -193 -42t-61 -109q0 -77 66.5 -114.5t165.5 -37.5q65 0 132 19v192h218v-312q-6 -4 -17 -11t-47.5 -24t-76 -30t-100 -24t-121.5 -11q-231 0 -358.5 97t-127.5 254z
" />
    <glyph glyph-name="H" unicode="H" horiz-adv-x="1006" 
d="M92 0v650h263v-240h297v240h262v-650h-262v231h-297v-231h-263z" />
    <glyph glyph-name="I" unicode="I" horiz-adv-x="447" 
d="M92 0v650h263v-650h-263z" />
    <glyph glyph-name="J" unicode="J" horiz-adv-x="471" 
d="M-30 -20q146 40 146 197v473h263v-468q0 -160 -104.5 -264t-267.5 -136z" />
    <glyph glyph-name="K" unicode="K" horiz-adv-x="955" 
d="M92 0v650h263v-244l49 44l211 200h309l-341 -302l371 -348h-339l-206 198l-54 -46v-152h-263z" />
    <glyph glyph-name="L" unicode="L" horiz-adv-x="726" 
d="M92 0v650h263v-471h362v-179h-625z" />
    <glyph glyph-name="M" unicode="M" horiz-adv-x="1265" 
d="M12 0l126 650h264q169 -313 230 -396q27 37 85 136t102 180l44 80h264l125 -650h-251q-33 163 -57 316q-20 -36 -68.5 -115t-87.5 -140l-38 -61h-235l-195 316l-57 -316h-251z" />
    <glyph glyph-name="N" unicode="N" horiz-adv-x="1030" 
d="M92 0v650l209 1l409 -351v4q0 5 0.5 15.5t0.5 24.5v306h226v-650h-220l-396 326q-2 -6 -2 -57v-269h-227z" />
    <glyph glyph-name="O" unicode="O" horiz-adv-x="1010" 
d="M300 325q0 -67 55.5 -109.5t146.5 -42.5q92 0 150 42.5t58 109.5q0 66 -59 108.5t-149 42.5q-89 0 -145.5 -42.5t-56.5 -108.5zM34 325q0 154 131.5 253t336.5 99q206 0 340.5 -99t134.5 -253t-134.5 -253.5t-340.5 -99.5q-205 0 -336.5 99.5t-131.5 253.5z" />
    <glyph glyph-name="P" unicode="P" horiz-adv-x="830" 
d="M336 346q24 -3 58 -3q66 0 109 17t43 50q0 74 -126 74q-18 0 -84 -4v-134zM92 0v650q183 27 339 27q167 0 269 -72t102 -194q0 -83 -52.5 -142.5t-123.5 -84.5t-147 -25q-80 0 -143 9v-168h-244z" />
    <glyph glyph-name="Q" unicode="Q" horiz-adv-x="1010" 
d="M299 323q0 -62 51.5 -105.5t136.5 -44.5q86 0 137 44t51 106q0 65 -51 109t-137 44t-137 -44t-51 -109zM34 323q0 154 125.5 254t327.5 100q203 0 328 -100t125 -254q0 -93 -51 -159.5t-141 -101.5v-3q132 -60 213 -221l-257 -59q-52 79 -118.5 136t-98.5 57
q-202 0 -327.5 100t-125.5 251z" />
    <glyph glyph-name="R" unicode="R" horiz-adv-x="875" 
d="M336 355q93 1 147 16.5t54 58.5q0 53 -113 53q-20 0 -88 -4v-124zM92 0v650q155 27 330 27q180 0 279 -64t99 -162q0 -129 -153 -202l242 -249h-328l-164 189q-19 -2 -61 -4v-185h-244z" />
    <glyph glyph-name="S" unicode="S" horiz-adv-x="777" 
d="M27 75l93 186q6 -4 17 -10t46 -22.5t70.5 -29t86 -22.5t96.5 -10q53 0 53 23q0 9 -44.5 15t-107.5 17t-126 32t-107.5 69t-44.5 118q0 105 101.5 170.5t280.5 65.5q56 0 119.5 -8.5t99.5 -16.5l35 -8l-12 -214h-178l3 60q-46 8 -84 8q-55 0 -82 -9t-27 -36
q0 -16 44.5 -27t107.5 -23t126 -32t107.5 -66t44.5 -114q0 -219 -325 -219q-74 0 -141.5 10.5t-111 25.5t-77 30.5t-48.5 25.5z" />
    <glyph glyph-name="T" unicode="T" horiz-adv-x="796" 
d="M4 470v180h788v-180h-264v-470h-260v470h-264z" />
    <glyph glyph-name="U" unicode="U" horiz-adv-x="995" 
d="M81 213v437h262v-326q0 -62 31 -93t100 -31q33 0 63.5 12t51.5 31.5t32.5 33t19.5 27.5v346h261v-650h-261v116h-8q-2 -6 -7.5 -15.5t-27 -34.5t-48.5 -44t-76 -34.5t-107 -15.5q-145 0 -215.5 65t-70.5 176z" />
    <glyph glyph-name="V" unicode="V" horiz-adv-x="949" 
d="M-3 650h291q147 -368 187 -441q16 32 62.5 142.5t84.5 204.5l38 94h291l-321 -650h-312z" />
    <glyph glyph-name="W" unicode="W" horiz-adv-x="1430" 
d="M-3 650h257q-1 0 31.5 -83t71.5 -178t52 -124l190 385h233l188 -385q13 27 52 123.5t72 179.5l32 82h256q-103 -274 -269 -650h-266q-153 310 -182 382l-182 -382h-267z" />
    <glyph glyph-name="X" unicode="X" horiz-adv-x="966" 
d="M-8 0l322 334l-318 316h302q132 -136 184 -185h1l184 185h302l-319 -316l324 -334h-314q-124 148 -177 192h-1q-23 -20 -67.5 -68t-76.5 -86l-33 -38h-313z" />
    <glyph glyph-name="Y" unicode="Y" horiz-adv-x="915" 
d="M1 650h278q171 -260 193 -290q144 214 191 290h266l-450 -650h-266l115 180z" />
    <glyph glyph-name="Z" unicode="Z" horiz-adv-x="875" 
d="M56 0v120l367 351h-367v179h761v-120l-364 -351h364v-179h-761z" />
    <glyph glyph-name="bracketleft" unicode="[" horiz-adv-x="619" 
d="M116 -111v841h505v-173h-285v-495h285v-173h-505z" />
    <glyph glyph-name="backslash" unicode="\" horiz-adv-x="719" 
d="M-56 750h246q119 -227 259 -477t221 -387l81 -136h-245q-296 491 -562 1000z" />
    <glyph glyph-name="bracketright" unicode="]" horiz-adv-x="619" 
d="M-3 62h284v495h-284v172h505v-840h-505v173z" />
    <glyph glyph-name="asciicircum" unicode="^" horiz-adv-x="549" 
d="M39 515l235 203l236 -203l-98 -92l-138 128l-139 -128z" />
    <glyph glyph-name="underscore" unicode="_" horiz-adv-x="1076" 
d="M33 -39h1009v-182h-1009v182z" />
    <glyph glyph-name="grave" unicode="`" horiz-adv-x="382" 
d="M-36 699l111 125l199 -170l-81 -94z" />
    <glyph glyph-name="a" unicode="a" horiz-adv-x="777" 
d="M279 159q0 -34 76 -34q42 0 69.5 10t33 16.5t7.5 11.5v16q-53 5 -93 5q-50 0 -71.5 -5t-21.5 -20zM27 141q0 170 297 170q68 0 141 -7v5q0 46 -141 46q-51 0 -97 -4.5t-66 -8.5l-20 -4l-26 144q12 5 33.5 12.5t87.5 20t130 12.5q135 0 213 -28t107 -78.5t29 -134.5v-286
h-240l-9 31h-5q-1 -2 -3.5 -6t-14.5 -14.5t-29.5 -18t-51.5 -14t-77 -6.5q-106 0 -182 46t-76 123z" />
    <glyph glyph-name="b" unicode="b" 
d="M312 158q43 -10 77 -10q85 0 119 23t34 72q0 43 -33 70.5t-93 27.5q-30 0 -56 -5t-37 -10l-11 -5v-163zM62 0v750h250v-286h2q18 21 65.5 42t117.5 21q127 0 220.5 -77.5t93.5 -189.5q0 -121 -108 -204.5t-271 -83.5q-95 0 -187.5 7t-137.5 14z" />
    <glyph glyph-name="c" unicode="c" horiz-adv-x="683" 
d="M27 236q0 94 52.5 161.5t135.5 98.5t186 31q46 0 97 -7t78 -14l28 -7v-184q-94 27 -184 27q-125 0 -125 -87q0 -45 29.5 -72.5t88.5 -27.5q49 0 98.5 17t74.5 34l25 18l65 -129q-3 -5 -9 -13.5t-30.5 -29.5t-54 -37t-81 -29.5t-111.5 -13.5q-164 0 -263.5 72.5
t-99.5 191.5z" />
    <glyph glyph-name="d" unicode="d" 
d="M296 256q0 -43 27 -70.5t87 -27.5q73 0 115 15v174q-27 6 -51 6q-100 0 -139 -26t-39 -71zM27 231q0 124 116 210t307 86q39 0 75 -3v226h250v-750h-225l-7 22h-10q-15 -17 -65 -33.5t-133 -16.5q-148 0 -228 72t-80 187z" />
    <glyph glyph-name="e" unicode="e" horiz-adv-x="717" 
d="M278 310q108 0 170 -1q0 -2 1 -3q-1 35 -20.5 49t-65.5 14q-39 0 -61 -16t-24 -43zM27 231q0 135 96.5 215.5t241.5 80.5q153 0 232.5 -65t79.5 -169q0 -21 -10.5 -45.5t-20.5 -37.5l-11 -14h-349q2 -28 34.5 -40t99.5 -12q48 0 95.5 11t71.5 21l24 11l62 -144
q-4 -3 -12 -7.5t-36 -17t-59 -22t-79.5 -17t-99.5 -7.5q-99 0 -179.5 28.5t-130.5 88t-50 142.5z" />
    <glyph glyph-name="f" unicode="f" horiz-adv-x="580" 
d="M39 320v180h71v32q0 97 69 163t208 66q57 0 106 -8t69 -16l20 -8v-190q-57 15 -141 15q-81 0 -81 -22v-32h187v-180h-187v-320h-250v320h-71z" />
    <glyph glyph-name="g" unicode="g" horiz-adv-x="719" 
d="M293 328q0 -22 15 -31.5t51 -9.5t49.5 9t13.5 32q0 6 -4 38q-30 3 -59 3q-36 0 -51 -9.5t-15 -31.5zM269 -76q0 -15 29.5 -24.5t78.5 -9.5t77 9.5t28 24.5t-28.5 24.5t-76.5 9.5q-40 0 -80 -5q-28 -15 -28 -29zM16 -82q0 55 37 94.5t91 62.5q-2 20 -2 29q0 42 14 79
q-101 49 -101 145q0 91 86 145t218 54q72 0 135 -6.5t90 -13.5l28 -7q5 -5 13.5 -16.5t22 -55.5t13.5 -100q0 -90 -83.5 -136t-218.5 -46h-22q-6 -16 -6 -24q0 -13 11 -20q16 2 35 2q174 0 266.5 -49.5t92.5 -136.5q0 -89 -93 -142.5t-266 -53.5t-267 53.5t-94 142.5z" />
    <glyph glyph-name="h" unicode="h" horiz-adv-x="822" 
d="M62 0v750h250v-300h2q2 3 6.5 8.5t21 18.5t37 23t56.5 18.5t77 8.5q117 0 182.5 -68.5t65.5 -180.5v-278h-250v275q0 24 -21.5 42.5t-63.5 18.5q-33 0 -61.5 -17.5t-39.5 -34.5l-12 -18v-266h-250z" />
    <glyph glyph-name="i" unicode="i" horiz-adv-x="400" 
d="M75 0v500h250v-500h-250zM71 698q0 45 35 82.5t93 37.5q59 0 94 -37t35 -83q0 -45 -35 -82t-94 -37q-58 0 -93 37t-35 82z" />
    <glyph glyph-name="j" unicode="j" horiz-adv-x="417" 
d="M88 698q0 45 35 82.5t93 37.5q59 0 94 -37t35 -83q0 -45 -35 -82t-94 -37q-58 0 -93 37t-35 82zM-51 -75q55 13 99 33.5t44 41.5v500h250v-500q0 -76 -56.5 -139.5t-136.5 -97.5t-164 -42z" />
    <glyph glyph-name="k" unicode="k" horiz-adv-x="789" 
d="M62 0v750h250v-394l30 24l118 120h287l-224 -204l264 -296h-301l-138 156l-36 -27v-129h-250z" />
    <glyph glyph-name="l" unicode="l" horiz-adv-x="376" 
d="M62 0v750h250v-750h-250z" />
    <glyph glyph-name="m" unicode="m" horiz-adv-x="1171" 
d="M75 0v500h241l8 -70h4q2 4 5.5 10.5t18 23t33 29.5t52.5 23.5t74 10.5q139 0 182 -97h4q2 4 6 10.5t20 23t36 29.5t55 23.5t76 10.5q116 0 167.5 -60.5t51.5 -178.5v-288h-251v288q0 22 -16 39t-56 17q-44 0 -70 -30q2 -26 2 -41v-273h-251v288q0 56 -71 56
q-49 0 -70 -31v-313h-251z" />
    <glyph glyph-name="n" unicode="n" horiz-adv-x="835" 
d="M75 0v500h241l6 -50h4q2 3 6.5 8.5t21 18.5t37.5 23t57 18.5t77 8.5q117 0 181.5 -68.5t64.5 -180.5v-278h-250v275q0 24 -21 42.5t-63 18.5q-31 0 -58 -16t-37.5 -29t-15.5 -23v-268h-251z" />
    <glyph glyph-name="o" unicode="o" 
d="M296 251q0 -44 32 -70.5t89 -26.5q59 0 91.5 26t32.5 70q0 43 -32.5 68.5t-91.5 25.5q-58 0 -89.5 -25t-31.5 -68zM27 250q0 124 110.5 200.5t279.5 76.5q170 0 281.5 -76.5t111.5 -200.5t-111.5 -201t-281.5 -77q-169 0 -279.5 77t-110.5 201z" />
    <glyph glyph-name="p" unicode="p" 
d="M312 139q40 -8 77 -8q153 0 153 112q0 43 -33 70.5t-93 27.5q-30 0 -56 -5.5t-37 -10.5l-11 -5v-181zM62 -250v750h240l4 -36h10q56 63 166 63q141 0 235 -76.5t94 -190.5q0 -121 -108 -204.5t-271 -83.5q-60 0 -120 5v-227h-250z" />
    <glyph glyph-name="q" unicode="q" 
d="M296 256q0 -98 111 -98q78 0 118 17v172q-26 6 -49 6q-101 0 -140.5 -25.5t-39.5 -71.5zM27 231q0 124 117 210t309 86q87 0 167.5 -15.5t117.5 -31.5l37 -16v-714h-250v272h-4q-39 -50 -189 -50q-145 0 -225 72.5t-80 186.5z" />
    <glyph glyph-name="r" unicode="r" horiz-adv-x="562" 
d="M75 0v500h210l9 -93h3q53 120 151 120q32 0 56.5 -6.5t33.5 -13.5l9 -7v-192q-84 -1 -118 -5q-49 -5 -71.5 -43.5t-32.5 -111.5v-148h-250z" />
    <glyph glyph-name="s" unicode="s" horiz-adv-x="651" 
d="M20 55l75 152q15 -9 39.5 -22t87 -34.5t108.5 -21.5q30 0 30 5q0 6 -31.5 14.5t-76 21t-89 31.5t-76 55.5t-31.5 83.5q0 83 86.5 135t213.5 52q69 0 128 -8t84 -16l25 -8v-167q-126 44 -222 44q-51 0 -51 -10q0 -8 31.5 -15t76 -17.5t89 -27.5t76 -51.5t31.5 -81.5
q0 -85 -74 -141t-204 -56q-104 0 -185.5 21t-110.5 41z" />
    <glyph glyph-name="t" unicode="t" horiz-adv-x="637" 
d="M39 320v180h71v103l250 85v-188h244v-180h-244v-96q0 -24 16.5 -40.5t50.5 -16.5q23 0 67 8.5t77 17.5l33 9v-153q-4 -3 -11 -8.5t-33 -18.5t-54.5 -23t-75 -18.5t-95.5 -8.5q-115 0 -170 54.5t-55 182.5v111h-71z" />
    <glyph glyph-name="u" unicode="u" horiz-adv-x="835" 
d="M63 222v278h250v-276q0 -24 21.5 -43t62.5 -19q33 0 61.5 18t39.5 36l12 17v267h250v-500h-240l-7 50h-5q-2 -3 -6.5 -8.5t-21 -19t-37 -23.5t-56.5 -18.5t-77 -8.5q-117 0 -182 69t-65 181z" />
    <glyph glyph-name="v" unicode="v" horiz-adv-x="789" 
d="M-5 500h264l149 -303q62 108 124 303h264q-45 -121 -113 -238t-172 -262h-249z" />
    <glyph glyph-name="w" unicode="w" horiz-adv-x="1149" 
d="M-3 500h266q97 -252 102 -266q52 140 78 266h266q49 -166 83 -264q8 12 16.5 28t16.5 37.5t13.5 37t14 43.5t11.5 39.5t11.5 42.5t9.5 36h266q-89 -315 -274 -500h-256v-3l-11 46q-10 46 -24.5 105t-22.5 84q-4 -11 -16 -50t-20.5 -65t-22 -60.5t-26.5 -56.5h-256z" />
    <glyph glyph-name="x" unicode="x" horiz-adv-x="813" 
d="M2 0l256 249l-244 251h291q65 -72 101 -121q16 22 41 52t43 49l17 20h291l-245 -251l258 -249h-293l-112 131l-112 -131h-292z" />
    <glyph glyph-name="y" unicode="y" horiz-adv-x="805" 
d="M-3 500h285q94 -230 120 -278l133 278h272l-286 -464l-114 -286h-273l119 270l1 4z" />
    <glyph glyph-name="z" unicode="z" horiz-adv-x="669" 
d="M23 0v110l235 224q-33 -3 -61 -3h-153v169h602v-100l-254 -236h246l-1 -164h-614z" />
    <glyph glyph-name="braceleft" unicode="{" horiz-adv-x="630" 
d="M92 193v198q37 0 81 10t44 31v86q0 57 18 97.5t60 71.5t117 46.5t184 15.5v-183q-79 0 -121.5 -15t-42.5 -37v-92q0 -76 -85 -130q85 -56 85 -130v-92q0 -22 42.5 -37t121.5 -15v-183q-109 0 -184 15.5t-117 46.5t-60 71.5t-18 97.5v86q0 21 -44 31t-81 10z" />
    <glyph glyph-name="bar" unicode="|" horiz-adv-x="571" 
d="M157 -250v1000h262v-1000h-262z" />
    <glyph glyph-name="braceright" unicode="}" horiz-adv-x="630" 
d="M34 18q79 0 121 15t42 37v92q0 74 85 130q-85 54 -85 130v92q0 22 -42 37t-121 15v183q88 0 153 -10.5t108 -29t69 -47.5t37 -64t11 -80v-86q0 -21 44.5 -31t80.5 -10v-198q-36 0 -80.5 -10t-44.5 -31v-86q0 -45 -11 -80t-37 -64t-69 -47.5t-108 -29t-153 -10.5v183z" />
    <glyph glyph-name="asciitilde" unicode="~" horiz-adv-x="924" 
d="M39 359q6 6 16.5 16t43 35t64 44t74 35t79.5 16q55 0 99.5 -15.5t72.5 -38t52 -45t51.5 -38t58.5 -15.5q48 0 97.5 20.5t74.5 40.5l25 20l38 -170q-4 -6 -11.5 -16t-32 -35.5t-52 -45t-70.5 -35.5t-87 -16q-49 0 -89.5 15t-68 37t-53 43.5t-56 36.5t-64.5 15
q-46 0 -102.5 -22.5t-90.5 -45.5l-33 -23z" />
    <glyph glyph-name="nbspace" unicode="&#xa0;" horiz-adv-x="652" 
 />
    <glyph glyph-name="exclamdown" unicode="&#xa1;" horiz-adv-x="531" 
d="M145 -251l30 450h209l24 -450h-263zM129 409q0 53 38 90.5t95 37.5t95 -37.5t38 -90.5t-38 -90t-95 -37t-95 37t-38 90z" />
    <glyph glyph-name="cent" unicode="&#xa2;" horiz-adv-x="683" 
d="M27 306q0 111 69 182t183 96l-8 116h238l-10 -111q27 -4 53 -9t39 -8l13 -3v-184q-94 27 -184 27q-125 0 -125 -87q0 -45 29.5 -72.5t88.5 -27.5q49 0 98.5 17.5t74.5 34.5l25 17l65 -129q-6 -9 -17.5 -23t-57 -44t-101.5 -44l9 -104h-238l7 102q-117 23 -184 90t-67 164
z" />
    <glyph glyph-name="sterling" unicode="&#xa3;" horiz-adv-x="817" 
d="M45 0v184h135v80h-135v157h135v8q0 101 83 174.5t221 73.5q52 0 101 -11.5t73 -23.5l23 -12v-178q-54 24 -125 24q-51 0 -75 -11t-26 -44h226v-157h-226v-80h341v-184h-751z" />
    <glyph glyph-name="currency" unicode="&#xa4;" horiz-adv-x="784" 
d="M281 317q0 -39 31 -62t82 -23q50 0 81.5 23t31.5 61t-31.5 60.5t-81.5 22.5q-52 0 -82.5 -21.5t-30.5 -60.5zM46 89l138 115q-49 54 -49 112q0 56 45 106l-134 119l111 106l131 -153q51 19 106 19q48 0 96 -16l136 150l113 -106l-138 -114q51 -54 51 -111q0 -56 -48 -110
l135 -117l-113 -106l-131 152q-48 -17 -101 -17q-56 0 -100 16l-137 -151z" />
    <glyph glyph-name="yen" unicode="&#xa5;" horiz-adv-x="790" 
d="M4 650h298l99 -214q21 33 39 64.5t26.5 48t25.5 53t23 48.5h257q-75 -115 -168 -223h73v-152h-172v-22h172v-152h-172v-101h-268v101h-192v152h192v22h-192v152h101z" />
    <glyph glyph-name="brokenbar" unicode="&#xa6;" horiz-adv-x="571" 
d="M152 350v400h267v-400h-267zM152 150h267v-400h-267v400z" />
    <glyph glyph-name="section" unicode="&#xa7;" horiz-adv-x="760" 
d="M306 313q0 -21 28.5 -28.5t126.5 -15.5l22 -2q9 13 9 27q0 19 -19.5 25.5t-87.5 14.5q-4 0 -6.5 0.5t-6 1t-6.5 0.5l-51 5q-9 -17 -9 -28zM45 29l81 145q11 -7 32 -18t85.5 -29.5t129.5 -18.5q46 0 59.5 1.5t13.5 8.5q0 6 -17.5 9t-89.5 11q-39 5 -61 8t-56 10t-53 16.5
t-39.5 23.5t-29.5 35t-9 48q0 44 52 103q-53 34 -53 117q0 80 84.5 129t232.5 49q83 0 154 -8t101 -16l29 -8v-169q-122 24 -256 24q-76 0 -76 -7q0 -6 127 -25q43 -6 60 -9t51.5 -10.5t49 -15.5t33.5 -21t26.5 -31t7.5 -42q0 -62 -51 -115q52 -34 52 -100q0 -193 -336 -193
q-61 0 -117.5 10t-94 24.5t-66.5 29t-43 24.5z" />
    <glyph glyph-name="dieresis" unicode="&#xa8;" horiz-adv-x="671" 
d="M258 698q0 44 39 82t93 38q56 0 95 -38t39 -82t-39 -81.5t-95 -37.5q-55 0 -93.5 37.5t-38.5 81.5zM-42 698q0 44 38.5 82t93.5 38q56 0 94.5 -38t38.5 -82t-38.5 -81.5t-94.5 -37.5q-55 0 -93.5 37.5t-38.5 81.5z" />
    <glyph glyph-name="copyright" unicode="&#xa9;" horiz-adv-x="1105" 
d="M315 313q0 78 76.5 132.5t178.5 54.5q51 0 86.5 -6.5t45.5 -13.5l10 -6v-121q-65 8 -115 8q-107 0 -107 -48q0 -45 100 -45q31 0 61 13t44 27l14 13l52 -77q-2 -5 -6 -13t-21 -28.5t-39.5 -36.5t-64.5 -29t-93 -13q-98 0 -160 54t-62 135zM251 320q0 -103 81.5 -179
t216.5 -76t220.5 76.5t85.5 178.5t-85 179t-221 77q-135 0 -216.5 -76.5t-81.5 -179.5zM79 321q0 71 32.5 139t91.5 122t149.5 87t197.5 33t198.5 -33t151 -87t93 -122t33.5 -139t-33 -139t-92 -122.5t-150.5 -87.5t-200.5 -33t-199.5 33t-149 87.5t-90.5 122.5t-32 139z
" />
    <glyph glyph-name="ordfeminine" unicode="&#xaa;" horiz-adv-x="692" 
d="M242 406q0 -23 49 -23q31 0 58 24v22q-36 2 -45 2q-36 0 -49 -6t-13 -19zM34 400q0 43 37 71t85.5 38t105.5 10q21 0 87 -4v3q0 20 -15 25.5t-48 5.5q-36 0 -76 -2.5t-62 -4.5l-22 -3v100q86 21 183 21q133 0 188 -38.5t55 -116.5v-210h-203v28q-49 -44 -143 -44
q-74 0 -123 32.5t-49 88.5z" />
    <glyph glyph-name="guillemotleft" unicode="&#xab;" horiz-adv-x="840" 
d="M407 250l249 203l98 -116l-120 -90l117 -92l-97 -113zM115 250l249 203l98 -116l-120 -90l117 -92l-97 -113z" />
    <glyph glyph-name="logicalnot" unicode="&#xac;" horiz-adv-x="785" 
d="M62 219v182h659v-336h-210v154h-449z" />
    <glyph glyph-name="uni00AD" unicode="&#xad;" horiz-adv-x="571" 
d="M58 179v182h456v-182h-456z" />
    <glyph glyph-name="registered" unicode="&#xae;" horiz-adv-x="1057" 
d="M495 400q87 13 87 40q0 30 -52 30q-5 0 -16.5 -0.5t-18.5 -0.5v-69zM359 247v312q42 10 167 10q96 0 148.5 -33.5t52.5 -84.5t-70 -89l73 -115h-150l-39 74q-42 -9 -46 -10v-64h-136zM241 401q0 -108 74 -173.5t210 -65.5q137 0 214 66t77 173q0 108 -77 176t-214 68
q-134 0 -209 -71t-75 -173zM79 402q0 94 57 177t160.5 135t229.5 52q189 0 321 -110t132 -254q0 -71 -32.5 -136.5t-90 -117t-144 -82t-186.5 -30.5t-185.5 30.5t-142 82t-88 117t-31.5 136.5z" />
    <glyph glyph-name="macron" unicode="&#xaf;" horiz-adv-x="667" 
d="M144 589v121h357v-121h-357z" />
    <glyph glyph-name="degree" unicode="&#xb0;" horiz-adv-x="637" 
d="M244 558q0 -22 17.5 -39t55.5 -17q40 0 59.5 17.5t19.5 38.5q0 20 -20 36t-59 16q-36 0 -54.5 -16t-18.5 -36zM34 557q0 96 80.5 165.5t202.5 69.5q120 0 203.5 -70t83.5 -165q0 -97 -80 -167.5t-207 -70.5q-130 0 -206.5 69.5t-76.5 168.5z" />
    <glyph glyph-name="plusminus" unicode="&#xb1;" horiz-adv-x="836" 
d="M92 304v182h229v193h205v-193h225v-182h-225v-194h-205v194h-229zM32 -91v182h771v-182h-771z" />
    <glyph glyph-name="twosuperior" unicode="&#xb2;" horiz-adv-x="539" 
d="M31 209v140l16.5 5.5t40.5 14.5t57 22t60.5 26.5t57.5 29.5t40.5 29.5t16.5 28.5q0 23 -26 33t-84 10q-26 0 -64.5 -3.5t-63.5 -6.5l-26 -4v125q70 30 203 30q120 0 181.5 -47t61.5 -120q0 -117 -222 -194q119 17 227 17v-136h-476z" />
    <glyph glyph-name="threesuperior" unicode="&#xb3;" horiz-adv-x="507" 
d="M6 277l69 115q8 -6 22 -16t55.5 -26t80.5 -16q79 0 79 31q0 33 -114 33l-64 86q24 17 82 62q-76 -6 -151 -6v129h391v-94q-50 -41 -114 -86q157 -25 157 -127q0 -79 -70.5 -121.5t-181.5 -42.5q-75 0 -135 20t-83 40z" />
    <glyph glyph-name="acute" unicode="&#xb4;" horiz-adv-x="382" 
d="M25 654l199 170l111 -125l-229 -139z" />
    <glyph glyph-name="mu" unicode="&#xb5;" horiz-adv-x="835" 
d="M62 -250v534h1v216h250v-276q0 -24 21.5 -43t62.5 -19q33 0 61.5 18t39.5 36l12 17v267h250v-500h-240l-7 50h-5q-2 -3 -6.5 -8.5t-21 -18.5t-37 -23.5t-55.5 -19t-76 -8.5v-222h-250z" />
    <glyph glyph-name="paragraph" unicode="&#xb6;" horiz-adv-x="999" 
d="M34 365q0 127 135.5 206t362.5 79h429v-196h-236v-704h-256v344q-48 -9 -102 -9q-151 0 -242 77t-91 203z" />
    <glyph glyph-name="periodcentered" unicode="&#xb7;" horiz-adv-x="484" 
d="M109 399q0 53 38 90.5t95 37.5t95 -37.5t38 -90.5t-38 -90t-95 -37t-95 37t-38 90z" />
    <glyph glyph-name="cedilla" unicode="&#xb8;" horiz-adv-x="375" 
d="M75 -199l48 87q39 -24 71 -24q22 0 22 16q0 1 -19 8t-37.5 23.5t-18.5 42.5q0 14 7.5 25.5t15.5 16.5l7 4h105v-9q0 -9 18 -20.5t39.5 -22.5t39.5 -36.5t18 -58.5q0 -50 -45.5 -77t-121.5 -27q-48 0 -85.5 13t-50.5 26z" />
    <glyph glyph-name="onesuperior" unicode="&#xb9;" horiz-adv-x="429" 
d="M-16 512q48 41 98.5 80t76.5 58l26 19h182v-455h-182v284q-78 -62 -123 -92z" />
    <glyph glyph-name="ordmasculine" unicode="&#xba;" horiz-adv-x="614" 
d="M227 471q0 -55 79 -55q80 0 80 54q0 53 -80 53q-79 0 -79 -52zM34 470q0 87 76 141t196 54q121 0 197.5 -54t76.5 -141t-76.5 -141.5t-197.5 -54.5q-120 0 -196 54.5t-76 141.5z" />
    <glyph glyph-name="guillemotright" unicode="&#xbb;" horiz-adv-x="840" 
d="M376 158l120 89l-117 93l97 113l247 -208l-249 -203zM84 158l120 89l-117 93l97 113l247 -208l-249 -203z" />
    <glyph glyph-name="onequarter" unicode="&#xbc;" horiz-adv-x="1169" 
d="M777 -6q13 1 61 3l72 3v45q6 16 6 43q-45 -18 -139 -94zM616 0q65 59 151 121.5t139 94.5l54 33h126v-249h92v-123h-92v-83h-176v83h-294v123zM319 -76l429 771l152 -58l-429 -771zM-16 512q48 41 98.5 80t76.5 58l26 19h182v-455h-182v284q-78 -62 -123 -92z" />
    <glyph glyph-name="onehalf" unicode="&#xbd;" horiz-adv-x="1247" 
d="M740 -71l16.5 5.5t40.5 14.5t57 22t60.5 26.5t57.5 29.5t40.5 29.5t16.5 28.5q0 23 -26 33t-84 10q-26 0 -64.5 -3.5t-64.5 -6.5l-25 -4v125q70 30 203 30q120 0 181.5 -47t61.5 -120q0 -117 -222 -194q119 17 227 17v-136h-476v140zM319 -76l429 771l152 -58l-429 -771z
M-16 512q48 41 98.5 80t76.5 58l26 19h182v-455h-182v284q-78 -62 -123 -92z" />
    <glyph glyph-name="threequarters" unicode="&#xbe;" horiz-adv-x="1227" 
d="M836 -6q13 1 61 3l72 3v45q6 16 6 43q-45 -18 -139 -94zM675 0q65 59 151 121.5t140 94.5l53 33h126v-249h92v-123h-92v-83h-176v83h-294v123zM379 -76l429 771l152 -58l-429 -771zM6 277l69 115q8 -6 22 -16t55.5 -26t80.5 -16q79 0 79 31q0 33 -114 33l-64 86
q24 17 82 62q-76 -6 -151 -6v129h391v-94q-50 -41 -114 -86q157 -25 157 -127q0 -79 -70.5 -121.5t-181.5 -42.5q-75 0 -135 20t-83 40z" />
    <glyph glyph-name="questiondown" unicode="&#xbf;" horiz-adv-x="582" 
d="M251 409q0 53 38 90.5t95 37.5t95 -37.5t38 -90.5t-38 -90t-95 -37t-95 37t-38 90zM-11 -73q0 55 23.5 93t58.5 54.5t76 29.5t76 19.5t58.5 22.5t23.5 42q0 15 -7 32l184 18q26 -55 26 -95q0 -49 -37 -81.5t-81.5 -45t-81.5 -28t-37 -33.5q0 -16 29 -26.5t89 -10.5
q36 0 83 7t76 15l30 7v-179q-9 -5 -27.5 -12t-81 -18.5t-132.5 -11.5q-85 0 -154 20t-110 51t-62.5 65t-21.5 65z" />
    <glyph glyph-name="Agrave" unicode="&#xc0;" horiz-adv-x="985" 
d="M391 257h196q-67 156 -97 214q-24 -45 -99 -214zM305 834l111 125l199 -170l-81 -94zM15 0l325 650l3 -5l2 5h312l313 -650h-268l-46 99h-335l-41 -99h-265z" />
    <glyph glyph-name="Aacute" unicode="&#xc1;" horiz-adv-x="985" 
d="M391 257h196q-67 156 -97 214q-24 -45 -99 -214zM349 789l199 170l111 -125l-229 -139zM15 0l325 650l3 -5l2 5h312l313 -650h-268l-46 99h-335l-41 -99h-265z" />
    <glyph glyph-name="Acircumflex" unicode="&#xc2;" horiz-adv-x="985" 
d="M391 257h196q-67 156 -97 214q-24 -45 -99 -214zM256 837l235 131l236 -131l-84 -137l-152 97l-152 -97zM15 0l325 650l3 -5l2 5h312l313 -650h-268l-46 99h-335l-41 -99h-265z" />
    <glyph glyph-name="Atilde" unicode="&#xc3;" horiz-adv-x="985" 
d="M391 257h196q-67 156 -97 214q-24 -45 -99 -214zM246 840q3 5 8.5 13t23 28.5t34.5 36.5t42 29t47 13q41 0 71.5 -9t46 -20t38 -20t48.5 -9q28 0 52.5 7t34.5 14l10 7l37 -98q-1 -4 -4 -11.5t-14.5 -25.5t-25.5 -32t-39 -25.5t-54 -11.5q-55 0 -107 27t-94 27
q-27 0 -56 -12.5t-45 -25.5l-15 -12zM15 0l325 650l3 -5l2 5h312l313 -650h-268l-46 99h-335l-41 -99h-265z" />
    <glyph glyph-name="Adieresis" unicode="&#xc4;" horiz-adv-x="985" 
d="M502 833q0 44 39 82t93 38q56 0 95 -38t39 -82t-39 -81.5t-95 -37.5q-55 0 -93.5 37.5t-38.5 81.5zM391 257h196q-67 156 -97 214q-24 -45 -99 -214zM202 833q0 44 38.5 82t93.5 38q56 0 94.5 -38t38.5 -82t-38.5 -81.5t-94.5 -37.5q-55 0 -93.5 37.5t-38.5 81.5zM15 0
l325 650l3 -5l2 5h312l313 -650h-268l-46 99h-335l-41 -99h-265z" />
    <glyph glyph-name="Aring" unicode="&#xc5;" horiz-adv-x="985" 
d="M436 842q0 -19 15 -32.5t40 -13.5t40 13t15 33q0 18 -16 31t-39 13t-39 -13t-16 -31zM391 257h196q-67 156 -97 214q-24 -45 -99 -214zM321 841q0 65 47 107.5t123 42.5q73 0 121.5 -43t48.5 -107q0 -65 -47 -108.5t-123 -43.5q-80 0 -125 43t-45 109zM15 0l325 650l3 -5
l2 5h312l313 -650h-268l-46 99h-335l-41 -99h-265z" />
    <glyph glyph-name="AE" unicode="&#xc6;" horiz-adv-x="1293" 
d="M440 242h171v223h-10zM-21 0l507 650h754v-185h-378v-42h300v-177h-300v-61h391v-185h-642v99h-275l-71 -99h-286z" />
    <glyph glyph-name="Ccedilla" unicode="&#xc7;" horiz-adv-x="880" 
d="M34 323q0 146 129 250t333 104q90 0 164 -12.5t102 -24.5l29 -13l-12 -262h-195l4 107q-40 4 -61 4q-222 0 -222 -153q0 -63 58 -106.5t159 -43.5q62 0 131 23.5t107 47.5l38 23l73 -149q-3 -5 -10.5 -13.5t-34.5 -30.5t-60 -40t-90 -35.5t-122 -23.5q5 -3 27.5 -16
t36 -23.5t26.5 -33t13 -49.5q0 -50 -45.5 -77t-121.5 -27q-48 0 -85.5 13t-50.5 26l-13 13l48 87q39 -24 71 -24q22 0 22 16q0 1 -19 8t-37.5 23.5t-18.5 42.5q0 12 5 22q-173 18 -275.5 116.5t-102.5 230.5z" />
    <glyph glyph-name="Egrave" unicode="&#xc8;" horiz-adv-x="785" 
d="M191 834l111 125l199 -170l-81 -94zM92 0v650h639v-185h-378v-42h301v-178h-301v-60h392v-185h-653z" />
    <glyph glyph-name="Eacute" unicode="&#xc9;" horiz-adv-x="785" 
d="M236 789l199 170l111 -125l-229 -139zM92 0v650h639v-185h-378v-42h301v-178h-301v-60h392v-185h-653z" />
    <glyph glyph-name="Ecircumflex" unicode="&#xca;" horiz-adv-x="785" 
d="M144 837l235 131l236 -131l-84 -137l-152 97l-152 -97zM92 0v650h639v-185h-378v-42h301v-178h-301v-60h392v-185h-653z" />
    <glyph glyph-name="Edieresis" unicode="&#xcb;" horiz-adv-x="785" 
d="M389 833q0 44 39 82t93 38q56 0 95 -38t39 -82t-39 -81.5t-95 -37.5q-55 0 -93.5 37.5t-38.5 81.5zM92 0v650h639v-185h-378v-42h301v-178h-301v-60h392v-185h-653zM89 833q0 44 38.5 82t93.5 38q56 0 94.5 -38t38.5 -82t-38.5 -81.5t-94.5 -37.5q-55 0 -93.5 37.5
t-38.5 81.5z" />
    <glyph glyph-name="Igrave" unicode="&#xcc;" horiz-adv-x="447" 
d="M92 0v650h263v-650h-263zM39 834l111 125l199 -170l-81 -94z" />
    <glyph glyph-name="Iacute" unicode="&#xcd;" horiz-adv-x="447" 
d="M92 0v650h263v-650h-263zM84 789l199 170l111 -125l-229 -139z" />
    <glyph glyph-name="Icircumflex" unicode="&#xce;" horiz-adv-x="447" 
d="M92 0v650h263v-650h-263zM-10 837l235 131l236 -131l-84 -137l-152 97l-152 -97z" />
    <glyph glyph-name="Idieresis" unicode="&#xcf;" horiz-adv-x="447" 
d="M235 833q0 44 39 82t93 38q56 0 95 -38t39 -82t-39 -81.5t-95 -37.5q-55 0 -93.5 37.5t-38.5 81.5zM92 0v650h263v-650h-263zM-65 833q0 44 38.5 82t93.5 38q56 0 94.5 -38t38.5 -82t-38.5 -81.5t-94.5 -37.5q-55 0 -93.5 37.5t-38.5 81.5z" />
    <glyph glyph-name="Eth" unicode="&#xd0;" horiz-adv-x="990" 
d="M355 174q29 -2 96 -2q106 0 172.5 41t66.5 110q0 64 -65 109t-178 45q-30 0 -92 -5v-75h184v-152h-184v-71zM16 245v152h76v253q163 27 358 27q223 0 365 -100.5t142 -253.5q0 -155 -137 -253t-368 -98q-92 0 -182 7t-134 14l-44 7v245h-76z" />
    <glyph glyph-name="Ntilde" unicode="&#xd1;" horiz-adv-x="1030" 
d="M258 840q3 5 8.5 13t23 28.5t34.5 36.5t42 29t47 13q41 0 71.5 -9t46 -20t38 -20t48.5 -9q28 0 52.5 7t34.5 14l10 7l37 -98q-1 -4 -4 -11.5t-14.5 -25.5t-25.5 -32t-39 -25.5t-54 -11.5q-55 0 -107 27t-94 27q-27 0 -56 -12.5t-45 -25.5l-15 -12zM92 0v650l209 1
l409 -351v4q0 5 0.5 15.5t0.5 24.5v306h226v-650h-220l-396 326q-2 -6 -2 -57v-269h-227z" />
    <glyph glyph-name="Ograve" unicode="&#xd2;" horiz-adv-x="1010" 
d="M315 834l111 125l199 -170l-81 -94zM300 325q0 -67 55.5 -109.5t146.5 -42.5q92 0 150 42.5t58 109.5q0 66 -59 108.5t-149 42.5q-89 0 -145.5 -42.5t-56.5 -108.5zM34 325q0 154 131.5 253t336.5 99q206 0 340.5 -99t134.5 -253t-134.5 -253.5t-340.5 -99.5
q-205 0 -336.5 99.5t-131.5 253.5z" />
    <glyph glyph-name="Oacute" unicode="&#xd3;" horiz-adv-x="1010" 
d="M360 789l199 170l111 -125l-229 -139zM300 325q0 -67 55.5 -109.5t146.5 -42.5q92 0 150 42.5t58 109.5q0 66 -59 108.5t-149 42.5q-89 0 -145.5 -42.5t-56.5 -108.5zM34 325q0 154 131.5 253t336.5 99q206 0 340.5 -99t134.5 -253t-134.5 -253.5t-340.5 -99.5
q-205 0 -336.5 99.5t-131.5 253.5z" />
    <glyph glyph-name="Ocircumflex" unicode="&#xd4;" horiz-adv-x="1010" 
d="M300 325q0 -67 55.5 -109.5t146.5 -42.5q92 0 150 42.5t58 109.5q0 66 -59 108.5t-149 42.5q-89 0 -145.5 -42.5t-56.5 -108.5zM266 837l235 131l236 -131l-84 -137l-152 97l-152 -97zM34 325q0 154 131.5 253t336.5 99q206 0 340.5 -99t134.5 -253t-134.5 -253.5
t-340.5 -99.5q-205 0 -336.5 99.5t-131.5 253.5z" />
    <glyph glyph-name="Otilde" unicode="&#xd5;" horiz-adv-x="1010" 
d="M300 325q0 -67 55.5 -109.5t146.5 -42.5q92 0 150 42.5t58 109.5q0 66 -59 108.5t-149 42.5q-89 0 -145.5 -42.5t-56.5 -108.5zM257 840q3 5 8.5 13t23 28.5t34.5 36.5t42 29t47 13q41 0 71.5 -9t46 -20t38 -20t48.5 -9q28 0 52.5 7t34.5 14l10 7l37 -98q-1 -4 -4 -11.5
t-14.5 -25.5t-25.5 -32t-39 -25.5t-54 -11.5q-55 0 -107 27t-94 27q-27 0 -56 -12.5t-44 -25.5l-16 -12zM34 325q0 154 131.5 253t336.5 99q206 0 340.5 -99t134.5 -253t-134.5 -253.5t-340.5 -99.5q-205 0 -336.5 99.5t-131.5 253.5z" />
    <glyph glyph-name="Odieresis" unicode="&#xd6;" horiz-adv-x="1010" 
d="M512 833q0 44 39 82t93 38q56 0 95 -38t39 -82t-39 -81.5t-95 -37.5q-55 0 -93.5 37.5t-38.5 81.5zM300 325q0 -67 55.5 -109.5t146.5 -42.5q92 0 150 42.5t58 109.5q0 66 -59 108.5t-149 42.5q-89 0 -145.5 -42.5t-56.5 -108.5zM212 833q0 44 38.5 82t93.5 38
q56 0 94.5 -38t38.5 -82t-38.5 -81.5t-94.5 -37.5q-55 0 -93.5 37.5t-38.5 81.5zM34 325q0 154 131.5 253t336.5 99q206 0 340.5 -99t134.5 -253t-134.5 -253.5t-340.5 -99.5q-205 0 -336.5 99.5t-131.5 253.5z" />
    <glyph glyph-name="multiply" unicode="&#xd7;" horiz-adv-x="656" 
d="M27 210l137 108l-132 104l144 145l152 -120l152 120l144 -145l-132 -104l137 -108l-145 -145l-156 123l-156 -123z" />
    <glyph glyph-name="Oslash" unicode="&#xd8;" horiz-adv-x="1010" 
d="M474 174q9 -1 28 -1q92 0 150 42.5t58 109.5q0 75 -74 118zM300 325q0 -76 68 -119l162 268q-18 2 -28 2q-89 0 -145.5 -42.5t-56.5 -108.5zM34 325q0 154 131.5 253t336.5 99q74 0 148 -16l43 64l115 -15l-55 -82q104 -45 164 -124t60 -179q0 -154 -134.5 -253.5
t-340.5 -99.5q-68 0 -136 13l-53 -96l-115 15l62 113q-106 45 -166 125.5t-60 182.5z" />
    <glyph glyph-name="Ugrave" unicode="&#xd9;" horiz-adv-x="995" 
d="M297 834l111 125l199 -170l-81 -94zM81 213v437h262v-326q0 -62 31 -93t100 -31q33 0 63.5 12t51.5 31.5t32.5 33t19.5 27.5v346h261v-650h-261v116h-8q-2 -6 -7.5 -15.5t-27 -34.5t-48.5 -44t-76 -34.5t-107 -15.5q-145 0 -215.5 65t-70.5 176z" />
    <glyph glyph-name="Uacute" unicode="&#xda;" horiz-adv-x="995" 
d="M342 789l199 170l111 -125l-229 -139zM81 213v437h262v-326q0 -62 31 -93t100 -31q33 0 63.5 12t51.5 31.5t32.5 33t19.5 27.5v346h261v-650h-261v116h-8q-2 -6 -7.5 -15.5t-27 -34.5t-48.5 -44t-76 -34.5t-107 -15.5q-145 0 -215.5 65t-70.5 176z" />
    <glyph glyph-name="Ucircumflex" unicode="&#xdb;" horiz-adv-x="995" 
d="M250 837l235 131l236 -131l-84 -137l-152 97l-152 -97zM81 213v437h262v-326q0 -62 31 -93t100 -31q33 0 63.5 12t51.5 31.5t32.5 33t19.5 27.5v346h261v-650h-261v116h-8q-2 -6 -7.5 -15.5t-27 -34.5t-48.5 -44t-76 -34.5t-107 -15.5q-145 0 -215.5 65t-70.5 176z" />
    <glyph glyph-name="Udieresis" unicode="&#xdc;" horiz-adv-x="995" 
d="M495 833q0 44 39 82t93 38q56 0 95 -38t39 -82t-39 -81.5t-95 -37.5q-55 0 -93.5 37.5t-38.5 81.5zM195 833q0 44 38.5 82t93.5 38q56 0 94.5 -38t38.5 -82t-38.5 -81.5t-94.5 -37.5q-55 0 -93.5 37.5t-38.5 81.5zM81 213v437h262v-326q0 -62 31 -93t100 -31
q33 0 63.5 12t51.5 31.5t32.5 33t19.5 27.5v346h261v-650h-261v116h-8q-2 -6 -7.5 -15.5t-27 -34.5t-48.5 -44t-76 -34.5t-107 -15.5q-145 0 -215.5 65t-70.5 176z" />
    <glyph glyph-name="Yacute" unicode="&#xdd;" horiz-adv-x="915" 
d="M337 789l199 170l111 -125l-229 -139zM1 650h278q171 -260 193 -290q144 214 191 290h266l-450 -650h-266l115 180z" />
    <glyph glyph-name="Thorn" unicode="&#xde;" horiz-adv-x="830" 
d="M336 256q24 -3 58 -3q64 0 108 18.5t44 48.5q0 36 -34.5 55t-91.5 19q-41 0 -84 -4v-134zM92 0v650h244v-66q46 3 95 3q166 0 268.5 -73t102.5 -193q0 -61 -30 -111t-78.5 -79.5t-104 -45.5t-110.5 -16q-83 0 -143 17v-86h-244z" />
    <glyph glyph-name="germandbls" unicode="&#xdf;" horiz-adv-x="885" 
d="M62 0v460q0 146 108.5 231.5t275.5 85.5q137 0 228 -72t91 -152q0 -77 -100 -152q194 -66 194 -204q0 -104 -81 -164.5t-217 -60.5q-60 0 -112.5 15.5t-75.5 31.5l-23 16l74 155q41 -29 83 -29q80 0 80 43q0 14 -7.5 24t-28.5 19.5t-66 14t-113 4.5v177h1q6 1 23.5 6
t44 14t45.5 23.5t19 30.5q0 55 -72 55q-53 0 -87 -29t-34 -76v-467h-250z" />
    <glyph glyph-name="agrave" unicode="&#xe0;" horiz-adv-x="777" 
d="M279 159q0 -34 76 -34q42 0 69.5 10t33 16.5t7.5 11.5v16q-53 5 -93 5q-50 0 -71.5 -5t-21.5 -20zM223 699l111 125l199 -170l-81 -94zM27 141q0 170 297 170q68 0 141 -7v5q0 46 -141 46q-51 0 -97 -4.5t-66 -8.5l-20 -4l-26 144q12 5 33.5 12.5t87.5 20t130 12.5
q135 0 213 -28t107 -78.5t29 -134.5v-286h-240l-9 31h-5q-1 -2 -3.5 -6t-14.5 -14.5t-29.5 -18t-51.5 -14t-77 -6.5q-106 0 -182 46t-76 123z" />
    <glyph glyph-name="aacute" unicode="&#xe1;" horiz-adv-x="777" 
d="M279 159q0 -34 76 -34q42 0 69.5 10t33 16.5t7.5 11.5v16q-53 5 -93 5q-50 0 -71.5 -5t-21.5 -20zM267 654l199 170l111 -125l-229 -139zM27 141q0 170 297 170q68 0 141 -7v5q0 46 -141 46q-51 0 -97 -4.5t-66 -8.5l-20 -4l-26 144q12 5 33.5 12.5t87.5 20t130 12.5
q135 0 213 -28t107 -78.5t29 -134.5v-286h-240l-9 31h-5q-1 -2 -3.5 -6t-14.5 -14.5t-29.5 -18t-51.5 -14t-77 -6.5q-106 0 -182 46t-76 123z" />
    <glyph glyph-name="acircumflex" unicode="&#xe2;" horiz-adv-x="777" 
d="M279 159q0 -34 76 -34q42 0 69.5 10t33 16.5t7.5 11.5v16q-53 5 -93 5q-50 0 -71.5 -5t-21.5 -20zM174 702l235 131l236 -131l-84 -137l-152 97l-152 -97zM27 141q0 170 297 170q68 0 141 -7v5q0 46 -141 46q-51 0 -97 -4.5t-66 -8.5l-20 -4l-26 144q12 5 33.5 12.5
t87.5 20t130 12.5q135 0 213 -28t107 -78.5t29 -134.5v-286h-240l-9 31h-5q-1 -2 -3.5 -6t-14.5 -14.5t-29.5 -18t-51.5 -14t-77 -6.5q-106 0 -182 46t-76 123z" />
    <glyph glyph-name="atilde" unicode="&#xe3;" horiz-adv-x="777" 
d="M279 159q0 -34 76 -34q42 0 69.5 10t33 16.5t7.5 11.5v16q-53 5 -93 5q-50 0 -71.5 -5t-21.5 -20zM165 705q3 5 8.5 13t23 28.5t34.5 36.5t42 29t47 13q41 0 71.5 -9t46 -20t38 -20t48.5 -9q28 0 52.5 7t34.5 14l10 7l37 -98q-1 -4 -4 -11.5t-14.5 -25.5t-25.5 -32
t-39 -25.5t-54 -11.5q-55 0 -107 27t-94 27q-27 0 -56 -12.5t-44 -24.5l-16 -13zM27 141q0 170 297 170q68 0 141 -7v5q0 46 -141 46q-51 0 -97 -4.5t-66 -8.5l-20 -4l-26 144q12 5 33.5 12.5t87.5 20t130 12.5q135 0 213 -28t107 -78.5t29 -134.5v-286h-240l-9 31h-5
q-1 -2 -3.5 -6t-14.5 -14.5t-29.5 -18t-51.5 -14t-77 -6.5q-106 0 -182 46t-76 123z" />
    <glyph glyph-name="adieresis" unicode="&#xe4;" horiz-adv-x="777" 
d="M419 698q0 44 39 82t93 38q56 0 95 -38t39 -82t-39 -81.5t-95 -37.5q-55 0 -93.5 37.5t-38.5 81.5zM279 159q0 -34 76 -34q42 0 69.5 10t33 16.5t7.5 11.5v16q-53 5 -93 5q-50 0 -71.5 -5t-21.5 -20zM119 698q0 44 38.5 82t93.5 38q56 0 94.5 -38t38.5 -82t-38.5 -81.5
t-94.5 -37.5q-55 0 -93.5 37.5t-38.5 81.5zM27 141q0 170 297 170q68 0 141 -7v5q0 46 -141 46q-51 0 -97 -4.5t-66 -8.5l-20 -4l-26 144q12 5 33.5 12.5t87.5 20t130 12.5q135 0 213 -28t107 -78.5t29 -134.5v-286h-240l-9 31h-5q-1 -2 -3.5 -6t-14.5 -14.5t-29.5 -18
t-51.5 -14t-77 -6.5q-106 0 -182 46t-76 123z" />
    <glyph glyph-name="aring" unicode="&#xe5;" horiz-adv-x="777" 
d="M355 707q0 -19 15 -32.5t40 -13.5t40 13t15 33q0 18 -16 31t-39 13t-39 -13t-16 -31zM279 159q0 -34 76 -34q42 0 69.5 10t33 16.5t7.5 11.5v16q-53 5 -93 5q-50 0 -71.5 -5t-21.5 -20zM240 706q0 65 47 107.5t123 42.5q73 0 121.5 -43t48.5 -107q0 -65 -47 -108.5
t-123 -43.5q-80 0 -125 43t-45 109zM27 141q0 170 297 170q68 0 141 -7v5q0 46 -141 46q-51 0 -97 -4.5t-66 -8.5l-20 -4l-26 144q12 5 33.5 12.5t87.5 20t130 12.5q135 0 213 -28t107 -78.5t29 -134.5v-286h-240l-9 31h-5q-1 -2 -3.5 -6t-14.5 -14.5t-29.5 -18t-51.5 -14
t-77 -6.5q-106 0 -182 46t-76 123z" />
    <glyph glyph-name="ae" unicode="&#xe6;" horiz-adv-x="1156" 
d="M717 310q108 0 170 -1q0 -2 1 -3q-1 35 -20.5 49t-65.5 14q-39 0 -61 -16t-24 -43zM279 160q0 -35 68 -35q54 0 80.5 14t35.5 45q-52 5 -91 5q-52 0 -72.5 -5t-20.5 -24zM27 146q0 80 72 125.5t225 45.5q74 0 141 -8q-1 29 -28.5 37.5t-107.5 8.5q-51 0 -98 -4.5
t-69 -8.5l-21 -4l-26 144q12 5 34.5 12.5t90 20t131.5 12.5q168 0 238 -48q85 48 195 48q153 0 232.5 -65t79.5 -169q0 -21 -10.5 -45.5t-21.5 -37.5l-10 -14h-349q2 -28 34.5 -40t99.5 -12q48 0 95.5 11t71.5 21l24 11l62 -144q-4 -3 -12 -7.5t-36 -17t-59 -22t-79.5 -17
t-99.5 -7.5q-183 0 -284 89q-95 -89 -272 -89q-103 0 -173 49t-70 125z" />
    <glyph glyph-name="ccedilla" unicode="&#xe7;" horiz-adv-x="683" 
d="M27 236q0 94 52.5 161.5t135.5 98.5t186 31q46 0 97 -7t78 -14l28 -7v-184q-94 27 -184 27q-125 0 -125 -87q0 -45 29.5 -72.5t88.5 -27.5q49 0 98.5 17t74.5 34l25 18l65 -129q-2 -4 -7 -10.5t-23.5 -24t-41 -32t-60.5 -29.5t-82 -21q1 -1 35.5 -20.5t52.5 -43.5t18 -61
q0 -50 -45.5 -77t-121.5 -27q-48 0 -85.5 13t-50.5 26l-13 13l48 87q39 -24 71 -24q22 0 22 16q0 1 -18.5 8t-37.5 23.5t-19 42.5q0 12 5 22q-136 14 -216 84t-80 176z" />
    <glyph glyph-name="egrave" unicode="&#xe8;" horiz-adv-x="717" 
d="M278 310q108 0 170 -1q0 -2 1 -3q-1 35 -20.5 49t-65.5 14q-39 0 -61 -16t-24 -43zM208 699l111 125l199 -170l-81 -94zM27 231q0 135 96.5 215.5t241.5 80.5q153 0 232.5 -65t79.5 -169q0 -21 -10.5 -45.5t-20.5 -37.5l-11 -14h-349q2 -28 34.5 -40t99.5 -12
q48 0 95.5 11t71.5 21l24 11l62 -144q-4 -3 -12 -7.5t-36 -17t-59 -22t-79.5 -17t-99.5 -7.5q-99 0 -179.5 28.5t-130.5 88t-50 142.5z" />
    <glyph glyph-name="eacute" unicode="&#xe9;" horiz-adv-x="717" 
d="M278 310q108 0 170 -1q1 -3 1 -4q0 36 -19.5 50t-66.5 14q-39 0 -61 -16t-24 -43zM247 654l199 170l111 -125l-229 -139zM27 231q0 135 96.5 215.5t241.5 80.5q153 0 232.5 -65t79.5 -169q0 -21 -10.5 -45.5t-20.5 -37.5l-11 -14h-349q2 -28 34.5 -40t99.5 -12
q48 0 95.5 11t71.5 21l24 11l62 -144q-4 -3 -12 -7.5t-36 -17t-59 -22t-79.5 -17t-99.5 -7.5q-99 0 -179.5 28.5t-130.5 88t-50 142.5z" />
    <glyph glyph-name="ecircumflex" unicode="&#xea;" horiz-adv-x="717" 
d="M278 310q108 0 170 -1q1 -3 1 -4q0 36 -19.5 50t-66.5 14q-39 0 -61 -16t-24 -43zM154 702l235 131l236 -131l-84 -137l-152 97l-152 -97zM27 231q0 135 96.5 215.5t241.5 80.5q153 0 232.5 -65t79.5 -169q0 -21 -10.5 -45.5t-20.5 -37.5l-11 -14h-349q2 -28 34.5 -40
t99.5 -12q48 0 95.5 11t71.5 21l24 11l62 -144q-4 -3 -12 -7.5t-36 -17t-59 -22t-79.5 -17t-99.5 -7.5q-99 0 -179.5 28.5t-130.5 88t-50 142.5z" />
    <glyph glyph-name="edieresis" unicode="&#xeb;" horiz-adv-x="717" 
d="M399 698q0 44 39 82t93 38q56 0 95 -38t39 -82t-39 -81.5t-95 -37.5q-55 0 -93.5 37.5t-38.5 81.5zM278 310q108 0 170 -1q0 -2 1 -3q-1 35 -20.5 49t-65.5 14q-39 0 -61 -16t-24 -43zM99 698q0 44 38.5 82t93.5 38q56 0 94.5 -38t38.5 -82t-38.5 -81.5t-94.5 -37.5
q-55 0 -93.5 37.5t-38.5 81.5zM27 231q0 135 96.5 215.5t241.5 80.5q153 0 232.5 -65t79.5 -169q0 -21 -10.5 -45.5t-20.5 -37.5l-11 -14h-349q2 -28 34.5 -40t99.5 -12q48 0 95.5 11t71.5 21l24 11l62 -144q-4 -3 -12 -7.5t-36 -17t-59 -22t-79.5 -17t-99.5 -7.5
q-99 0 -179.5 28.5t-130.5 88t-50 142.5z" />
    <glyph glyph-name="igrave" unicode="&#xec;" horiz-adv-x="400" 
d="M75 0v500h250v-500h-250zM20 699l111 125l199 -170l-81 -94z" />
    <glyph glyph-name="iacute" unicode="&#xed;" horiz-adv-x="400" 
d="M75 0v500h250v-500h-250zM64 654l199 170l111 -125l-229 -139z" />
    <glyph glyph-name="icircumflex" unicode="&#xee;" horiz-adv-x="400" 
d="M75 0v500h250v-500h-250zM-29 702l235 131l236 -131l-84 -137l-152 97l-152 -97z" />
    <glyph glyph-name="idieresis" unicode="&#xef;" horiz-adv-x="400" 
d="M216 698q0 44 39 82t93 38q56 0 95 -38t39 -82t-39 -81.5t-95 -37.5q-55 0 -93.5 37.5t-38.5 81.5zM75 0v500h250v-500h-250zM-84 698q0 44 38.5 82t93.5 38q56 0 94.5 -38t38.5 -82t-38.5 -81.5t-94.5 -37.5q-55 0 -93.5 37.5t-38.5 81.5z" />
    <glyph glyph-name="eth" unicode="&#xf0;" horiz-adv-x="797" 
d="M298 220q0 -31 26.5 -48.5t71.5 -17.5q98 0 103 87q-58 21 -122 21q-79 0 -79 -42zM27 220q0 89 78.5 153.5t206.5 64.5q87 0 146 -34q-34 61 -99 111l-138 -69l-46 99l71 35l-42 18l86 153q98 -28 169 -64l151 75l47 -99l-86 -43q96 -70 147.5 -152.5t51.5 -160.5v-6
q0 -169 -103.5 -249t-270.5 -80t-268 75t-101 173z" />
    <glyph glyph-name="ntilde" unicode="&#xf1;" horiz-adv-x="835" 
d="M168 705q3 5 8.5 13t23 28.5t34.5 36.5t42 29t47 13q41 0 71.5 -9t46 -20t38 -20t48.5 -9q28 0 52.5 7t34.5 14l10 7l37 -98q-1 -4 -4 -11.5t-14.5 -25.5t-25.5 -32t-39 -25.5t-54 -11.5q-55 0 -107 27t-94 27q-27 0 -56 -12.5t-45 -24.5l-15 -13zM75 0v500h241l6 -50h4
q2 3 6.5 8.5t21 18.5t37.5 23t57 18.5t77 8.5q117 0 181.5 -68.5t64.5 -180.5v-278h-250v275q0 24 -21 42.5t-63 18.5q-31 0 -58 -16t-37.5 -29t-15.5 -23v-268h-251z" />
    <glyph glyph-name="ograve" unicode="&#xf2;" 
d="M296 251q0 -44 32 -70.5t89 -26.5q59 0 91.5 26t32.5 70q0 43 -32.5 68.5t-91.5 25.5q-58 0 -89.5 -25t-31.5 -68zM231 699l111 125l199 -170l-81 -94zM27 250q0 124 110.5 200.5t279.5 76.5q170 0 281.5 -76.5t111.5 -200.5t-111.5 -201t-281.5 -77q-169 0 -279.5 77
t-110.5 201z" />
    <glyph glyph-name="oacute" unicode="&#xf3;" 
d="M296 251q0 -44 32 -70.5t89 -26.5q59 0 91.5 26t32.5 70q0 43 -32.5 68.5t-91.5 25.5q-58 0 -89.5 -25t-31.5 -68zM275 654l199 170l111 -125l-229 -139zM27 250q0 124 110.5 200.5t279.5 76.5q170 0 281.5 -76.5t111.5 -200.5t-111.5 -201t-281.5 -77q-169 0 -279.5 77
t-110.5 201z" />
    <glyph glyph-name="ocircumflex" unicode="&#xf4;" 
d="M296 251q0 -44 32 -70.5t89 -26.5q59 0 91.5 26t32.5 70q0 43 -32.5 68.5t-91.5 25.5q-58 0 -89.5 -25t-31.5 -68zM183 702l235 131l236 -131l-84 -137l-152 97l-152 -97zM27 250q0 124 110.5 200.5t279.5 76.5q170 0 281.5 -76.5t111.5 -200.5t-111.5 -201t-281.5 -77
q-169 0 -279.5 77t-110.5 201z" />
    <glyph glyph-name="otilde" unicode="&#xf5;" 
d="M296 251q0 -44 32 -70.5t89 -26.5q59 0 91.5 26t32.5 70q0 43 -32.5 68.5t-91.5 25.5q-58 0 -89.5 -25t-31.5 -68zM172 705q3 5 8.5 13t23 28.5t34.5 36.5t42 29t47 13q41 0 71.5 -9t46 -20t38 -20t48.5 -9q28 0 52.5 7t34.5 14l10 7l37 -98q-1 -4 -4 -11.5t-14.5 -25.5
t-25.5 -32t-39 -25.5t-54 -11.5q-55 0 -107 27t-94 27q-27 0 -56 -12.5t-45 -24.5l-15 -13zM27 250q0 124 110.5 200.5t279.5 76.5q170 0 281.5 -76.5t111.5 -200.5t-111.5 -201t-281.5 -77q-169 0 -279.5 77t-110.5 201z" />
    <glyph glyph-name="odieresis" unicode="&#xf6;" 
d="M428 698q0 44 39 82t93 38q56 0 95 -38t39 -82t-39 -81.5t-95 -37.5q-55 0 -93.5 37.5t-38.5 81.5zM296 251q0 -44 32 -70.5t89 -26.5q59 0 91.5 26t32.5 70q0 43 -32.5 68.5t-91.5 25.5q-58 0 -89.5 -25t-31.5 -68zM128 698q0 44 38.5 82t93.5 38q56 0 94.5 -38
t38.5 -82t-38.5 -81.5t-94.5 -37.5q-55 0 -93.5 37.5t-38.5 81.5zM27 250q0 124 110.5 200.5t279.5 76.5q170 0 281.5 -76.5t111.5 -200.5t-111.5 -201t-281.5 -77q-169 0 -279.5 77t-110.5 201z" />
    <glyph glyph-name="divide" unicode="&#xf7;" 
d="M286 543q0 53 38 90.5t95 37.5t95 -37.5t38 -90.5t-38 -90t-95 -37t-95 37t-38 90zM286 95q0 53 38 90.5t95 37.5t95 -37.5t38 -90.5t-38 -90t-95 -37t-95 37t-38 90zM33 229v182h771v-182h-771z" />
    <glyph glyph-name="oslash" unicode="&#xf8;" 
d="M415 154h2q59 0 91.5 26t32.5 70q0 42 -29 66zM296 251q0 -35 18 -57l91 149q-53 -2 -81 -26.5t-28 -65.5zM27 250q0 124 110.5 200.5t279.5 76.5q43 0 95 -7l93 148l115 -15l-101 -161q89 -34 140 -97t51 -145q0 -124 -111.5 -201t-281.5 -77q-55 0 -105 9l-87 -149
l-115 15l96 164q-84 36 -131.5 98t-47.5 141z" />
    <glyph glyph-name="ugrave" unicode="&#xf9;" horiz-adv-x="835" 
d="M236 699l111 125l199 -170l-81 -94zM63 222v278h250v-276q0 -24 21.5 -43t62.5 -19q33 0 61.5 18t39.5 36l12 17v267h250v-500h-240l-7 50h-5q-2 -3 -6.5 -8.5t-21 -19t-37 -23.5t-56.5 -18.5t-77 -8.5q-117 0 -182 69t-65 181z" />
    <glyph glyph-name="uacute" unicode="&#xfa;" horiz-adv-x="835" 
d="M280 654l199 170l111 -125l-229 -139zM63 222v278h250v-276q0 -24 21.5 -43t62.5 -19q33 0 61.5 18t39.5 36l12 17v267h250v-500h-240l-7 50h-5q-2 -3 -6.5 -8.5t-21 -19t-37 -23.5t-56.5 -18.5t-77 -8.5q-117 0 -182 69t-65 181z" />
    <glyph glyph-name="ucircumflex" unicode="&#xfb;" horiz-adv-x="835" 
d="M188 702l235 131l236 -131l-84 -137l-152 97l-152 -97zM63 222v278h250v-276q0 -24 21.5 -43t62.5 -19q33 0 61.5 18t39.5 36l12 17v267h250v-500h-240l-7 50h-5q-2 -3 -6.5 -8.5t-21 -19t-37 -23.5t-56.5 -18.5t-77 -8.5q-117 0 -182 69t-65 181z" />
    <glyph glyph-name="udieresis" unicode="&#xfc;" horiz-adv-x="835" 
d="M433 698q0 44 39 82t93 38q56 0 95 -38t39 -82t-39 -81.5t-95 -37.5q-55 0 -93.5 37.5t-38.5 81.5zM133 698q0 44 38.5 82t93.5 38q56 0 94.5 -38t38.5 -82t-38.5 -81.5t-94.5 -37.5q-55 0 -93.5 37.5t-38.5 81.5zM63 222v278h250v-276q0 -24 21.5 -43t62.5 -19
q33 0 61.5 18t39.5 36l12 17v267h250v-500h-240l-7 50h-5q-2 -3 -6.5 -8.5t-21 -19t-37 -23.5t-56.5 -18.5t-77 -8.5q-117 0 -182 69t-65 181z" />
    <glyph glyph-name="yacute" unicode="&#xfd;" horiz-adv-x="805" 
d="M270 654l199 170l111 -125l-229 -139zM-3 500h285q94 -230 120 -278l133 278h272l-286 -464l-114 -286h-273l119 270l1 4z" />
    <glyph glyph-name="thorn" unicode="&#xfe;" 
d="M312 158q43 -10 77 -10q85 0 119 23t34 72q0 43 -33 70.5t-93 27.5q-30 0 -56 -5t-37 -10l-11 -5v-163zM62 -250v1000h250v-286h2q18 21 65.5 42t117.5 21q127 0 220.5 -77.5t93.5 -189.5q0 -121 -108 -204.5t-271 -83.5q-64 0 -120 3v-225h-250z" />
    <glyph glyph-name="ydieresis" unicode="&#xff;" horiz-adv-x="805" 
d="M422 698q0 44 39 82t93 38q56 0 95 -38t39 -82t-39 -81.5t-95 -37.5q-55 0 -93.5 37.5t-38.5 81.5zM122 698q0 44 38.5 82t93.5 38q56 0 94.5 -38t38.5 -82t-38.5 -81.5t-94.5 -37.5q-55 0 -93.5 37.5t-38.5 81.5zM-3 500h285q94 -230 120 -278l133 278h272l-286 -464
l-114 -286h-273l119 270l1 4z" />
    <glyph glyph-name="Amacron" unicode="&#x100;" horiz-adv-x="985" 
d="M391 257h196q-67 156 -97 214q-24 -45 -99 -214zM311 724v121h357v-121h-357zM15 0l325 650l3 -5l2 5h312l313 -650h-268l-46 99h-335l-41 -99h-265z" />
    <glyph glyph-name="amacron" unicode="&#x101;" horiz-adv-x="777" 
d="M279 159q0 -34 76 -34q42 0 69.5 10t33 16.5t7.5 11.5v16q-53 5 -93 5q-50 0 -71.5 -5t-21.5 -20zM229 589v121h357v-121h-357zM27 141q0 170 297 170q68 0 141 -7v5q0 46 -141 46q-51 0 -97 -4.5t-66 -8.5l-20 -4l-26 144q12 5 33.5 12.5t87.5 20t130 12.5
q135 0 213 -28t107 -78.5t29 -134.5v-286h-240l-9 31h-5q-1 -2 -3.5 -6t-14.5 -14.5t-29.5 -18t-51.5 -14t-77 -6.5q-106 0 -182 46t-76 123z" />
    <glyph glyph-name="Abreve" unicode="&#x102;" horiz-adv-x="985" 
d="M391 257h196q-67 156 -97 214q-24 -45 -99 -214zM235 806l88 142q3 -3 8 -8.5t21.5 -19.5t35 -24.5t46.5 -19t57 -8.5t57.5 8t48 20t34.5 24t23 20l7 8l88 -145q-4 -4 -10.5 -11.5t-30.5 -26.5t-51.5 -33.5t-72.5 -26.5t-93 -12t-91.5 11.5t-72.5 28t-50.5 33.5t-31.5 28
zM15 0l325 650l3 -5l2 5h312l313 -650h-268l-46 99h-335l-41 -99h-265z" />
    <glyph glyph-name="abreve" unicode="&#x103;" horiz-adv-x="777" 
d="M279 159q0 -34 76 -34q42 0 69.5 10t33 16.5t7.5 11.5v16q-53 5 -93 5q-50 0 -71.5 -5t-21.5 -20zM152 671l88 142q3 -3 8 -8.5t21.5 -19.5t35 -24.5t46.5 -19t57 -8.5t57.5 8t48 20t34.5 24t22 20l8 8l88 -145q-4 -4 -10.5 -11.5t-30.5 -26.5t-51.5 -33.5t-72.5 -26.5
t-93 -12t-91.5 11.5t-72.5 28t-50.5 33.5t-31.5 29zM27 141q0 170 297 170q68 0 141 -7v5q0 46 -141 46q-51 0 -97 -4.5t-66 -8.5l-20 -4l-26 144q12 5 33.5 12.5t87.5 20t130 12.5q135 0 213 -28t107 -78.5t29 -134.5v-286h-240l-9 31h-5q-1 -2 -3.5 -6t-14.5 -14.5
t-29.5 -18t-51.5 -14t-77 -6.5q-106 0 -182 46t-76 123z" />
    <glyph glyph-name="Aogonek" unicode="&#x104;" horiz-adv-x="985" 
d="M391 257h196q-67 156 -97 214q-24 -45 -99 -214zM15 0l325 650l3 -5l2 5h312l313 -650h-48q-5 -1 -13.5 -2.5t-30 -8.5t-37.5 -17t-29.5 -29.5t-13.5 -44.5t19.5 -32t75.5 -7v-114q-123 0 -197.5 34t-74.5 109q0 65 81 112l-46 99h-335l-41 -99h-265z" />
    <glyph glyph-name="aogonek" unicode="&#x105;" horiz-adv-x="777" 
d="M279 159q0 -34 76 -34q42 0 69.5 10t33 16.5t7.5 11.5v16q-53 5 -93 5q-50 0 -71.5 -5t-21.5 -20zM27 141q0 170 297 170q68 0 141 -7v5q0 46 -141 46q-51 0 -97 -4.5t-66 -8.5l-20 -4l-26 144q12 5 33.5 12.5t87.5 20t130 12.5q135 0 213 -28t107 -78.5t29 -134.5v-286
h-30q-5 -1 -13.5 -2.5t-30 -8.5t-37.5 -17t-29.5 -29.5t-13.5 -44.5t19.5 -32t75.5 -7v-114q-123 0 -197.5 34t-74.5 109q0 67 89 117l-7 26h-5q-1 -2 -3.5 -6t-14.5 -14.5t-29.5 -18t-51.5 -14t-77 -6.5q-106 0 -182 46t-76 123z" />
    <glyph glyph-name="Cacute" unicode="&#x106;" horiz-adv-x="880" 
d="M352 789l199 170l111 -125l-229 -139zM34 323q0 146 129 250t333 104q90 0 164 -12.5t102 -24.5l29 -13l-12 -262h-195l4 107q-40 4 -61 4q-222 0 -222 -153q0 -63 58 -106.5t159 -43.5q62 0 131 23.5t107 47.5l38 23l73 -149q-4 -6 -12.5 -16t-41.5 -35t-73 -44
t-110 -35t-150 -16q-203 0 -326.5 102t-123.5 249z" />
    <glyph glyph-name="cacute" unicode="&#x107;" horiz-adv-x="683" 
d="M259 654l199 170l111 -125l-229 -139zM27 236q0 94 52.5 161.5t135.5 98.5t186 31q46 0 97 -7t78 -14l28 -7v-184q-94 27 -184 27q-125 0 -125 -87q0 -45 29.5 -72.5t88.5 -27.5q49 0 98.5 17t74.5 34l25 18l65 -129q-3 -5 -9 -13.5t-30.5 -29.5t-54 -37t-81 -29.5
t-111.5 -13.5q-164 0 -263.5 72.5t-99.5 191.5z" />
    <glyph glyph-name="Ccaron" unicode="&#x10c;" horiz-adv-x="880" 
d="M260 836l83 137l152 -97l152 97l84 -137l-235 -131zM34 323q0 146 129 250t333 104q90 0 164 -12.5t102 -24.5l29 -13l-12 -262h-195l4 107q-40 4 -61 4q-222 0 -222 -153q0 -63 58 -106.5t159 -43.5q62 0 131 23.5t107 47.5l38 23l73 -149q-4 -6 -12.5 -16t-41.5 -35
t-73 -44t-110 -35t-150 -16q-203 0 -326.5 102t-123.5 249z" />
    <glyph glyph-name="ccaron" unicode="&#x10d;" horiz-adv-x="683" 
d="M166 701l83 137l152 -97l152 97l84 -137l-235 -131zM27 236q0 94 52.5 161.5t135.5 98.5t186 31q46 0 97 -7t78 -14l28 -7v-184q-94 27 -184 27q-125 0 -125 -87q0 -45 29.5 -72.5t88.5 -27.5q49 0 98.5 17t74.5 34l25 18l65 -129q-3 -5 -9 -13.5t-30.5 -29.5t-54 -37
t-81 -29.5t-111.5 -13.5q-164 0 -263.5 72.5t-99.5 191.5z" />
    <glyph glyph-name="Dcaron" unicode="&#x10e;" horiz-adv-x="990" 
d="M355 174q29 -2 96 -2q106 0 172.5 41t66.5 110q0 64 -65 109t-178 45q-30 0 -92 -5v-298zM209 836l83 137l152 -97l152 97l84 -137l-235 -131zM92 0v650q163 27 358 27q223 0 365 -100.5t142 -253.5q0 -155 -137 -253t-368 -98q-92 0 -182 7t-134 14z" />
    <glyph glyph-name="dcaron" unicode="&#x10f;" 
d="M795 587l90 207l140 -63l-94 -196zM296 256q0 -43 27 -70.5t87 -27.5q73 0 115 15v174q-27 6 -51 6q-100 0 -139 -26t-39 -71zM27 231q0 124 116 210t307 86q39 0 75 -3v226h250v-750h-225l-7 22h-10q-15 -17 -65 -33.5t-133 -16.5q-148 0 -228 72t-80 187z" />
    <glyph glyph-name="Dcroat" unicode="&#x110;" horiz-adv-x="990" 
d="M355 174q29 -2 96 -2q106 0 172.5 41t66.5 110q0 64 -65 109t-178 45q-30 0 -92 -5v-85h184v-132h-184v-81zM16 255v132h76v263q163 27 358 27q223 0 365 -100.5t142 -253.5q0 -155 -137 -253t-368 -98q-92 0 -182 7t-134 14l-44 7v255h-76z" />
    <glyph glyph-name="dcroat" unicode="&#x111;" 
d="M296 256q0 -43 27 -70.5t87 -27.5q73 0 115 15v174q-27 6 -51 6q-100 0 -139 -26t-39 -71zM27 231q0 124 116 210t307 86q39 0 75 -3v33h-238v160h238v33h250v-33h151v-160h-151v-557h-225l-7 22h-10q-15 -17 -65 -33.5t-133 -16.5q-148 0 -228 72t-80 187z" />
    <glyph glyph-name="Emacron" unicode="&#x112;" horiz-adv-x="785" 
d="M199 724v121h357v-121h-357zM92 0v650h639v-185h-378v-42h301v-178h-301v-60h392v-185h-653z" />
    <glyph glyph-name="emacron" unicode="&#x113;" horiz-adv-x="717" 
d="M278 310q108 0 170 -1q0 -2 1 -3q-1 35 -20.5 49t-65.5 14q-39 0 -61 -16t-24 -43zM209 589v121h357v-121h-357zM27 231q0 135 96.5 215.5t241.5 80.5q153 0 232.5 -65t79.5 -169q0 -21 -10.5 -45.5t-20.5 -37.5l-11 -14h-349q2 -28 34.5 -40t99.5 -12q48 0 95.5 11
t71.5 21l24 11l62 -144q-4 -3 -12 -7.5t-36 -17t-59 -22t-79.5 -17t-99.5 -7.5q-99 0 -179.5 28.5t-130.5 88t-50 142.5z" />
    <glyph glyph-name="Edotaccent" unicode="&#x116;" horiz-adv-x="785" 
d="M244 833q0 45 35 82.5t93 37.5q59 0 94 -37t35 -83q0 -45 -35 -82t-94 -37q-58 0 -93 37t-35 82zM92 0v650h639v-185h-378v-42h301v-178h-301v-60h392v-185h-653z" />
    <glyph glyph-name="edotaccent" unicode="&#x117;" horiz-adv-x="717" 
d="M278 310q108 0 170 -1q1 -3 1 -4q0 36 -19.5 50t-66.5 14q-39 0 -61 -16t-24 -43zM254 698q0 45 35 82.5t93 37.5q59 0 94 -37t35 -83q0 -45 -35 -82t-94 -37q-58 0 -93 37t-35 82zM27 231q0 135 96.5 215.5t241.5 80.5q153 0 232.5 -65t79.5 -169q0 -21 -10.5 -45.5
t-20.5 -37.5l-11 -14h-349q2 -28 34.5 -40t99.5 -12q48 0 95.5 11t71.5 21l24 11l62 -144q-4 -3 -12 -7.5t-36 -17t-59 -22t-79.5 -17t-99.5 -7.5q-99 0 -179.5 28.5t-130.5 88t-50 142.5z" />
    <glyph glyph-name="Eogonek" unicode="&#x118;" horiz-adv-x="785" 
d="M92 0v650h639v-185h-378v-42h301v-178h-301v-60h392v-185q-5 -1 -13.5 -2.5t-30 -8.5t-37.5 -17t-29.5 -29.5t-13.5 -44.5t19.5 -32t75.5 -7v-114q-123 0 -197.5 34t-74.5 109q0 64 81 112h-433z" />
    <glyph glyph-name="eogonek" unicode="&#x119;" horiz-adv-x="717" 
d="M278 310q108 0 170 -1q1 -3 1 -4q0 36 -19.5 50t-66.5 14q-39 0 -61 -16t-24 -43zM27 231q0 135 96.5 215.5t241.5 80.5q153 0 232.5 -65t79.5 -169q0 -21 -10.5 -45.5t-20.5 -37.5l-11 -14h-349q2 -28 34.5 -40t99.5 -12q48 0 95.5 11t71.5 21l24 11l62 -144
q-31 -20 -82 -38q-80 -48 -80 -107q0 -25 19 -32t76 -7v-114q-122 0 -197.5 32.5t-75.5 101.5q0 48 43 93q-97 2 -174.5 30.5t-126 88t-48.5 140.5z" />
    <glyph glyph-name="Ecaron" unicode="&#x11a;" horiz-adv-x="785" 
d="M144 836l83 137l152 -97l152 97l84 -137l-235 -131zM92 0v650h639v-185h-378v-42h301v-178h-301v-60h392v-185h-653z" />
    <glyph glyph-name="ecaron" unicode="&#x11b;" horiz-adv-x="717" 
d="M278 310q108 0 170 -1q1 -3 1 -4q0 36 -19.5 50t-66.5 14q-39 0 -61 -16t-24 -43zM154 701l83 137l152 -97l152 97l84 -137l-235 -131zM27 231q0 135 96.5 215.5t241.5 80.5q153 0 232.5 -65t79.5 -169q0 -21 -10.5 -45.5t-20.5 -37.5l-11 -14h-349q2 -28 34.5 -40
t99.5 -12q48 0 95.5 11t71.5 21l24 11l62 -144q-4 -3 -12 -7.5t-36 -17t-59 -22t-79.5 -17t-99.5 -7.5q-99 0 -179.5 28.5t-130.5 88t-50 142.5z" />
    <glyph glyph-name="Gbreve" unicode="&#x11e;" horiz-adv-x="939" 
d="M270 806l88 142q3 -3 8 -8.5t21.5 -19.5t35 -24.5t46.5 -19t57 -8.5t57.5 8t48 20t34.5 24t22 20l8 8l88 -145q-4 -4 -10.5 -11.5t-30.5 -26.5t-51.5 -33.5t-72.5 -26.5t-93 -12t-91.5 11.5t-72.5 28t-50.5 33.5t-31.5 28zM34 323q0 149 133 251.5t338 102.5
q88 0 170.5 -11.5t121.5 -23.5l39 -12v-184q-169 30 -282 30q-132 0 -193 -42t-61 -109q0 -77 66.5 -114.5t165.5 -37.5q65 0 132 19v192h218v-312q-6 -4 -17 -11t-47.5 -24t-76 -30t-100 -24t-121.5 -11q-231 0 -358.5 97t-127.5 254z" />
    <glyph glyph-name="gbreve" unicode="&#x11f;" horiz-adv-x="719" 
d="M293 328q0 -22 15 -31.5t51 -9.5t49.5 9t13.5 32q0 6 -4 38q-30 3 -59 3q-36 0 -51 -9.5t-15 -31.5zM269 -76q0 -15 29.5 -24.5t78.5 -9.5t77 9.5t28 24.5t-28.5 24.5t-76.5 9.5q-40 0 -80 -5q-28 -15 -28 -29zM87 670l88 142q3 -3 8 -8.5t21.5 -19.5t35 -24.5t46.5 -19
t57 -8.5t57.5 8t48 20t34.5 24t23 20l7 8l88 -145q-4 -4 -10.5 -11.5t-30.5 -26.5t-51.5 -33.5t-72.5 -26.5t-93 -12t-91.5 11.5t-72.5 28t-50.5 33.5t-31.5 28zM16 -82q0 55 37 94.5t91 62.5q-2 20 -2 29q0 42 14 79q-101 49 -101 145q0 91 86 145t218 54q72 0 135 -6.5
t90 -13.5l28 -7q5 -5 13.5 -16.5t22 -55.5t13.5 -100q0 -90 -83.5 -136t-218.5 -46h-22q-6 -16 -6 -24q0 -13 11 -20q16 2 35 2q174 0 266.5 -49.5t92.5 -136.5q0 -89 -93 -142.5t-266 -53.5t-267 53.5t-94 142.5z" />
    <glyph glyph-name="Gcommaaccent" unicode="&#x122;" horiz-adv-x="939" 
d="M359 -249q60 113 60 197l146 -20q0 -39 -21.5 -98t-53.5 -102zM34 323q0 149 133 251.5t338 102.5q88 0 170.5 -11.5t121.5 -23.5l39 -12v-184q-169 30 -282 30q-132 0 -193 -42t-61 -109q0 -77 66.5 -114.5t165.5 -37.5q65 0 132 19v192h218v-312q-6 -4 -17 -11
t-47.5 -24t-76 -30t-100 -24t-121.5 -11q-231 0 -358.5 97t-127.5 254z" />
    <glyph glyph-name="gcommaaccent" unicode="&#x123;" horiz-adv-x="719" 
d="M293 328q0 -22 15 -31.5t51 -9.5t49.5 9t13.5 32q0 6 -4 38q-30 3 -59 3q-36 0 -51 -9.5t-15 -31.5zM269 -76q0 -15 29.5 -24.5t78.5 -9.5t77 9.5t28 24.5t-28.5 24.5t-76.5 9.5q-40 0 -80 -5q-28 -15 -28 -29zM250 598q0 37 24 96.5t57 103.5l133 -18q-59 -114 -59 -197
zM16 -82q0 55 37 94.5t91 62.5q-2 20 -2 29q0 42 14 79q-101 49 -101 145q0 91 86 145t218 54q72 0 135 -6.5t90 -13.5l28 -7q5 -5 13.5 -16.5t22 -55.5t13.5 -100q0 -90 -83.5 -136t-218.5 -46h-22q-6 -16 -6 -24q0 -13 11 -20q16 2 35 2q174 0 266.5 -49.5t92.5 -136.5
q0 -89 -93 -142.5t-266 -53.5t-267 53.5t-94 142.5z" />
    <glyph glyph-name="uni012A" unicode="&#x12a;" horiz-adv-x="447" 
d="M92 0v650h263v-650h-263zM43 724v121h357v-121h-357z" />
    <glyph glyph-name="imacron" unicode="&#x12b;" horiz-adv-x="400" 
d="M75 0v500h250v-500h-250zM21 589v121h357v-121h-357z" />
    <glyph glyph-name="Iogonek" unicode="&#x12e;" horiz-adv-x="447" 
d="M16 -112q0 64 81 112h-5v650h263v-650h-38q-5 -1 -13.5 -2.5t-30 -8.5t-37.5 -17t-29.5 -29.5t-13.5 -44.5t19.5 -32t75.5 -7v-114q-123 0 -197.5 34t-74.5 109z" />
    <glyph glyph-name="iogonek" unicode="&#x12f;" horiz-adv-x="400" 
d="M71 698q0 45 35 82.5t93 37.5q59 0 94 -37t35 -83q0 -45 -35 -82t-94 -37q-58 0 -93 37t-35 82zM0 -112q0 64 81 112h-6v500h250v-500h-24q-5 -1 -13.5 -2.5t-30 -8.5t-37.5 -17t-29.5 -29.5t-13.5 -44.5t19.5 -32t75.5 -7v-114q-123 0 -197.5 34t-74.5 109z" />
    <glyph glyph-name="Idotaccent" unicode="&#x130;" horiz-adv-x="447" 
d="M92 0v650h263v-650h-263zM90 833q0 45 35 82.5t93 37.5q59 0 94 -37t35 -83q0 -45 -35 -82t-94 -37q-58 0 -93 37t-35 82z" />
    <glyph glyph-name="dotlessi" unicode="&#x131;" horiz-adv-x="400" 
d="M75 0v500h250v-500h-250z" />
    <glyph glyph-name="Kcommaaccent" unicode="&#x136;" horiz-adv-x="955" 
d="M323 -249q60 113 60 197l146 -20q0 -39 -21.5 -98t-53.5 -102zM92 0v650h263v-244l49 44l211 200h309l-341 -302l371 -348h-339l-206 198l-54 -46v-152h-263z" />
    <glyph glyph-name="kcommaaccent" unicode="&#x137;" horiz-adv-x="789" 
d="M273 -249q60 113 60 197l146 -20q0 -39 -21.5 -98t-53.5 -102zM62 0v750h250v-394l30 24l118 120h287l-224 -204l264 -296h-301l-138 156l-36 -27v-129h-250z" />
    <glyph glyph-name="Lacute" unicode="&#x139;" horiz-adv-x="726" 
d="M92 0v650h263v-471h362v-179h-625zM74 789l199 170l111 -125l-229 -139z" />
    <glyph glyph-name="lacute" unicode="&#x13a;" horiz-adv-x="376" 
d="M75 864l199 170l111 -125l-229 -139zM62 0v750h250v-750h-250z" />
    <glyph glyph-name="Lcommaaccent" unicode="&#x13b;" horiz-adv-x="726" 
d="M243 -249q60 113 60 197l146 -20q0 -39 -21.5 -98t-53.5 -102zM92 0v650h263v-471h362v-179h-625z" />
    <glyph glyph-name="lcommaaccent" unicode="&#x13c;" horiz-adv-x="376" 
d="M62 0v750h250v-750h-250zM51 -249q60 113 60 197l146 -20q0 -39 -21.5 -98t-53.5 -102z" />
    <glyph glyph-name="Lcaron" unicode="&#x13d;" horiz-adv-x="726" 
d="M92 0v650h263v-471h362v-179h-625zM-11 836l83 137l152 -97l152 97l84 -137l-235 -131z" />
    <glyph glyph-name="lcaron" unicode="&#x13e;" horiz-adv-x="376" 
d="M332 587l90 207l140 -63l-94 -196zM62 0v750h250v-750h-250z" />
    <glyph glyph-name="Lslash" unicode="&#x141;" horiz-adv-x="726" 
d="M-13 222l105 55v373h263v-234l152 80l62 -89l-214 -113v-115h362v-179h-625v155l-42 -22z" />
    <glyph glyph-name="lslash" unicode="&#x142;" horiz-adv-x="376" 
d="M-59 322l121 67v361h250v-221l84 47l58 -94l-142 -79v-403h-250v264l-65 -36z" />
    <glyph glyph-name="Nacute" unicode="&#x143;" horiz-adv-x="1030" 
d="M361 789l199 170l111 -125l-229 -139zM92 0v650l209 1l409 -351v4q0 5 0.5 15.5t0.5 24.5v306h226v-650h-220l-396 326q-2 -6 -2 -57v-269h-227z" />
    <glyph glyph-name="nacute" unicode="&#x144;" horiz-adv-x="835" 
d="M271 654l199 170l111 -125l-229 -139zM75 0v500h241l6 -50h4q2 3 6.5 8.5t21 18.5t37.5 23t57 18.5t77 8.5q117 0 181.5 -68.5t64.5 -180.5v-278h-250v275q0 24 -21 42.5t-63 18.5q-31 0 -58 -16t-37.5 -29t-15.5 -23v-268h-251z" />
    <glyph glyph-name="Ncommaaccent" unicode="&#x145;" horiz-adv-x="1030" 
d="M374 -249q60 113 60 197l146 -20q0 -39 -21.5 -98t-53.5 -102zM92 0v650l209 1l409 -351v4q0 5 0.5 15.5t0.5 24.5v306h226v-650h-220l-396 326q-2 -6 -2 -57v-269h-227z" />
    <glyph glyph-name="ncommaaccent" unicode="&#x146;" horiz-adv-x="835" 
d="M296 -249q60 113 60 197l146 -20q0 -39 -21.5 -98t-53.5 -102zM75 0v500h241l6 -50h4q2 3 6.5 8.5t21 18.5t37.5 23t57 18.5t77 8.5q117 0 181.5 -68.5t64.5 -180.5v-278h-250v275q0 24 -21 42.5t-63 18.5q-31 0 -58 -16t-37.5 -29t-15.5 -23v-268h-251z" />
    <glyph glyph-name="Ncaron" unicode="&#x147;" horiz-adv-x="1030" 
d="M268 836l83 137l152 -97l152 97l84 -137l-235 -131zM92 0v650l209 1l409 -351v4q0 5 0.5 15.5t0.5 24.5v306h226v-650h-220l-396 326q-2 -6 -2 -57v-269h-227z" />
    <glyph glyph-name="ncaron" unicode="&#x148;" horiz-adv-x="835" 
d="M178 701l83 137l152 -97l152 97l84 -137l-235 -131zM75 0v500h241l6 -50h4q2 3 6.5 8.5t21 18.5t37.5 23t57 18.5t77 8.5q117 0 181.5 -68.5t64.5 -180.5v-278h-250v275q0 24 -21 42.5t-63 18.5q-31 0 -58 -16t-37.5 -29t-15.5 -23v-268h-251z" />
    <glyph glyph-name="Omacron" unicode="&#x14c;" horiz-adv-x="1010" 
d="M321 724v121h357v-121h-357zM300 325q0 -67 55.5 -109.5t146.5 -42.5q92 0 150 42.5t58 109.5q0 66 -59 108.5t-149 42.5q-89 0 -145.5 -42.5t-56.5 -108.5zM34 325q0 154 131.5 253t336.5 99q206 0 340.5 -99t134.5 -253t-134.5 -253.5t-340.5 -99.5q-205 0 -336.5 99.5
t-131.5 253.5z" />
    <glyph glyph-name="omacron" unicode="&#x14d;" 
d="M296 251q0 -44 32 -70.5t89 -26.5q59 0 91.5 26t32.5 70q0 43 -32.5 68.5t-91.5 25.5q-58 0 -89.5 -25t-31.5 -68zM238 589v121h357v-121h-357zM27 250q0 124 110.5 200.5t279.5 76.5q170 0 281.5 -76.5t111.5 -200.5t-111.5 -201t-281.5 -77q-169 0 -279.5 77
t-110.5 201z" />
    <glyph glyph-name="Ohungarumlaut" unicode="&#x150;" horiz-adv-x="1010" 
d="M524 719l130 226l149 -47l-95 -199zM300 325q0 -67 55.5 -109.5t146.5 -42.5q92 0 150 42.5t58 109.5q0 66 -59 108.5t-149 42.5q-89 0 -145.5 -42.5t-56.5 -108.5zM260 719l130 226l149 -47l-95 -199zM34 325q0 154 131.5 253t336.5 99q206 0 340.5 -99t134.5 -253
t-134.5 -253.5t-340.5 -99.5q-205 0 -336.5 99.5t-131.5 253.5z" />
    <glyph glyph-name="ohungarumlaut" unicode="&#x151;" 
d="M440 584l130 226l149 -47l-95 -199zM296 251q0 -44 32 -70.5t89 -26.5q59 0 91.5 26t32.5 70q0 43 -32.5 68.5t-91.5 25.5q-58 0 -89.5 -25t-31.5 -68zM176 584l130 226l149 -47l-95 -199zM27 250q0 124 110.5 200.5t279.5 76.5q170 0 281.5 -76.5t111.5 -200.5
t-111.5 -201t-281.5 -77q-169 0 -279.5 77t-110.5 201z" />
    <glyph glyph-name="OE" unicode="&#x152;" horiz-adv-x="1351" 
d="M300 325q0 -73 67.5 -112.5t164.5 -39.5q63 0 126 28v250q-71 25 -129 25q-229 0 -229 -151zM34 323q0 148 122 251t324 103q99 0 178 -30v3h639v-185h-378v-42h301v-178h-301v-60h392v-185h-623q-77 -28 -168 -28q-230 0 -358 98.5t-128 252.5z" />
    <glyph glyph-name="oe" unicode="&#x153;" horiz-adv-x="1195" 
d="M757 310q108 0 170 -1q0 -2 1 -3q-1 35 -20.5 49t-65.5 14q-39 0 -61 -16t-24 -43zM296 251q0 -44 32 -70.5t89 -26.5t95 23q-6 25 -6 54q0 47 12 86q-40 27 -101 27q-58 0 -89.5 -25t-31.5 -68zM27 250q0 124 110.5 200.5t279.5 76.5q138 0 223 -54q86 54 204 54
q153 0 232.5 -65t79.5 -169q0 -21 -10.5 -45.5t-21.5 -37.5l-10 -14h-349q2 -28 34.5 -40t99.5 -12q48 0 95.5 11t71.5 21l24 11l62 -144q-4 -3 -12 -7.5t-36 -17t-59 -22t-79.5 -17t-99.5 -7.5q-134 0 -230 52q-87 -52 -219 -52q-169 0 -279.5 77t-110.5 201z" />
    <glyph glyph-name="Racute" unicode="&#x154;" horiz-adv-x="875" 
d="M336 355q93 1 147 16.5t54 58.5q0 53 -113 53q-20 0 -88 -4v-124zM270 789l199 170l111 -125l-229 -139zM92 0v650q155 27 330 27q180 0 279 -64t99 -162q0 -129 -153 -202l242 -249h-328l-164 189q-19 -2 -61 -4v-185h-244z" />
    <glyph glyph-name="racute" unicode="&#x155;" horiz-adv-x="562" 
d="M170 654l199 170l111 -125l-229 -139zM75 0v500h210l9 -93h3q53 120 151 120q32 0 56.5 -6.5t33.5 -13.5l9 -7v-192q-84 -1 -118 -5q-49 -5 -71.5 -43.5t-32.5 -111.5v-148h-250z" />
    <glyph glyph-name="Rcommaaccent" unicode="&#x156;" horiz-adv-x="875" 
d="M336 355q93 1 147 16.5t54 58.5q0 53 -113 53q-20 0 -88 -4v-124zM313 -249q60 113 60 197l146 -20q0 -39 -21.5 -98t-53.5 -102zM92 0v650q155 27 330 27q180 0 279 -64t99 -162q0 -129 -153 -202l242 -249h-328l-164 189q-19 -2 -61 -4v-185h-244z" />
    <glyph glyph-name="rcommaaccent" unicode="&#x157;" horiz-adv-x="562" 
d="M75 0v500h210l9 -93h3q53 120 151 120q32 0 56.5 -6.5t33.5 -13.5l9 -7v-192q-84 -1 -118 -5q-49 -5 -71.5 -43.5t-32.5 -111.5v-148h-250zM71 -249q60 113 60 197l146 -20q0 -39 -21.5 -98t-53.5 -102z" />
    <glyph glyph-name="Rcaron" unicode="&#x158;" horiz-adv-x="875" 
d="M336 355q93 1 147 16.5t54 58.5q0 53 -113 53q-20 0 -88 -4v-124zM176 836l83 137l152 -97l152 97l84 -137l-235 -131zM92 0v650q155 27 330 27q180 0 279 -64t99 -162q0 -129 -153 -202l242 -249h-328l-164 189q-19 -2 -61 -4v-185h-244z" />
    <glyph glyph-name="rcaron" unicode="&#x159;" horiz-adv-x="562" 
d="M76 701l83 137l152 -97l152 97l84 -137l-235 -131zM75 0v500h210l9 -93h3q53 120 151 120q32 0 56.5 -6.5t33.5 -13.5l9 -7v-192q-84 -1 -118 -5q-49 -5 -71.5 -43.5t-32.5 -111.5v-148h-250z" />
    <glyph glyph-name="Sacute" unicode="&#x15a;" horiz-adv-x="777" 
d="M272 789l199 170l111 -125l-229 -139zM27 75l93 186q6 -4 17 -10t46 -22.5t70.5 -29t86 -22.5t96.5 -10q53 0 53 23q0 9 -44.5 15t-107.5 17t-126 32t-107.5 69t-44.5 118q0 105 101.5 170.5t280.5 65.5q56 0 119.5 -8.5t99.5 -16.5l35 -8l-12 -214h-178l3 60
q-46 8 -84 8q-55 0 -82 -9t-27 -36q0 -16 44.5 -27t107.5 -23t126 -32t107.5 -66t44.5 -114q0 -219 -325 -219q-74 0 -141.5 10.5t-111 25.5t-77 30.5t-48.5 25.5z" />
    <glyph glyph-name="sacute" unicode="&#x15b;" horiz-adv-x="651" 
d="M204 654l199 170l111 -125l-229 -139zM20 55l75 152q15 -9 39.5 -22t87 -34.5t108.5 -21.5q30 0 30 5q0 6 -31.5 14.5t-76 21t-89 31.5t-76 55.5t-31.5 83.5q0 83 86.5 135t213.5 52q69 0 128 -8t84 -16l25 -8v-167q-126 44 -222 44q-51 0 -51 -10q0 -8 31.5 -15
t76 -17.5t89 -27.5t76 -51.5t31.5 -81.5q0 -85 -74 -141t-204 -56q-104 0 -185.5 21t-110.5 41z" />
    <glyph glyph-name="Scedilla" unicode="&#x15e;" horiz-adv-x="777" 
d="M27 75l93 186q6 -4 17 -10t46 -22.5t70.5 -29t86 -22.5t96.5 -10q53 0 53 23q0 9 -44.5 15t-107.5 17t-126 32t-107.5 69t-44.5 118q0 105 101.5 170.5t280.5 65.5q56 0 119.5 -8.5t99.5 -16.5l35 -8l-12 -214h-178l3 60q-46 8 -84 8q-55 0 -82 -9t-27 -36
q0 -16 44.5 -27t107.5 -23t126 -32t107.5 -66t44.5 -114q0 -205 -284 -218q4 -3 21.5 -12.5t28 -17t24 -20.5t20 -30.5t6.5 -39.5q0 -50 -45.5 -77t-121.5 -27q-48 0 -85.5 13t-50.5 26l-13 13l48 87q39 -24 71 -24q22 0 22 16q0 1 -19 8t-37.5 23.5t-18.5 42.5q0 10 6 24
q-86 9 -158.5 33.5t-102.5 44.5z" />
    <glyph glyph-name="scedilla" unicode="&#x15f;" horiz-adv-x="651" 
d="M20 55l75 152q15 -9 39.5 -22t87 -34.5t108.5 -21.5q30 0 30 5q0 6 -31.5 14.5t-76 21t-89 31.5t-76 55.5t-31.5 83.5q0 83 86.5 135t213.5 52q69 0 128 -8t84 -16l25 -8v-167q-126 44 -222 44q-51 0 -51 -10q0 -8 31.5 -15t76 -17.5t89 -27.5t76 -51.5t31.5 -81.5
q0 -78 -62 -131.5t-172 -63.5q4 -3 21.5 -12.5t28.5 -17t24.5 -20.5t20.5 -31t7 -40q0 -50 -45.5 -77t-121.5 -27q-48 0 -85.5 13t-50.5 26l-13 13l48 87q39 -24 71 -24q22 0 22 16q0 1 -18.5 8t-37.5 23.5t-19 42.5q0 14 6 23q-72 8 -129 27.5t-78 35.5z" />
    <glyph glyph-name="Scaron" unicode="&#x160;" horiz-adv-x="777" 
d="M179 836l83 137l152 -97l152 97l84 -137l-235 -131zM27 75l93 186q6 -4 17 -10t46 -22.5t70.5 -29t86 -22.5t96.5 -10q53 0 53 23q0 9 -44.5 15t-107.5 17t-126 32t-107.5 69t-44.5 118q0 105 101.5 170.5t280.5 65.5q56 0 119.5 -8.5t99.5 -16.5l35 -8l-12 -214h-178
l3 60q-46 8 -84 8q-55 0 -82 -9t-27 -36q0 -16 44.5 -27t107.5 -23t126 -32t107.5 -66t44.5 -114q0 -219 -325 -219q-74 0 -141.5 10.5t-111 25.5t-77 30.5t-48.5 25.5z" />
    <glyph glyph-name="scaron" unicode="&#x161;" horiz-adv-x="651" 
d="M110 701l83 137l152 -97l152 97l84 -137l-235 -131zM20 55l75 152q15 -9 39.5 -22t87 -34.5t108.5 -21.5q30 0 30 5q0 6 -31.5 14.5t-76 21t-89 31.5t-76 55.5t-31.5 83.5q0 83 86.5 135t213.5 52q69 0 128 -8t84 -16l25 -8v-167q-126 44 -222 44q-51 0 -51 -10
q0 -8 31.5 -15t76 -17.5t89 -27.5t76 -51.5t31.5 -81.5q0 -85 -74 -141t-204 -56q-104 0 -185.5 21t-110.5 41z" />
    <glyph glyph-name="Tcommaaccent" unicode="&#x162;" horiz-adv-x="796" 
d="M265 -249q60 113 60 197l146 -20q0 -39 -21.5 -98t-53.5 -102zM4 470v180h788v-180h-264v-470h-260v470h-264z" />
    <glyph glyph-name="tcommaaccent" unicode="&#x163;" horiz-adv-x="637" 
d="M171 -249q60 113 60 197l146 -20q0 -39 -21.5 -98t-53.5 -102zM39 320v180h71v103l250 85v-188h244v-180h-244v-96q0 -24 16.5 -40.5t50.5 -16.5q23 0 67 8.5t77 17.5l33 9v-153q-4 -3 -11 -8.5t-33 -18.5t-54.5 -23t-75 -18.5t-95.5 -8.5q-115 0 -170 54.5t-55 182.5
v111h-71z" />
    <glyph glyph-name="Tcaron" unicode="&#x164;" horiz-adv-x="796" 
d="M154 836l83 137l152 -97l152 97l84 -137l-235 -131zM4 470v180h788v-180h-264v-470h-260v470h-264z" />
    <glyph glyph-name="tcaron" unicode="&#x165;" horiz-adv-x="637" 
d="M380 587l90 207l140 -63l-94 -196zM39 320v180h71v103l250 85v-188h244v-180h-244v-96q0 -24 16.5 -40.5t50.5 -16.5q23 0 67 8.5t77 17.5l33 9v-153q-4 -3 -11 -8.5t-33 -18.5t-54.5 -23t-75 -18.5t-95.5 -8.5q-115 0 -170 54.5t-55 182.5v111h-71z" />
    <glyph glyph-name="Umacron" unicode="&#x16a;" horiz-adv-x="995" 
d="M305 724v121h357v-121h-357zM81 213v437h262v-326q0 -62 31 -93t100 -31q33 0 63.5 12t51.5 31.5t32.5 33t19.5 27.5v346h261v-650h-261v116h-8q-2 -6 -7.5 -15.5t-27 -34.5t-48.5 -44t-76 -34.5t-107 -15.5q-145 0 -215.5 65t-70.5 176z" />
    <glyph glyph-name="umacron" unicode="&#x16b;" horiz-adv-x="835" 
d="M243 589v121h357v-121h-357zM63 222v278h250v-276q0 -24 21.5 -43t62.5 -19q33 0 61.5 18t39.5 36l12 17v267h250v-500h-240l-7 50h-5q-2 -3 -6.5 -8.5t-21 -19t-37 -23.5t-56.5 -18.5t-77 -8.5q-117 0 -182 69t-65 181z" />
    <glyph glyph-name="Uring" unicode="&#x16e;" horiz-adv-x="995" 
d="M429 842q0 -19 15 -32.5t40 -13.5t40 13t15 33q0 18 -16 31t-39 13t-39 -13t-16 -31zM314 841q0 65 47 107.5t123 42.5q73 0 121.5 -43t48.5 -107q0 -65 -47 -108.5t-123 -43.5q-80 0 -125 43t-45 109zM81 213v437h262v-326q0 -62 31 -93t100 -31q33 0 63.5 12t51.5 31.5
t32.5 33t19.5 27.5v346h261v-650h-261v116h-8q-2 -6 -7.5 -15.5t-27 -34.5t-48.5 -44t-76 -34.5t-107 -15.5q-145 0 -215.5 65t-70.5 176z" />
    <glyph glyph-name="uring" unicode="&#x16f;" horiz-adv-x="835" 
d="M367 707q0 -19 15 -32.5t40 -13.5t40 13t15 33q0 18 -16 31t-39 13t-39 -13t-16 -31zM252 706q0 65 47 107.5t123 42.5q73 0 121.5 -43t48.5 -107q0 -65 -47 -108.5t-123 -43.5q-80 0 -125 43t-45 109zM63 222v278h250v-276q0 -24 21.5 -43t62.5 -19q33 0 61.5 18
t39.5 36l12 17v267h250v-500h-240l-7 50h-5q-2 -3 -6.5 -8.5t-21 -19t-37 -23.5t-56.5 -18.5t-77 -8.5q-117 0 -182 69t-65 181z" />
    <glyph glyph-name="Uhungarumlaut" unicode="&#x170;" horiz-adv-x="995" 
d="M507 719l130 226l149 -47l-95 -199zM243 719l130 226l149 -47l-95 -199zM81 213v437h262v-326q0 -62 31 -93t100 -31q33 0 63.5 12t51.5 31.5t32.5 33t19.5 27.5v346h261v-650h-261v116h-8q-2 -6 -7.5 -15.5t-27 -34.5t-48.5 -44t-76 -34.5t-107 -15.5q-145 0 -215.5 65
t-70.5 176z" />
    <glyph glyph-name="uhungarumlaut" unicode="&#x171;" horiz-adv-x="835" 
d="M445 584l130 226l149 -47l-95 -199zM181 584l130 226l149 -47l-95 -199zM63 222v278h250v-276q0 -24 21.5 -43t62.5 -19q33 0 61.5 18t39.5 36l12 17v267h250v-500h-240l-7 50h-5q-2 -3 -6.5 -8.5t-21 -19t-37 -23.5t-56.5 -18.5t-77 -8.5q-117 0 -182 69t-65 181z" />
    <glyph glyph-name="Uogonek" unicode="&#x172;" horiz-adv-x="995" 
d="M81 213v437h262v-326q0 -62 31 -93t100 -31q33 0 63.5 12t51.5 31.5t32.5 33t19.5 27.5v346h261v-650h-47q-6 0 -22.5 -4.5t-40.5 -14t-42 -31.5t-18 -52q0 -25 19.5 -32t75.5 -7v-114q-123 0 -197.5 34t-74.5 109q0 66 86 115v113h-8q-2 -6 -7.5 -15.5t-27 -34.5
t-48.5 -44t-76 -34.5t-107 -15.5q-145 0 -215.5 65t-70.5 176z" />
    <glyph glyph-name="uogonek" unicode="&#x173;" horiz-adv-x="835" 
d="M63 222v278h250v-276q0 -24 21.5 -43t62.5 -19q33 0 61.5 18t39.5 36l12 17v267h250v-500h-26q-6 0 -22.5 -4.5t-40.5 -14t-42 -31.5t-18 -52q0 -25 19.5 -32t75.5 -7v-114q-123 0 -197.5 34t-74.5 109q0 66 85 114l-6 48h-5q-2 -3 -6.5 -8.5t-21 -19t-37 -23.5
t-56.5 -18.5t-77 -8.5q-117 0 -182 69t-65 181z" />
    <glyph glyph-name="Ydieresis" unicode="&#x178;" horiz-adv-x="915" 
d="M489 833q0 44 39 82t93 38q56 0 95 -38t39 -82t-39 -81.5t-95 -37.5q-55 0 -93.5 37.5t-38.5 81.5zM189 833q0 44 38.5 82t93.5 38q56 0 94.5 -38t38.5 -82t-38.5 -81.5t-94.5 -37.5q-55 0 -93.5 37.5t-38.5 81.5zM1 650h278q171 -260 193 -290q144 214 191 290h266
l-450 -650h-266l115 180z" />
    <glyph glyph-name="Zacute" unicode="&#x179;" horiz-adv-x="875" 
d="M294 789l199 170l111 -125l-229 -139zM56 0v120l367 351h-367v179h761v-120l-364 -351h364v-179h-761z" />
    <glyph glyph-name="zacute" unicode="&#x17a;" horiz-adv-x="669" 
d="M213 654l199 170l111 -125l-229 -139zM23 0v110l235 224q-33 -3 -61 -3h-153v169h602v-100l-254 -236h246l-1 -164h-614z" />
    <glyph glyph-name="Zdotaccent" unicode="&#x17b;" horiz-adv-x="875" 
d="M300 833q0 45 35 82.5t93 37.5q59 0 94 -37t35 -83q0 -45 -35 -82t-94 -37q-58 0 -93 37t-35 82zM56 0v120l367 351h-367v179h761v-120l-364 -351h364v-179h-761z" />
    <glyph glyph-name="zdotaccent" unicode="&#x17c;" horiz-adv-x="669" 
d="M221 698q0 45 35 82.5t93 37.5q59 0 94 -37t35 -83q0 -45 -35 -82t-94 -37q-58 0 -93 37t-35 82zM23 0v110l235 224q-33 -3 -61 -3h-153v169h602v-100l-254 -236h246l-1 -164h-614z" />
    <glyph glyph-name="Zcaron" unicode="&#x17d;" horiz-adv-x="875" 
d="M200 836l83 137l152 -97l152 97l84 -137l-235 -131zM56 0v120l367 351h-367v179h761v-120l-364 -351h364v-179h-761z" />
    <glyph glyph-name="zcaron" unicode="&#x17e;" horiz-adv-x="669" 
d="M121 701l83 137l152 -97l152 97l84 -137l-235 -131zM23 0v110l235 224q-33 -3 -61 -3h-153v169h602v-100l-254 -236h246l-1 -164h-614z" />
    <glyph glyph-name="longs" unicode="&#x17f;" horiz-adv-x="381" 
d="M62 0v485q0 164 59 227.5t202 63.5q34 0 68 -8t59 -19t45 -22.5t30 -19.5l10 -8v-179q-53 28 -136 28q-49 0 -65.5 -12t-16.5 -51v-485h-255z" />
    <glyph glyph-name="florin" unicode="&#x192;" horiz-adv-x="580" 
d="M-34 -75q54 12 99 39.5t45 55.5v256h-71v185h71v51q0 112 70 185.5t206 73.5q58 0 107 -10.5t69 -21.5l20 -11v-192q-58 27 -137 27q-46 0 -63 -10.5t-17 -40.5v-51h182v-185h-182v-256q0 -65 -33.5 -120.5t-87.5 -92t-116.5 -58.5t-125.5 -28z" />
    <glyph glyph-name="Scommaaccent" unicode="&#x218;" horiz-adv-x="777" 
d="M252 -249q60 113 60 197l146 -20q0 -39 -21.5 -98t-53.5 -102zM27 75l93 186q6 -4 17 -10t46 -22.5t70.5 -29t86 -22.5t96.5 -10q53 0 53 23q0 9 -44.5 15t-107.5 17t-126 32t-107.5 69t-44.5 118q0 105 101.5 170.5t280.5 65.5q56 0 119.5 -8.5t99.5 -16.5l35 -8
l-12 -214h-178l3 60q-46 8 -84 8q-55 0 -82 -9t-27 -36q0 -16 44.5 -27t107.5 -23t126 -32t107.5 -66t44.5 -114q0 -219 -325 -219q-74 0 -141.5 10.5t-111 25.5t-77 30.5t-48.5 25.5z" />
    <glyph glyph-name="scommaaccent" unicode="&#x219;" horiz-adv-x="651" 
d="M197 -249q60 113 60 197l146 -20q0 -39 -21.5 -98t-53.5 -102zM20 55l75 152q15 -9 39.5 -22t87 -34.5t108.5 -21.5q30 0 30 5q0 6 -31.5 14.5t-76 21t-89 31.5t-76 55.5t-31.5 83.5q0 83 86.5 135t213.5 52q69 0 128 -8t84 -16l25 -8v-167q-126 44 -222 44
q-51 0 -51 -10q0 -8 31.5 -15t76 -17.5t89 -27.5t76 -51.5t31.5 -81.5q0 -85 -74 -141t-204 -56q-104 0 -185.5 21t-110.5 41z" />
    <glyph glyph-name="dotlessj" unicode="&#x237;" horiz-adv-x="417" 
d="M-51 -75q55 13 99 33.5t44 41.5v500h250v-500q0 -76 -56.5 -139.5t-136.5 -97.5t-164 -42z" />
    <glyph glyph-name="circumflex" unicode="&#x2c6;" horiz-adv-x="549" 
d="M39 702l235 131l236 -131l-84 -137l-152 97l-152 -97z" />
    <glyph glyph-name="caron" unicode="&#x2c7;" horiz-adv-x="549" 
d="M39 701l83 137l152 -97l152 97l84 -137l-235 -131z" />
    <glyph glyph-name="breve" unicode="&#x2d8;" horiz-adv-x="596" 
d="M41 671l88 142q3 -3 8 -8.5t21.5 -19.5t35 -24.5t46.5 -19t57 -8.5t57.5 8t48 20t34.5 24t23 20l7 8l88 -145q-4 -4 -10.5 -11.5t-30.5 -26.5t-51.5 -33.5t-72.5 -26.5t-93 -12t-91.5 11.5t-72.5 28t-50.5 33.5t-31.5 29z" />
    <glyph glyph-name="dotaccent" unicode="&#x2d9;" horiz-adv-x="646" 
d="M214 698q0 45 35 82.5t93 37.5q59 0 94 -37t35 -83q0 -45 -35 -82t-94 -37q-58 0 -93 37t-35 82z" />
    <glyph glyph-name="ring" unicode="&#x2da;" horiz-adv-x="637" 
d="M161 706q0 -19 15 -32.5t40 -13.5t40 13t15 33q0 18 -16 31t-39 13t-39 -13t-16 -31zM46 705q0 65 47 107.5t123 42.5q73 0 121.5 -43t48.5 -107q0 -65 -47 -108.5t-123 -43.5q-80 0 -125 43t-45 109z" />
    <glyph glyph-name="ogonek" unicode="&#x2db;" horiz-adv-x="372" 
d="M39 -112q0 35 24.5 65t60 49t71 32.5t59.5 19.5l25 5l61 -59q-5 -1 -13.5 -2.5t-30 -8.5t-37.5 -17t-29.5 -29.5t-13.5 -44.5t19.5 -32t75.5 -7v-114q-123 0 -197.5 34t-74.5 109z" />
    <glyph glyph-name="tilde" unicode="&#x2dc;" horiz-adv-x="667" 
d="M86 705q3 5 8.5 13t23 28.5t34.5 36.5t42 29t47 13q41 0 71.5 -9t46 -20t38 -20t48.5 -9q28 0 52.5 7t34.5 14l10 7l37 -98q-1 -4 -4 -11.5t-14.5 -25.5t-25.5 -32t-39 -25.5t-54 -11.5q-55 0 -107 27t-94 27q-27 0 -56 -12.5t-45 -24.5l-15 -13z" />
    <glyph glyph-name="hungarumlaut" unicode="&#x2dd;" horiz-adv-x="671" 
d="M270 584l130 226l149 -47l-95 -199zM6 584l130 226l149 -47l-95 -199z" />
    <glyph glyph-name="uni0400" unicode="&#x400;" horiz-adv-x="785" 
d="M141 849l111 125l199 -170l-81 -94zM92 0v650h639v-185h-378v-42h301v-178h-301v-60h392v-185h-653z" />
    <glyph glyph-name="afii10023" unicode="&#x401;" horiz-adv-x="785" 
d="M408 848q0 44 39 82t93 38q56 0 95 -38t39 -82t-39 -81.5t-95 -37.5q-55 0 -93.5 37.5t-38.5 81.5zM108 848q0 44 38.5 82t93.5 38q56 0 94.5 -38t38.5 -82t-38.5 -81.5t-94.5 -37.5q-55 0 -93.5 37.5t-38.5 81.5zM92 0v650h639v-185h-378v-42h301v-178h-301v-60h392
v-185h-653z" />
    <glyph glyph-name="afii10051" unicode="&#x402;" horiz-adv-x="1090" 
d="M4 470v180h788v-180h-264v-112h3q2 3 6 8t20 17t37 21.5t58 17.5t81 8q288 0 288 -217v-31q0 -160 -104 -264t-267 -136l-38 198q138 38 146 180q-3 37 -28 54.5t-79 17.5q-68 0 -123 -38v-194h-260v470h-264z" />
    <glyph glyph-name="afii10052" unicode="&#x403;" horiz-adv-x="682" 
d="M239 789l199 170l111 -125l-229 -139zM93 0v650h604v-181h-341v-469h-263z" />
    <glyph glyph-name="afii10053" unicode="&#x404;" horiz-adv-x="892" 
d="M34 323q0 143 127 248.5t330 105.5q71 0 145 -11.5t112 -22.5l39 -11v-197q-127 41 -255 41q-142 0 -207 -55h362v-179h-382q52 -69 217 -69q62 0 134 16t113 32l41 16l64 -154q-6 -5 -16.5 -12t-48 -26.5t-79.5 -34t-109 -26.5t-137 -12q-202 0 -326 103.5t-124 247.5z
" />
    <glyph glyph-name="afii10054" unicode="&#x405;" horiz-adv-x="777" 
d="M27 75l93 186q6 -4 17 -10t46 -22.5t70.5 -29t86 -22.5t96.5 -10q53 0 53 23q0 9 -44.5 15t-107.5 17t-126 32t-107.5 69t-44.5 118q0 105 101.5 170.5t280.5 65.5q56 0 119.5 -8.5t99.5 -16.5l35 -8l-12 -214h-178l3 60q-46 8 -84 8q-55 0 -82 -9t-27 -36
q0 -16 44.5 -27t107.5 -23t126 -32t107.5 -66t44.5 -114q0 -219 -325 -219q-74 0 -141.5 10.5t-111 25.5t-77 30.5t-48.5 25.5z" />
    <glyph glyph-name="afii10055" unicode="&#x406;" horiz-adv-x="447" 
d="M92 0v650h263v-650h-263z" />
    <glyph glyph-name="afii10056" unicode="&#x407;" horiz-adv-x="447" 
d="M240 833q0 44 39 82t93 38q56 0 95 -38t39 -82t-39 -81.5t-95 -37.5q-55 0 -93.5 37.5t-38.5 81.5zM92 0v650h263v-650h-263zM-60 833q0 44 38.5 82t93.5 38q56 0 94.5 -38t38.5 -82t-38.5 -81.5t-94.5 -37.5q-55 0 -93.5 37.5t-38.5 81.5z" />
    <glyph glyph-name="afii10057" unicode="&#x408;" horiz-adv-x="471" 
d="M-30 -20q146 40 146 197v473h263v-468q0 -160 -104.5 -264t-267.5 -136z" />
    <glyph glyph-name="afii10058" unicode="&#x409;" horiz-adv-x="1409" 
d="M902 151q46 -6 84 -6q84 0 112 17t28 53q0 59 -143 59q-41 0 -81 -14v-109zM39 202q43 6 74 19.5t54 39.5t37.5 57t24.5 84.5t15.5 108t11.5 139.5h646v-231q58 13 115 13q359 0 359 -207q0 -36 -10 -69.5t-37 -68t-69.5 -59t-113 -40.5t-160.5 -16t-176.5 7t-128.5 14
l-42 7v465h-164q-10 -82 -24.5 -146t-42 -128t-66 -107t-98 -73.5t-135.5 -38.5z" />
    <glyph glyph-name="afii10059" unicode="&#x40a;" horiz-adv-x="1422" 
d="M915 151q47 -6 84 -6q84 0 112 17t28 53q0 59 -143 59q-41 0 -81 -14v-109zM92 0v650h263v-240h297v240h263v-231q58 13 115 13q359 0 359 -207q0 -36 -10 -69.5t-37 -68t-69.5 -59t-113 -40.5t-160.5 -16t-176.5 7t-128.5 14l-42 7v231h-297v-231h-263z" />
    <glyph glyph-name="afii10060" unicode="&#x40b;" horiz-adv-x="1090" 
d="M4 470v180h788v-180h-264v-112h3q2 3 6 8t20 17t37 21.5t58 17.5t81 8q288 0 288 -217v-213h-262v148q0 43 -24.5 63.5t-83.5 20.5q-68 0 -123 -38v-194h-260v470h-264z" />
    <glyph glyph-name="afii10061" unicode="&#x40c;" horiz-adv-x="955" 
d="M284 804l199 170l111 -125l-229 -139zM92 0v650h263v-244l49 44l211 200h309l-341 -302l371 -348h-339l-206 198l-54 -46v-152h-263z" />
    <glyph glyph-name="uni040D" unicode="&#x40d;" horiz-adv-x="993" 
d="M333 834l111 125l199 -170l-81 -94zM92 0v650h233v-282q0 -9 1.5 -27t1.5 -20l424 330l149 -1v-650h-233v251q0 7 -2.5 32t-2.5 27l-412 -310h-159z" />
    <glyph glyph-name="afii10062" unicode="&#x40e;" horiz-adv-x="915" 
d="M222 806l88 142q3 -3 8 -8.5t21.5 -19.5t35 -24.5t46.5 -19t57 -8.5t57.5 8t48 20t34.5 24t22 20l8 8l88 -145q-4 -4 -10.5 -11.5t-30.5 -26.5t-51.5 -33.5t-72.5 -26.5t-93 -12t-91.5 11.5t-72.5 28t-50.5 33.5t-31.5 28zM1 650h278q171 -260 193 -290q144 214 191 290
h266l-450 -650h-266l115 180z" />
    <glyph glyph-name="afii10145" unicode="&#x40f;" horiz-adv-x="982" 
d="M92 0v650h263v-471h274v471h261v-650h-288v-227h-220v227h-290z" />
    <glyph glyph-name="afii10017" unicode="&#x410;" horiz-adv-x="985" 
d="M391 257h196q-67 156 -97 214q-24 -45 -99 -214zM15 0l325 650l3 -5l2 5h312l313 -650h-268l-46 99h-335l-41 -99h-265z" />
    <glyph glyph-name="afii10018" unicode="&#x411;" horiz-adv-x="856" 
d="M355 151q47 -6 84 -6q85 0 112.5 11t27.5 38q0 45 -143 45q-39 0 -81 -2v-86zM92 0v650h598v-181h-335v-75q35 3 81 3q393 0 393 -202q0 -32 -10 -61t-37 -59.5t-69.5 -52.5t-113 -36t-160.5 -14t-176.5 7t-128.5 14z" />
    <glyph glyph-name="afii10019" unicode="&#x412;" horiz-adv-x="850" 
d="M325 387q96 4 121 4q24 0 38 -1q25 21 25 44q0 11 -2 19.5t-9 20t-24.5 17.5t-44.5 6q-41 0 -104 -7v-103zM325 162q62 -8 110 -8q131 0 131 52q0 13 -7 22t-35 16t-78 7q-17 0 -121 -4v-85zM92 0v650q142 27 337 27q168 0 240 -57.5t72 -142.5q0 -74 -59 -126
q134 -51 134 -154t-98 -164t-272 -61q-97 0 -185.5 7t-128.5 14z" />
    <glyph glyph-name="afii10020" unicode="&#x413;" horiz-adv-x="681" 
d="M92 0v650h604v-181h-341v-469h-263z" />
    <glyph glyph-name="afii10021" unicode="&#x414;" horiz-adv-x="1064" 
d="M390 179h257v286h-198q-19 -178 -59 -286zM51 179h104q35 70 51 170t29 301h669v-471h115l-14 -406h-221l7 227h-514l8 -227h-220z" />
    <glyph glyph-name="afii10022" unicode="&#x415;" horiz-adv-x="785" 
d="M92 0v650h639v-185h-378v-42h301v-178h-301v-60h392v-185h-653z" />
    <glyph glyph-name="afii10024" unicode="&#x416;" horiz-adv-x="1368" 
d="M-8 0l360 332l-346 318h324l193 -206l34 18v188h241v-230l16 13l225 217h324l-349 -280l362 -370h-339l-201 243l-38 -25v-218h-241v274l-24 -20l-217 -254h-324z" />
    <glyph glyph-name="afii10025" unicode="&#x417;" horiz-adv-x="776" 
d="M9 68l78 148q13 -7 36.5 -18t89 -29t122.5 -18q135 0 135 54q0 25 -19 32t-60 7h-20q-34 0 -76 -2t-67 -4l-25 -2v158q111 9 201 9q4 1 10.5 3.5t17 15t10.5 30.5q0 46 -143 46q-36 0 -84.5 -4t-78.5 -8l-31 -5l-11 161q8 4 25.5 10t85 15.5t151.5 9.5q160 0 249.5 -49.5
t89.5 -126.5q0 -91 -91 -149q74 -17 107 -53t33 -94q0 -62 -33.5 -109t-90 -73t-122 -38.5t-139.5 -12.5t-137 10t-100.5 24t-64.5 28t-37 24z" />
    <glyph glyph-name="afii10026" unicode="&#x418;" horiz-adv-x="993" 
d="M92 0v650h233v-282q0 -9 1.5 -27t1.5 -20l424 330l149 -1v-650h-233v251q0 7 -2.5 32t-2.5 27l-412 -310h-159z" />
    <glyph glyph-name="afii10027" unicode="&#x419;" horiz-adv-x="993" 
d="M266 806l88 142q3 -3 8 -8.5t21.5 -19.5t35 -24.5t46.5 -19t57 -8.5t57.5 8t48 20t34.5 24t22 20l8 8l88 -145q-4 -4 -10.5 -11.5t-30.5 -26.5t-51.5 -33.5t-72.5 -26.5t-93 -12t-91.5 11.5t-72.5 28t-50.5 33.5t-31.5 28zM92 0v650h233v-282q0 -9 1.5 -27t1.5 -20
l424 330l149 -1v-650h-233v251q0 7 -2.5 32t-2.5 27l-412 -310h-159z" />
    <glyph glyph-name="afii10028" unicode="&#x41a;" horiz-adv-x="955" 
d="M92 0v650h263v-244l49 44l211 200h309l-341 -302l371 -348h-339l-206 198l-54 -46v-152h-263z" />
    <glyph glyph-name="afii10029" unicode="&#x41b;" horiz-adv-x="995" 
d="M39 202q43 6 74 19.5t54 39.5t37.5 57t24.5 84.5t15.5 108t11.5 139.5h646v-650h-262v465h-164q-10 -85 -24.5 -150t-42 -128t-66 -105.5t-98 -72t-136.5 -37.5z" />
    <glyph glyph-name="afii10030" unicode="&#x41c;" horiz-adv-x="1265" 
d="M12 0l126 650h264q169 -313 230 -396q27 37 85 136t102 180l44 80h264l125 -650h-251q-33 163 -57 316q-20 -36 -68.5 -115t-87.5 -140l-38 -61h-235l-195 316l-57 -316h-251z" />
    <glyph glyph-name="afii10031" unicode="&#x41d;" horiz-adv-x="1006" 
d="M92 0v650h263v-240h297v240h262v-650h-262v231h-297v-231h-263z" />
    <glyph glyph-name="afii10032" unicode="&#x41e;" horiz-adv-x="1010" 
d="M300 325q0 -67 55.5 -109.5t146.5 -42.5q92 0 150 42.5t58 109.5q0 66 -59 108.5t-149 42.5q-89 0 -145.5 -42.5t-56.5 -108.5zM34 325q0 154 131.5 253t336.5 99q206 0 340.5 -99t134.5 -253t-134.5 -253.5t-340.5 -99.5q-205 0 -336.5 99.5t-131.5 253.5z" />
    <glyph glyph-name="afii10033" unicode="&#x41f;" horiz-adv-x="982" 
d="M92 0v650h798v-650h-261v470h-274v-470h-263z" />
    <glyph glyph-name="afii10034" unicode="&#x420;" horiz-adv-x="830" 
d="M336 346q24 -3 58 -3q66 0 109 17t43 50q0 74 -126 74q-18 0 -84 -4v-134zM92 0v650q183 27 339 27q167 0 269 -72t102 -194q0 -83 -52.5 -142.5t-123.5 -84.5t-147 -25q-80 0 -143 9v-168h-244z" />
    <glyph glyph-name="afii10035" unicode="&#x421;" horiz-adv-x="880" 
d="M34 323q0 146 129 250t333 104q90 0 164 -12.5t102 -24.5l29 -13l-12 -262h-195l4 107q-40 4 -61 4q-222 0 -222 -153q0 -63 58 -106.5t159 -43.5q62 0 131 23.5t107 47.5l38 23l73 -149q-4 -6 -12.5 -16t-41.5 -35t-73 -44t-110 -35t-150 -16q-203 0 -326.5 102
t-123.5 249z" />
    <glyph glyph-name="afii10036" unicode="&#x422;" horiz-adv-x="796" 
d="M4 470v180h788v-180h-264v-470h-260v470h-264z" />
    <glyph glyph-name="afii10037" unicode="&#x423;" horiz-adv-x="915" 
d="M1 650h278q171 -260 193 -290q144 214 191 290h266l-450 -650h-266l115 180z" />
    <glyph glyph-name="afii10038" unicode="&#x424;" horiz-adv-x="1081" 
d="M655 187q152 9 152 141q0 58 -36.5 95t-115.5 43v-279zM275 326q0 -58 36 -95.5t116 -42.5v278q-152 -9 -152 -140zM34 326q0 124 104.5 211.5t288.5 93.5v79h228v-79q180 -6 286.5 -94.5t106.5 -208.5q0 -124 -105 -212t-288 -94v-87h-228v87q-180 6 -286.5 95
t-106.5 209z" />
    <glyph glyph-name="afii10039" unicode="&#x425;" horiz-adv-x="966" 
d="M-8 0l322 334l-318 316h302q132 -136 184 -185h1l184 185h302l-319 -316l324 -334h-314q-124 148 -177 192h-1q-23 -20 -67.5 -68t-76.5 -86l-33 -38h-313z" />
    <glyph glyph-name="afii10040" unicode="&#x426;" horiz-adv-x="1051" 
d="M92 0v650h263v-471h274v471h261v-471h115l-12 -406h-220l7 227h-688z" />
    <glyph glyph-name="afii10041" unicode="&#x427;" horiz-adv-x="917" 
d="M69 361v289h262v-229q0 -40 25.5 -53t81.5 -13q72 0 124 32v263h263v-650h-263v229h-3q-2 -3 -6.5 -8.5t-22 -20t-40 -25t-63 -19.5t-87.5 -9q-139 0 -205 60.5t-66 153.5z" />
    <glyph glyph-name="afii10042" unicode="&#x428;" horiz-adv-x="1327" 
d="M92 0v650h263v-471h177v471h263v-471h179v471h261v-650h-1143z" />
    <glyph glyph-name="afii10043" unicode="&#x429;" horiz-adv-x="1398" 
d="M92 0v650h263v-471h177v471h263v-471h179v471h261v-471h116l-13 -406h-220q5 112 9 227h-1035z" />
    <glyph glyph-name="afii10044" unicode="&#x42a;" horiz-adv-x="1002" 
d="M460 230q14 -73 134 -73q53 0 89 16.5t36 41.5q0 47 -124 47q-74 0 -135 -32zM4 471v179h731v-110h-1q-16 -7 -41.5 -20t-78.5 -49.5t-88 -74.5q72 33 151 33q121 0 206.5 -52.5t85.5 -148.5q0 -108 -104.5 -182t-282.5 -74q-95 0 -166.5 16.5t-112 41.5t-66 59.5
t-33.5 65t-8 63.5q0 122 159 254q-6 -1 -14 -1h-337z" />
    <glyph glyph-name="afii10045" unicode="&#x42b;" horiz-adv-x="1304" 
d="M948 0v650h263v-650h-263zM355 151q47 -6 84 -6q84 0 112 17t28 53q0 59 -143 59q-41 0 -81 -14v-109zM92 0v650h263v-231q58 13 115 13q359 0 359 -207q0 -36 -10 -69.5t-37 -68t-69.5 -59t-113 -40.5t-160.5 -16t-176.5 7t-128.5 14z" />
    <glyph glyph-name="afii10046" unicode="&#x42c;" horiz-adv-x="861" 
d="M355 151q47 -6 84 -6q84 0 112 17t28 53q0 59 -143 59q-41 0 -81 -14v-109zM92 0v650h263v-231q58 13 115 13q359 0 359 -207q0 -36 -10 -69.5t-37 -68t-69.5 -59t-113 -40.5t-160.5 -16t-176.5 7t-128.5 14z" />
    <glyph glyph-name="afii10047" unicode="&#x42d;" horiz-adv-x="851" 
d="M9 69l81 170q14 -7 38 -18t86 -29.5t110 -18.5q75 0 121 13.5t70 48.5h-380v185h391q-43 56 -224 56q-42 0 -94.5 -3.5t-83.5 -6.5l-32 -4v190q113 25 260 25q203 0 334 -106t131 -245q0 -148 -133.5 -251t-344.5 -103q-71 0 -131 10t-95 24.5t-60 28.5t-35 24z" />
    <glyph glyph-name="afii10048" unicode="&#x42e;" horiz-adv-x="1412" 
d="M703 325q0 -67 55.5 -109.5t146.5 -42.5t149 42.5t58 109.5q0 66 -58.5 108.5t-148.5 42.5q-89 0 -145.5 -42.5t-56.5 -108.5zM92 0v650h263v-245h115q30 124 145 198t290 74q206 0 340.5 -99t134.5 -253q0 -153 -135 -253t-340 -100q-170 0 -283.5 70.5t-147.5 188.5
h-119v-231h-263z" />
    <glyph glyph-name="afii10049" unicode="&#x42f;" horiz-adv-x="897" 
d="M316 435q0 -52 108 -52q64 0 113 7v106q-68 7 -104 7q-61 0 -89 -20t-28 -48zM34 0l192 246q-74 26 -119 73t-45 108q0 104 100 176t293 72q66 0 149 -6.5t133 -12.5l50 -6v-650h-250v224q-3 0 -13.5 -0.5t-28.5 -1.5t-37 -1l-162 -221h-262z" />
    <glyph glyph-name="afii10065" unicode="&#x430;" horiz-adv-x="777" 
d="M279 159q0 -34 76 -34q42 0 69.5 10t33 16.5t7.5 11.5v16q-53 5 -93 5q-50 0 -71.5 -5t-21.5 -20zM27 141q0 170 297 170q68 0 141 -7v5q0 46 -141 46q-51 0 -97 -4.5t-66 -8.5l-20 -4l-26 144q12 5 33.5 12.5t87.5 20t130 12.5q135 0 213 -28t107 -78.5t29 -134.5v-286
h-240l-9 31h-5q-1 -2 -3.5 -6t-14.5 -14.5t-29.5 -18t-51.5 -14t-77 -6.5q-106 0 -182 46t-76 123z" />
    <glyph glyph-name="afii10066" unicode="&#x431;" horiz-adv-x="797" 
d="M298 243q4 -89 103 -89q45 0 71.5 17.5t26.5 48.5q0 49 -79 49q-55 0 -122 -26zM27 276q0 160 111.5 282t291.5 141q50 5 87 15t55 20.5t28.5 20.5t12.5 16l2 6l132 -119q-2 -5 -7.5 -13t-26 -30t-46.5 -40.5t-72 -37.5t-99 -28q-107 -15 -163.5 -43t-57.5 -80h7
q2 2 6 5.5t20.5 12.5t37 16t58 12.5t81.5 5.5q129 0 207 -60t78 -148q0 -46 -25 -91.5t-71 -83t-120.5 -60.5t-164.5 -23q-163 0 -262.5 76.5t-99.5 227.5z" />
    <glyph glyph-name="afii10067" unicode="&#x432;" horiz-adv-x="774" 
d="M314 308q42 2 70 2h6q65 4 65 30q0 14 -17.5 20.5t-67.5 6.5q-12 0 -56 -4v-55zM314 136q46 -4 70 -4q98 0 98 31q0 18 -20 25.5t-82 7.5q-24 0 -66 -2v-58zM75 0v500q189 27 311 27q308 0 308 -153q0 -68 -103 -108q22 -3 44.5 -9.5t48 -19.5t41.5 -36.5t16 -53.5
q0 -85 -98 -130t-247 -45q-91 0 -171 7t-115 14z" />
    <glyph glyph-name="afii10068" unicode="&#x433;" horiz-adv-x="552" 
d="M75 0v500h474v-180l-224 3v-323h-250z" />
    <glyph glyph-name="afii10069" unicode="&#x434;" horiz-adv-x="907" 
d="M351 175h179v160h-157q-4 -80 -22 -160zM13 175h105q38 129 39 325h605v-325h100l-14 -362h-222l7 187h-407l8 -187h-208z" />
    <glyph glyph-name="afii10070" unicode="&#x435;" horiz-adv-x="717" 
d="M278 310q108 0 170 -1q0 -2 1 -3q-1 35 -20.5 49t-65.5 14q-39 0 -61 -16t-24 -43zM27 231q0 135 96.5 215.5t241.5 80.5q153 0 232.5 -65t79.5 -169q0 -21 -10.5 -45.5t-20.5 -37.5l-11 -14h-349q2 -28 34.5 -40t99.5 -12q48 0 95.5 11t71.5 21l24 11l62 -144
q-4 -3 -12 -7.5t-36 -17t-59 -22t-79.5 -17t-99.5 -7.5q-99 0 -179.5 28.5t-130.5 88t-50 142.5z" />
    <glyph glyph-name="afii10072" unicode="&#x436;" horiz-adv-x="1093" 
d="M2 0l244 225l-244 275h285l121 -149l13 9l2 -3v143h244v-182l1 1l135 181h288l-246 -225l261 -275h-303l-128 156l-6 -4l-2 2v-154h-244v180l-2 -1l-134 -179h-285z" />
    <glyph glyph-name="afii10073" unicode="&#x437;" horiz-adv-x="657" 
d="M6 39l57 137q97 -46 210 -46q92 0 92 32q0 22 -95 22l-115 -4v141q85 6 173 6q27 8 27 21q0 20 -119 20q-35 0 -73 -5t-59 -10l-21 -5l-29 142q95 37 222 37q147 0 235.5 -36t88.5 -110q0 -71 -102 -114v-2q17 -1 36.5 -8t40.5 -20t34.5 -37t13.5 -55q0 -48 -27 -83
t-74 -54t-100 -27.5t-114 -8.5q-67 0 -122.5 7t-87 16.5t-54 19.5t-30.5 17z" />
    <glyph glyph-name="afii10074" unicode="&#x438;" horiz-adv-x="860" 
d="M75 0v500h245v-189l-4 -47l305 236h164v-500h-245v182l3 43l-288 -225h-180z" />
    <glyph glyph-name="afii10075" unicode="&#x439;" horiz-adv-x="860" 
d="M198 671l88 142q3 -3 8 -8.5t21.5 -19.5t35 -24.5t46.5 -19t57 -8.5t57.5 8t48 20t34.5 24t22 20l8 8l88 -145q-4 -4 -10.5 -11.5t-30.5 -26.5t-51.5 -33.5t-72.5 -26.5t-93 -12t-91.5 11.5t-72.5 28t-50.5 33.5t-31.5 29zM75 0v500h245v-189l-4 -47l305 236h164v-500
h-245v182l3 43l-288 -225h-180z" />
    <glyph glyph-name="afii10076" unicode="&#x43a;" horiz-adv-x="802" 
d="M75 0v500h250v-144l30 24l118 120h286l-224 -204l265 -296h-302l-138 156l-35 -26v-130h-250z" />
    <glyph glyph-name="afii10077" unicode="&#x43b;" horiz-adv-x="819" 
d="M26 169q69 13 103.5 40t51 88t16.5 177v26h547v-500h-252v320h-82q-8 -74 -28.5 -130.5t-59 -104.5t-103.5 -77t-154 -36z" />
    <glyph glyph-name="afii10078" unicode="&#x43c;" horiz-adv-x="1065" 
d="M47 0l112 500h206q139 -278 169 -308h1q13 13 55 90t78 148l35 70h205l109 -500h-227q-27 193 -36 221h-1q-13 -12 -43.5 -67.5t-53.5 -104.5l-24 -49h-201q-95 193 -125 221h-1l-32 -221h-226z" />
    <glyph glyph-name="afii10079" unicode="&#x43d;" horiz-adv-x="846" 
d="M75 0v500h250v-148h196v148h250v-500h-250v181h-196v-181h-250z" />
    <glyph glyph-name="afii10080" unicode="&#x43e;" 
d="M296 251q0 -44 32 -70.5t89 -26.5q59 0 91.5 26t32.5 70q0 43 -32.5 68.5t-91.5 25.5q-58 0 -89.5 -25t-31.5 -68zM27 250q0 124 110.5 200.5t279.5 76.5q170 0 281.5 -76.5t111.5 -200.5t-111.5 -201t-281.5 -77q-169 0 -279.5 77t-110.5 201z" />
    <glyph glyph-name="afii10081" unicode="&#x43f;" horiz-adv-x="835" 
d="M75 0v500h685v-500h-250v320h-185v-320h-250z" />
    <glyph glyph-name="afii10082" unicode="&#x440;" 
d="M312 139q40 -8 77 -8q153 0 153 112q0 43 -33 70.5t-93 27.5q-30 0 -56 -5.5t-37 -10.5l-11 -5v-181zM62 -250v750h240l4 -36h10q56 63 166 63q141 0 235 -76.5t94 -190.5q0 -121 -108 -204.5t-271 -83.5q-60 0 -120 5v-227h-250z" />
    <glyph glyph-name="afii10083" unicode="&#x441;" horiz-adv-x="683" 
d="M27 236q0 94 52.5 161.5t135.5 98.5t186 31q46 0 97 -7t78 -14l28 -7v-184q-94 27 -184 27q-125 0 -125 -87q0 -45 29.5 -72.5t88.5 -27.5q49 0 98.5 17t74.5 34l25 18l65 -129q-3 -5 -9 -13.5t-30.5 -29.5t-54 -37t-81 -29.5t-111.5 -13.5q-164 0 -263.5 72.5
t-99.5 191.5z" />
    <glyph glyph-name="afii10084" unicode="&#x442;" horiz-adv-x="642" 
d="M4 320v180h635v-180h-190v-320h-250v320h-195z" />
    <glyph glyph-name="afii10085" unicode="&#x443;" horiz-adv-x="805" 
d="M-3 500h285q94 -230 120 -278l133 278h272l-286 -464l-114 -286h-273l119 270l1 4z" />
    <glyph glyph-name="afii10086" unicode="&#x444;" horiz-adv-x="1009" 
d="M622 153q45 4 72.5 29t27.5 66q0 98 -93 98h-5l-2 -1v-192zM285 255q0 -46 23.5 -73t67.5 -27h9v193q-46 -4 -73 -28.5t-27 -64.5zM27 248q0 124 101 199.5t257 79.5v223h237v-237q16 14 58 14q77 0 144.5 -30.5t112 -94t44.5 -147.5q0 -126 -101 -202t-258 -81v-222
h-237v232q-14 -10 -58 -10q-77 0 -144.5 31.5t-111.5 96t-44 148.5z" />
    <glyph glyph-name="afii10087" unicode="&#x445;" horiz-adv-x="813" 
d="M2 0l256 249l-244 251h291q65 -72 101 -121q16 22 41 52t43 49l17 20h291l-245 -251l258 -249h-293l-112 131l-112 -131h-292z" />
    <glyph glyph-name="afii10088" unicode="&#x446;" horiz-adv-x="904" 
d="M75 0v500h250v-320h185v320h250v-320h99l-12 -367h-223l7 187h-556z" />
    <glyph glyph-name="afii10089" unicode="&#x447;" horiz-adv-x="749" 
d="M39 328v172h256v-164q0 -44 62 -44q14 0 31 4t26 8l10 3v193h250v-500h-250v184h-5q-3 -4 -10 -11t-43.5 -18t-88.5 -11q-107 0 -172.5 47.5t-65.5 136.5z" />
    <glyph glyph-name="afii10090" unicode="&#x448;" horiz-adv-x="1141" 
d="M75 0v500h237v-320h139v320h239v-320h137v320h239v-500h-991z" />
    <glyph glyph-name="afii10091" unicode="&#x449;" horiz-adv-x="1211" 
d="M75 0v500h237v-320h139v320h239v-320h137v320h239v-320h100l-14 -367h-222l7 187h-862z" />
    <glyph glyph-name="afii10092" unicode="&#x44a;" horiz-adv-x="861" 
d="M397 191q0 -64 88 -64q81 0 81 37q0 35 -80 35q-39 0 -89 -2v-6zM10 327v173h525v-123h-1q-6 -2 -18 -8t-35 -22t-40 -36h7q34 20 123 20q264 0 264 -153q0 -82 -101 -144t-270 -62q-156 0 -246.5 56.5t-90.5 137.5q0 92 72 166q-50 -5 -72 -5h-117z" />
    <glyph glyph-name="afii10093" unicode="&#x44b;" horiz-adv-x="1155" 
d="M830 0v500h250v-500h-250zM325 129q32 -2 42 -2q63 0 85 15.5t22 42.5q0 44 -83 44q-34 0 -66 -8v-92zM75 0v500h250v-141h6q31 23 129 23q117 0 198.5 -51t81.5 -142q0 -105 -102 -161t-296 -56q-62 0 -129 7t-103 14z" />
    <glyph glyph-name="afii10094" unicode="&#x44c;" horiz-adv-x="766" 
d="M325 129q32 -2 42 -2q63 0 85 15.5t22 42.5q0 44 -83 44q-34 0 -66 -8v-92zM75 0v500h250v-141h6q31 23 129 23q117 0 198.5 -51t81.5 -142q0 -105 -102 -161t-296 -56q-62 0 -129 7t-103 14z" />
    <glyph glyph-name="afii10095" unicode="&#x44d;" horiz-adv-x="684" 
d="M8 58l65 135q8 -5 23 -12.5t63 -20.5t99 -13q73 0 106.5 8.5t45.5 40.5l-280 -6v131l275 -6q-15 22 -46.5 29.5t-90.5 7.5q-32 0 -73 -4t-66 -8l-25 -4l-30 157q84 34 240 34q166 0 256 -82t90 -197q0 -133 -108 -204.5t-283 -71.5q-55 0 -102.5 9t-75 21.5t-47.5 25
t-28 21.5z" />
    <glyph glyph-name="afii10096" unicode="&#x44e;" horiz-adv-x="1146" 
d="M606 251q0 -44 32 -70.5t89 -26.5q59 0 91.5 26t32.5 70q0 43 -32.5 68.5t-91.5 25.5q-58 0 -89.5 -25t-31.5 -68zM75 0v500h250v-151l44 2q38 82 133 129t225 47q170 0 281.5 -76.5t111.5 -200.5t-111.5 -201t-281.5 -77q-138 0 -236.5 53.5t-130.5 145.5h-35v-171h-250
z" />
    <glyph glyph-name="afii10097" unicode="&#x44f;" horiz-adv-x="777" 
d="M302 332q0 -46 105 -46q23 0 45 2v82q-46 4 -65 4q-48 0 -66.5 -9.5t-18.5 -32.5zM34 0l157 194q-68 23 -103.5 61t-35.5 87q0 85 89 135t246 50q75 0 154 -8t120 -16l41 -8v-495h-250v169q-46 -2 -58 -2h-1l-96 -167h-263z" />
    <glyph glyph-name="uni0450" unicode="&#x450;" horiz-adv-x="717" 
d="M278 310q108 0 170 -1q0 -2 1 -3q-1 35 -20.5 49t-65.5 14q-39 0 -61 -16t-24 -43zM224 699l111 125l199 -170l-81 -94zM27 231q0 135 96.5 215.5t241.5 80.5q153 0 232.5 -65t79.5 -169q0 -21 -10.5 -45.5t-20.5 -37.5l-11 -14h-349q2 -28 34.5 -40t99.5 -12
q48 0 95.5 11t71.5 21l24 11l62 -144q-4 -3 -12 -7.5t-36 -17t-59 -22t-79.5 -17t-99.5 -7.5q-99 0 -179.5 28.5t-130.5 88t-50 142.5z" />
    <glyph glyph-name="afii10071" unicode="&#x451;" horiz-adv-x="717" 
d="M404 698q0 44 39 82t93 38q56 0 95 -38t39 -82t-39 -81.5t-95 -37.5q-55 0 -93.5 37.5t-38.5 81.5zM278 310q108 0 170 -1q1 -3 1 -4q0 36 -19.5 50t-66.5 14q-39 0 -61 -16t-24 -43zM104 698q0 44 38.5 82t93.5 38q56 0 94.5 -38t38.5 -82t-38.5 -81.5t-94.5 -37.5
q-55 0 -93.5 37.5t-38.5 81.5zM27 231q0 135 96.5 215.5t241.5 80.5q153 0 232.5 -65t79.5 -169q0 -21 -10.5 -45.5t-20.5 -37.5l-11 -14h-349q2 -28 34.5 -40t99.5 -12q48 0 95.5 11t71.5 21l24 11l62 -144q-4 -3 -12 -7.5t-36 -17t-59 -22t-79.5 -17t-99.5 -7.5
q-99 0 -179.5 28.5t-130.5 88t-50 142.5z" />
    <glyph glyph-name="afii10099" unicode="&#x452;" horiz-adv-x="846" 
d="M4 522v155h71v58l255 15v-73h239v-155h-239v-143h4q2 4 6.5 9.5t19.5 20.5t33 26.5t48.5 21t63.5 9.5q266 0 266 -269q0 -111 -17.5 -193t-47 -133.5t-76 -84t-96.5 -46.5t-117 -19l-36 201l33 6t27.5 8t24 13.5t18 21.5t15 33.5t9.5 47.5t6.5 65.5t1.5 85.5
q0 38 -21.5 59t-59.5 21q-24 0 -45 -10t-33.5 -25.5t-18 -24.5t-8.5 -15v-208h-255v522h-71z" />
    <glyph glyph-name="afii10100" unicode="&#x453;" horiz-adv-x="552" 
d="M161 654l199 170l111 -125l-229 -139zM75 0v500h474v-180l-224 3v-323h-250z" />
    <glyph glyph-name="afii10101" unicode="&#x454;" horiz-adv-x="690" 
d="M27 231q0 72 31 129.5t82.5 93t116 54.5t134.5 19q56 0 110.5 -6.5t80.5 -13.5l27 -7v-175q-103 24 -201 24q-32 0 -48.5 -1.5t-33 -9t-25.5 -23.5l243 6v-131l-251 5q7 -30 35 -39t103 -9q42 0 87 15t68 30l24 16l70 -128q-4 -4 -12 -11.5t-35 -26t-58.5 -33t-82 -26
t-105.5 -11.5q-157 0 -258.5 73t-101.5 186z" />
    <glyph glyph-name="afii10102" unicode="&#x455;" horiz-adv-x="651" 
d="M20 55l75 152q15 -9 39.5 -22t87 -34.5t108.5 -21.5q30 0 30 5q0 6 -31.5 14.5t-76 21t-89 31.5t-76 55.5t-31.5 83.5q0 83 86.5 135t213.5 52q69 0 128 -8t84 -16l25 -8v-167q-126 44 -222 44q-51 0 -51 -10q0 -8 31.5 -15t76 -17.5t89 -27.5t76 -51.5t31.5 -81.5
q0 -85 -74 -141t-204 -56q-104 0 -185.5 21t-110.5 41z" />
    <glyph glyph-name="afii10103" unicode="&#x456;" horiz-adv-x="400" 
d="M75 0v500h250v-500h-250zM71 698q0 45 35 82.5t93 37.5q59 0 94 -37t35 -83q0 -45 -35 -82t-94 -37q-58 0 -93 37t-35 82z" />
    <glyph glyph-name="afii10104" unicode="&#x457;" horiz-adv-x="400" 
d="M217 698q0 44 39 82t93 38q56 0 95 -38t39 -82t-39 -81.5t-95 -37.5q-55 0 -93.5 37.5t-38.5 81.5zM75 0v500h250v-500h-250zM-83 698q0 44 38.5 82t93.5 38q56 0 94.5 -38t38.5 -82t-38.5 -81.5t-94.5 -37.5q-55 0 -93.5 37.5t-38.5 81.5z" />
    <glyph glyph-name="afii10105" unicode="&#x458;" horiz-adv-x="417" 
d="M89 698q0 45 35 82.5t93 37.5q59 0 94 -37t35 -83q0 -45 -35 -82t-94 -37q-58 0 -93 37t-35 82zM-51 -75q55 13 99 33.5t44 41.5v500h250v-500q0 -76 -56.5 -139.5t-136.5 -97.5t-164 -42z" />
    <glyph glyph-name="afii10106" unicode="&#x459;" horiz-adv-x="1184" 
d="M742 129q32 -2 42 -2q63 0 85 15.5t22 42.5q0 44 -83 44q-36 0 -64 -8v-85h-2v-7zM26 169q38 8 63.5 19t47.5 32.5t34 55t19 83.5t7 121v20h547v-141h4q31 23 129 23q117 0 198.5 -51t81.5 -142q0 -105 -102 -161t-296 -56q-62 0 -129 7t-102 14l-36 7v320h-83
q-18 -147 -97.5 -236t-246.5 -112z" />
    <glyph glyph-name="afii10107" unicode="&#x45a;" horiz-adv-x="1213" 
d="M771 129q32 -2 42 -2q63 0 85 15.5t22 42.5q0 44 -83 44q-34 0 -66 -8v-92zM75 0v500h250v-148h196v148h250v-141h6q31 23 129 23q117 0 198.5 -51t81.5 -142q0 -105 -102 -161t-296 -56q-62 0 -129 7t-103 14l-35 7v181h-196v-181h-250z" />
    <glyph glyph-name="afii10108" unicode="&#x45b;" horiz-adv-x="835" 
d="M4 522v155h71v58l255 15v-73h239v-155h-239v-143h4q1 4 4 9.5t16 20.5t31 26.5t53 21t79 9.5q115 0 184.5 -60t69.5 -164v-242h-255v232q0 18 -22.5 34.5t-58.5 16.5q-24 0 -45 -10t-33.5 -25.5t-18 -24.5t-8.5 -15v-208h-255v522h-71z" />
    <glyph glyph-name="afii10109" unicode="&#x45c;" horiz-adv-x="802" 
d="M276 654l199 170l111 -125l-229 -139zM75 0v500h250v-144l30 24l118 120h286l-224 -204l265 -296h-302l-138 156l-35 -26v-130h-250z" />
    <glyph glyph-name="uni045D" unicode="&#x45d;" horiz-adv-x="860" 
d="M269 699l111 125l199 -170l-81 -94zM75 0v500h245v-189l-4 -47l305 236h164v-500h-245v182l3 43l-288 -225h-180z" />
    <glyph glyph-name="afii10110" unicode="&#x45e;" horiz-adv-x="805" 
d="M147 671l88 142q3 -3 8 -8.5t21.5 -19.5t35 -24.5t46.5 -19t57 -8.5t57.5 8t48 20t34.5 24t23 20l7 8l88 -145q-4 -4 -10.5 -11.5t-30.5 -26.5t-51.5 -33.5t-72.5 -26.5t-93 -12t-91.5 11.5t-72.5 28t-50.5 33.5t-31.5 29zM-3 500h285q94 -230 120 -278l133 278h272
l-286 -464l-114 -286h-273l119 270l1 4z" />
    <glyph glyph-name="afii10193" unicode="&#x45f;" horiz-adv-x="882" 
d="M75 0v500h250v-303h232v303h250v-500h-259v-187h-216v187h-257z" />
    <glyph glyph-name="afii10146" unicode="&#x462;" horiz-adv-x="928" 
d="M421 149q45 -5 73 -5q81 0 116 24t35 55q0 24 -26.5 35t-105.5 11q-57 0 -92 -13v-107zM4 470v180h155v60h262v-60h371v-180h-371v-53q70 10 152 10q180 0 251 -47t71 -154q0 -35 -11 -68t-40 -67.5t-73 -60.5t-115.5 -42t-161.5 -16q-95 0 -179 7t-120 14l-36 7v470
h-155z" />
    <glyph glyph-name="afii10194" unicode="&#x463;" horiz-adv-x="826" 
d="M387 129q32 -2 42 -2q63 0 85.5 15.5t22.5 42.5q0 44 -84 44q-34 0 -66 -8v-92zM64 420v140h73v46l250 10v-56h242v-140h-242v-61h4q18 23 131 23q117 0 198.5 -51t81.5 -142q0 -105 -102 -161t-296 -56q-62 0 -129 7t-103 14l-35 7v420h-73z" />
    <glyph glyph-name="afii10050" unicode="&#x490;" horiz-adv-x="695" 
d="M92 0v650h429v147h200v-329h-366v-468h-263z" />
    <glyph glyph-name="afii10098" unicode="&#x491;" horiz-adv-x="546" 
d="M75 0v500h261l-9 131h203l12 -311h-217v-320h-250z" />
    <glyph glyph-name="uni2002" unicode="&#x2002;" horiz-adv-x="625" 
 />
    <glyph glyph-name="uni2003" unicode="&#x2003;" horiz-adv-x="1250" 
 />
    <glyph glyph-name="uni2004" unicode="&#x2004;" horiz-adv-x="416" 
 />
    <glyph glyph-name="uni2005" unicode="&#x2005;" horiz-adv-x="312" 
 />
    <glyph glyph-name="uni2009" unicode="&#x2009;" horiz-adv-x="250" 
 />
    <glyph glyph-name="uni200A" unicode="&#x200a;" horiz-adv-x="50" 
 />
    <glyph glyph-name="uni2011" unicode="&#x2011;" horiz-adv-x="524" 
d="M34 179v182h456v-182h-456z" />
    <glyph glyph-name="endash" unicode="&#x2013;" horiz-adv-x="836" 
d="M32 179v182h771v-182h-771z" />
    <glyph glyph-name="emdash" unicode="&#x2014;" horiz-adv-x="1073" 
d="M32 179v182h1009v-182h-1009z" />
    <glyph glyph-name="quoteleft" unicode="&#x2018;" horiz-adv-x="422" 
d="M99 464q0 123 143 297l140 -52q-33 -58 -55.5 -118t-22.5 -85l35 -103q-4 -5 -12.5 -11.5t-36.5 -18t-58 -11.5q-52 0 -92.5 28t-40.5 74z" />
    <glyph glyph-name="quoteright" unicode="&#x2019;" horiz-adv-x="422" 
d="M44 414q33 58 55.5 118t22.5 85l-35 103q4 5 12.5 11.5t36.5 18t58 11.5q52 0 92.5 -28t40.5 -74q0 -123 -143 -297z" />
    <glyph glyph-name="quotesinglbase" unicode="&#x201a;" horiz-adv-x="422" 
d="M44 -137q33 58 55.5 118t22.5 85l-35 103q4 5 12.5 11.5t36.5 18t58 11.5q52 0 92.5 -28t40.5 -74q0 -123 -143 -297z" />
    <glyph glyph-name="quotedblleft" unicode="&#x201c;" horiz-adv-x="727" 
d="M404 464q0 123 143 297l140 -52q-33 -58 -55.5 -118t-22.5 -85l35 -103q-4 -5 -12.5 -11.5t-36.5 -18t-58 -11.5q-52 0 -92.5 28t-40.5 74zM99 464q0 123 143 297l140 -52q-33 -58 -55.5 -118t-22.5 -85l35 -103q-4 -5 -12.5 -11.5t-36.5 -18t-58 -11.5q-52 0 -92.5 28
t-40.5 74z" />
    <glyph glyph-name="quotedblright" unicode="&#x201d;" horiz-adv-x="727" 
d="M349 414q33 58 55.5 118t22.5 85l-35 103q4 5 12.5 11.5t36.5 18t58 11.5q52 0 92.5 -28t40.5 -74q0 -123 -143 -297zM44 414q33 58 55.5 118t22.5 85l-35 103q4 5 12.5 11.5t36.5 18t58 11.5q52 0 92.5 -28t40.5 -74q0 -123 -143 -297z" />
    <glyph glyph-name="quotedblbase" unicode="&#x201e;" horiz-adv-x="727" 
d="M349 -137q33 58 55.5 118t22.5 85l-35 103q4 5 12.5 11.5t36.5 18t58 11.5q52 0 92.5 -28t40.5 -74q0 -123 -143 -297zM44 -137q33 58 55.5 118t22.5 85l-35 103q4 5 12.5 11.5t36.5 18t58 11.5q52 0 92.5 -28t40.5 -74q0 -123 -143 -297z" />
    <glyph glyph-name="dagger" unicode="&#x2020;" horiz-adv-x="785" 
d="M62 300v182h228v168h210v-168h221v-182h-199l-28 -550h-199l-28 550h-205z" />
    <glyph glyph-name="daggerdbl" unicode="&#x2021;" horiz-adv-x="785" 
d="M62 -82v182h224l46 100l-41 100h-229v182h228v168h210v-168h221v-182h-222l-49 -100l44 -100h227v-182h-226v-168h-210v168h-223z" />
    <glyph glyph-name="bullet" unicode="&#x2022;" horiz-adv-x="634" 
d="M103 398q0 80 57 136t143 56q85 0 142 -56t57 -136t-57 -135t-142 -55q-86 0 -143 55t-57 135z" />
    <glyph glyph-name="ellipsis" unicode="&#x2026;" horiz-adv-x="1486" 
d="M1111 99q0 53 38 90.5t95 37.5t95 -37.5t38 -90.5t-38 -90t-95 -37t-95 37t-38 90zM610 99q0 53 38 90.5t95 37.5t95 -37.5t38 -90.5t-38 -90t-95 -37t-95 37t-38 90zM109 99q0 53 38 90.5t95 37.5t95 -37.5t38 -90.5t-38 -90t-95 -37t-95 37t-38 90z" />
    <glyph glyph-name="perthousand" unicode="&#x2030;" horiz-adv-x="2148" 
d="M1754 211q0 -22 17.5 -39t55.5 -17q40 0 59.5 17.5t19.5 38.5q0 20 -20 36t-59 16q-36 0 -54.5 -16t-18.5 -36zM1544 210q0 96 80.5 165.5t202.5 69.5q120 0 203.5 -70t83.5 -165q0 -97 -80 -167.5t-207 -70.5q-130 0 -206.5 69.5t-76.5 168.5zM1113 211q0 -22 17.5 -39
t55.5 -17q40 0 59.5 17.5t19.5 38.5q0 20 -20 36t-59 16q-36 0 -54.5 -16t-18.5 -36zM903 210q0 96 80.5 165.5t202.5 69.5q120 0 203.5 -70t83.5 -165q0 -97 -80 -167.5t-207 -70.5q-130 0 -206.5 69.5t-76.5 168.5zM368 0l529 650h245l-528 -650h-246zM244 443
q0 -22 17.5 -39t55.5 -17q40 0 59.5 17.5t19.5 38.5q0 20 -20 36t-59 16q-36 0 -54.5 -16t-18.5 -36zM34 442q0 96 80.5 165.5t202.5 69.5q120 0 203.5 -70t83.5 -165q0 -97 -80 -167.5t-207 -70.5q-130 0 -206.5 69.5t-76.5 168.5z" />
    <glyph glyph-name="guilsinglleft" unicode="&#x2039;" horiz-adv-x="547" 
d="M115 250l249 203l98 -116l-120 -90l117 -92l-97 -113z" />
    <glyph glyph-name="guilsinglright" unicode="&#x203a;" horiz-adv-x="547" 
d="M84 158l120 89l-117 93l97 113l247 -208l-249 -203z" />
    <glyph glyph-name="fraction" unicode="&#x2044;" horiz-adv-x="731" 
d="M82 -76l429 771l152 -58l-429 -771z" />
    <glyph glyph-name="zerosuperior" unicode="&#x2070;" horiz-adv-x="591" 
d="M195 438q0 -48 22 -71.5t77 -23.5q101 0 101 95q0 99 -101 99q-99 0 -99 -99zM15 438q0 106 75 176t204 70t205.5 -70.5t76.5 -175.5q0 -104 -76.5 -173t-205.5 -69q-130 0 -204.5 68.5t-74.5 173.5z" />
    <glyph glyph-name="foursuperior" unicode="&#x2074;" horiz-adv-x="542" 
d="M151 414q25 1 69.5 3.5t63.5 2.5v45q6 16 6 43q-45 -18 -139 -94zM-10 297v123q65 59 151 121.5t139 94.5l54 33h126v-249h92v-123h-92v-83h-176v83h-294z" />
    <glyph glyph-name="fivesuperior" unicode="&#x2075;" horiz-adv-x="495" 
d="M-3 273l59 107q81 -46 151 -46q91 0 91 35q0 39 -107 39q-62 0 -111 -7h-3l19 268h347v-129q-112 0 -208 7l-3 -28h10q122 0 183.5 -43.5t61.5 -109.5q0 -73 -71 -120.5t-193 -47.5q-65 0 -121.5 19t-80.5 37z" />
    <glyph glyph-name="sixsuperior" unicode="&#x2076;" horiz-adv-x="544" 
d="M196 383q0 -19 16.5 -35.5t59.5 -16.5q70 0 70 36q0 35 -65 35q-39 0 -81 -14v-5zM15 383q0 85 52.5 153.5t131.5 104.5t166 40l41 -122q-120 -7 -167 -53q44 14 83 14q88 0 145 -43t57 -94q0 -79 -75 -132t-192 -53q-114 0 -178 54.5t-64 130.5z" />
    <glyph glyph-name="sevensuperior" unicode="&#x2077;" horiz-adv-x="467" 
d="M-6 529v140h478v-98q-12 -16 -33.5 -45t-77.5 -122.5t-102 -189.5h-205q67 141 189 322q-124 -7 -249 -7z" />
    <glyph glyph-name="eightsuperior" unicode="&#x2078;" horiz-adv-x="560" 
d="M214 543q0 -19 72 -43q64 24 64 43q0 15 -19.5 24t-48.5 9t-48.5 -9t-19.5 -24zM196 354q0 -42 86 -42q85 0 85 42q0 32 -109 46q-62 -23 -62 -46zM17 349q0 68 98 102q-73 46 -73 105q0 58 67 96t173 38q105 0 171.5 -38t66.5 -96q0 -61 -75 -96q102 -40 102 -111
q0 -74 -69.5 -113.5t-195.5 -39.5t-195.5 39.5t-69.5 113.5z" />
    <glyph glyph-name="ninesuperior" unicode="&#x2079;" horiz-adv-x="544" 
d="M200 514q0 -35 64 -35q42 0 81 13v6q0 52 -76 52q-69 0 -69 -36zM18 509q0 77 73.5 126t192.5 49q115 0 179 -56t64 -130q0 -84 -58.5 -154.5t-142 -109t-171.5 -45.5l-48 124q114 10 174 56q-32 -8 -62 -8q-93 0 -147 40t-54 108z" />
    <glyph glyph-name="zerosub" unicode="&#x2080;" horiz-adv-x="591" 
d="M195 18q0 -48 22 -71.5t77 -23.5q101 0 101 95q0 99 -101 99q-99 0 -99 -99zM15 18q0 106 75 176t204 70t205.5 -70.5t76.5 -175.5q0 -104 -76.5 -173t-205.5 -69q-130 0 -204.5 68.5t-74.5 173.5z" />
    <glyph glyph-name="onesub" unicode="&#x2081;" horiz-adv-x="429" 
d="M-16 92q48 41 98.5 80t76.5 58l26 19h182v-455h-182v284q-78 -62 -123 -92z" />
    <glyph glyph-name="twosub" unicode="&#x2082;" horiz-adv-x="539" 
d="M31 -71l16.5 5.5t40.5 14.5t57 22t60.5 26.5t57.5 29.5t40.5 29.5t16.5 28.5q0 23 -26 33t-84 10q-26 0 -64.5 -3.5t-63.5 -6.5l-26 -4v125q70 30 203 30q120 0 181.5 -47t61.5 -120q0 -117 -222 -194q119 17 227 17v-136h-476v140z" />
    <glyph glyph-name="threesub" unicode="&#x2083;" horiz-adv-x="507" 
d="M6 -143l69 115q8 -6 22 -16t55.5 -26t80.5 -16q79 0 79 31q0 33 -114 33l-64 86q24 17 82 62q-77 -6 -151 -6v129h391v-94q-50 -41 -114 -86q157 -25 157 -127q0 -79 -70.5 -121.5t-181.5 -42.5q-75 0 -135 20t-83 40z" />
    <glyph glyph-name="foursub" unicode="&#x2084;" horiz-adv-x="542" 
d="M151 -6q13 1 61 3l72 3v45q6 16 6 43q-45 -18 -139 -94zM-10 0q65 59 151 121.5t139 94.5l54 33h126v-249h92v-123h-92v-83h-176v83h-294v123z" />
    <glyph glyph-name="fivesub" unicode="&#x2085;" horiz-adv-x="495" 
d="M-3 -147l59 107q81 -46 151 -46q91 0 91 35q0 39 -107 39q-27 0 -111 -6l-3 -1l19 268h347v-129q-112 0 -208 7l-3 -28h10q122 0 183.5 -43.5t61.5 -109.5q0 -73 -71 -120.5t-193 -47.5q-65 0 -121.5 19t-80.5 37z" />
    <glyph glyph-name="sixsub" unicode="&#x2086;" horiz-adv-x="544" 
d="M196 -32v-5q0 -19 16.5 -35.5t59.5 -16.5q70 0 70 36q0 35 -65 35q-39 0 -81 -14zM15 -37q0 85 52.5 153.5t131.5 104.5t166 40l41 -122q-120 -7 -167 -53q44 14 83 14q88 0 145 -43t57 -94q0 -79 -75 -132t-192 -53q-114 0 -178 54.5t-64 130.5z" />
    <glyph glyph-name="sevensub" unicode="&#x2087;" horiz-adv-x="467" 
d="M-6 109v140h478v-98q-12 -16 -33.5 -45t-77.5 -122.5t-102 -189.5h-205q65 138 189 322q-124 -7 -249 -7z" />
    <glyph glyph-name="eightsub" unicode="&#x2088;" horiz-adv-x="560" 
d="M214 123q0 -19 72 -43q64 24 64 43q0 15 -19.5 24t-48.5 9t-48.5 -9t-19.5 -24zM196 -66q0 -42 86 -42q85 0 85 42q0 21 -40.5 32.5t-68.5 13.5q-62 -21 -62 -46zM17 -71q0 68 98 102q-73 46 -73 105q0 58 67 96t173 38q105 0 171.5 -38t66.5 -96q0 -61 -75 -96
q102 -40 102 -111q0 -74 -69.5 -113.5t-195.5 -39.5t-195.5 39.5t-69.5 113.5z" />
    <glyph glyph-name="ninesub" unicode="&#x2089;" horiz-adv-x="544" 
d="M200 94q0 -35 64 -35q42 0 81 13v6q0 52 -76 52q-69 0 -69 -36zM18 89q0 77 73.5 126t192.5 49q115 0 179 -56t64 -130q0 -84 -58.5 -154.5t-142 -109t-171.5 -45.5l-48 124q114 10 174 56q-32 -8 -62 -8q-93 0 -147 40t-54 108z" />
    <glyph glyph-name="Euro" unicode="&#x20ac;" horiz-adv-x="816" 
d="M45 192v117h71v14q0 18 1 27h-72v117h109q51 93 157 151.5t256 58.5q51 0 103 -6.5t79 -13.5l27 -7v-160q-79 17 -196 17q-102 0 -153 -40h289v-117h-343q-1 -9 -1 -27v-14h344v-117h-301q46 -46 136 -46q60 0 117.5 16t85.5 32l27 16l44 -125q-3 -5 -9 -12.5t-31 -27
t-55 -34.5t-83.5 -27t-115.5 -12q-139 0 -239.5 62t-145.5 158h-101z" />
    <glyph glyph-name="uni20B4" unicode="&#x20b4;" horiz-adv-x="725" 
d="M349 181q0 -28 54 -28q88 0 183 39h-235q-2 -4 -2 -11zM27 192v117h222l52 41h-274v117h372q1 2 1 7q0 12 -17 17t-62 5q-47 0 -95.5 -6t-73.5 -12l-26 -6v153q13 6 37 14.5t96.5 23t143.5 14.5q92 0 155 -49t63 -124q0 -17 -5 -37h81v-117h-161q-12 -11 -51 -41h212
v-117h-89l52 -117q-5 -4 -13 -11t-36.5 -25t-58.5 -31.5t-76.5 -24.5t-93.5 -11q-130 0 -192.5 41t-62.5 127q0 24 13 52h-113z" />
    <glyph glyph-name="afii61352" unicode="&#x2116;" horiz-adv-x="1614" 
d="M1227 396q0 -55 79 -55q80 0 80 54q0 53 -80 53q-79 0 -79 -52zM1076 -53v182h456v-182h-456zM1034 395q0 87 76 141t196 54q121 0 197.5 -54t76.5 -141t-76.5 -141.5t-197.5 -54.5q-120 0 -196 54.5t-76 141.5zM92 0v650h209l386 -342l-2 104v238h226v-650h-220
l-374 318l2 -42v-276h-227z" />
    <glyph glyph-name="trademark" unicode="&#x2122;" horiz-adv-x="1249" 
d="M555 400l14 58q14 58 35.5 146.5t34.5 145.5h167l80 -209l114 209h154l50 -350h-149l-25 160l-90 -160h-131l-76 175l-23 -175h-155zM62 620v130h503v-129l-176 -1v-220h-159v220h-168z" />
    <glyph glyph-name="onethird" unicode="&#x2153;" horiz-adv-x="1217" 
d="M715 -143l69 115q8 -6 22 -16t55.5 -26t80.5 -16q79 0 79 31q0 33 -114 33l-64 86q24 17 82 62q-77 -6 -151 -6v129h391v-94q-50 -41 -114 -86q157 -25 157 -127q0 -79 -70.5 -121.5t-181.5 -42.5q-75 0 -135 20t-83 40zM319 -76l429 771l152 -58l-429 -771zM-16 512
q48 41 98.5 80t76.5 58l26 19h182v-455h-182v284q-78 -62 -123 -92z" />
    <glyph glyph-name="twothirds" unicode="&#x2154;" horiz-adv-x="1324" 
d="M822 -143l69 115q8 -6 22 -16t55.5 -26t80.5 -16q79 0 79 31q0 33 -114 33l-64 86q24 17 82 62q-76 -6 -151 -6v129h391v-94q-50 -41 -114 -86q157 -25 157 -127q0 -79 -70.5 -121.5t-181.5 -42.5q-75 0 -135 20t-83 40zM426 -76l429 771l152 -58l-429 -771zM31 209v140
l16.5 5.5t40.5 14.5t57 22t60.5 26.5t57.5 29.5t40.5 29.5t16.5 28.5q0 23 -26 33t-84 10q-26 0 -64.5 -3.5t-63.5 -6.5l-26 -4v125q70 30 203 30q120 0 181.5 -47t61.5 -120q0 -117 -222 -194q119 17 227 17v-136h-476z" />
    <glyph glyph-name="oneeighth" unicode="&#x215b;" horiz-adv-x="1269" 
d="M923 123q0 -19 72 -43q64 24 64 43q0 15 -19.5 24t-48.5 9t-48.5 -9t-19.5 -24zM905 -66q0 -42 86 -42q85 0 85 42q0 21 -40.5 32.5t-68.5 13.5q-62 -21 -62 -46zM726 -71q0 68 98 102q-73 46 -73 105q0 58 67 96t173 38q105 0 171.5 -38t66.5 -96q0 -61 -75 -96
q102 -40 102 -111q0 -74 -69.5 -113.5t-195.5 -39.5t-195.5 39.5t-69.5 113.5zM319 -76l429 771l152 -58l-429 -771zM-16 512q48 41 98.5 80t76.5 58l26 19h182v-455h-182v284q-78 -62 -123 -92z" />
    <glyph glyph-name="threeeighths" unicode="&#x215c;" horiz-adv-x="1376" 
d="M1030 123q0 -19 72 -43q64 24 64 43q0 15 -19.5 24t-48.5 9t-48.5 -9t-19.5 -24zM1012 -66q0 -42 86 -42q85 0 85 42q0 21 -40.5 32.5t-68.5 13.5q-62 -21 -62 -46zM833 -71q0 68 98 102q-73 46 -73 105q0 58 67 96t173 38q105 0 171.5 -38t66.5 -96q0 -61 -75 -96
q102 -40 102 -111q0 -74 -69.5 -113.5t-195.5 -39.5t-195.5 39.5t-69.5 113.5zM426 -76l429 771l152 -58l-429 -771zM6 277l69 115q8 -6 22 -16t55.5 -26t80.5 -16q79 0 79 31q0 33 -114 33l-64 86q24 17 82 62q-76 -6 -151 -6v129h391v-94q-50 -41 -114 -86
q157 -25 157 -127q0 -79 -70.5 -121.5t-181.5 -42.5q-75 0 -135 20t-83 40z" />
    <glyph glyph-name="fiveeighths" unicode="&#x215d;" horiz-adv-x="1359" 
d="M1011 123q0 -19 72 -43q64 24 64 43q0 15 -19.5 24t-48.5 9t-48.5 -9t-19.5 -24zM993 -66q0 -42 86 -42q85 0 85 42q0 21 -40.5 32.5t-68.5 13.5q-62 -21 -62 -46zM814 -71q0 68 98 102q-73 46 -73 105q0 58 67 96t173 38q105 0 171.5 -38t66.5 -96q0 -61 -75 -96
q102 -40 102 -111q0 -74 -69.5 -113.5t-195.5 -39.5t-195.5 39.5t-69.5 113.5zM408 -76l429 771l152 -58l-429 -771zM-3 273l59 107q81 -46 151 -46q91 0 91 35q0 39 -107 39q-62 0 -111 -7h-3l19 268h347v-129q-112 0 -208 7l-3 -28h10q122 0 183.5 -43.5t61.5 -109.5
q0 -73 -71 -120.5t-193 -47.5q-65 0 -121.5 19t-80.5 37z" />
    <glyph glyph-name="seveneighths" unicode="&#x215e;" horiz-adv-x="1257" 
d="M911 123q0 -19 72 -43q64 24 64 43q0 15 -19.5 24t-48.5 9t-48.5 -9t-19.5 -24zM893 -66q0 -42 86 -42q85 0 85 42q0 21 -40.5 32.5t-68.5 13.5q-62 -21 -62 -46zM714 -71q0 68 98 102q-73 46 -73 105q0 58 67 96t173 38q105 0 171.5 -38t66.5 -96q0 -61 -75 -96
q102 -40 102 -111q0 -74 -69.5 -113.5t-195.5 -39.5t-195.5 39.5t-69.5 113.5zM307 -76l429 771l152 -58l-429 -771zM-6 529v140h478v-98q-12 -16 -33.5 -45t-77.5 -122.5t-102 -189.5h-205q67 141 189 322q-124 -7 -249 -7z" />
    <glyph glyph-name="arrowleft" unicode="&#x2190;" horiz-adv-x="913" 
d="M51 273l393 303l37 -142l-114 -92l512 20v-177l-513 19l115 -92l-37 -142z" />
    <glyph glyph-name="arrowup" unicode="&#x2191;" horiz-adv-x="787" 
d="M32 387l362 325l361 -325l-155 -44l-112 80l12 -458h-213l13 460l-113 -82z" />
    <glyph glyph-name="arrowright" unicode="&#x2192;" horiz-adv-x="913" 
d="M34 184v177l512 -20l-115 93l38 142l392 -303l-392 -303l-38 142l114 91z" />
    <glyph glyph-name="arrowdown" unicode="&#x2193;" horiz-adv-x="787" 
d="M47 263l140 59l112 -87l-12 450h213l-14 -451l114 88l140 -59l-347 -325z" />
    <glyph glyph-name="st" unicode="&#xfb06;" horiz-adv-x="1237" 
d="M20 55l75 152q15 -9 39.5 -22t87 -34.5t108.5 -21.5q30 0 30 5q0 6 -31.5 14.5t-76 21t-89 31.5t-76 55.5t-31.5 83.5q0 83 86.5 135t213.5 52h18q-21 36 -21 80q0 59 53.5 98.5t166.5 39.5h387v-245h244v-180h-244v-96q0 -24 16.5 -40.5t50.5 -16.5q23 0 67 8.5t77 17.5
l33 9v-153q-4 -3 -11 -8.5t-33 -18.5t-54.5 -23t-75 -18.5t-95.5 -8.5q-115 0 -170 54.5t-55 182.5v402h-128q-42 0 -59 -9.5t-17 -41.5q0 -24 22 -39t44 -19l21 -3l-3 -3l3 -1v-167q-126 44 -222 44q-51 0 -51 -10q0 -8 31.5 -15t76 -17.5t89 -27.5t76 -51.5t31.5 -81.5
q0 -85 -74 -141t-204 -56q-104 0 -185.5 21t-110.5 41z" />
    <glyph glyph-name="onefifth" horiz-adv-x="1204" 
d="M706 -147l59 107q81 -46 151 -46q91 0 91 35q0 39 -107 39q-27 0 -111 -6l-3 -1l19 268h347v-129q-112 0 -208 7l-3 -28h10q122 0 183.5 -43.5t61.5 -109.5q0 -73 -71 -120.5t-193 -47.5q-65 0 -121.5 19t-80.5 37zM319 -76l429 771l152 -58l-429 -771zM-16 512
q48 41 98.5 80t76.5 58l26 19h182v-455h-182v284q-78 -62 -123 -92z" />
    <glyph glyph-name="twofifths" horiz-adv-x="1311" 
d="M813 -147l59 107q81 -46 151 -46q91 0 91 35q0 39 -107 39q-27 0 -111 -6l-3 -1l19 268h347v-129q-112 0 -208 7l-3 -28h10q122 0 183.5 -43.5t61.5 -109.5q0 -73 -71 -120.5t-193 -47.5q-65 0 -121.5 19t-80.5 37zM426 -76l429 771l152 -58l-429 -771zM31 209v140
l16.5 5.5t40.5 14.5t57 22t60.5 26.5t57.5 29.5t40.5 29.5t16.5 28.5q0 23 -26 33t-84 10q-26 0 -64.5 -3.5t-63.5 -6.5l-26 -4v125q70 30 203 30q120 0 181.5 -47t61.5 -120q0 -117 -222 -194q119 17 227 17v-136h-476z" />
    <glyph glyph-name="threefifths" horiz-adv-x="1311" 
d="M813 -147l59 107q81 -46 151 -46q91 0 91 35q0 39 -107 39q-27 0 -111 -6l-3 -1l19 268h347v-129q-112 0 -208 7l-3 -28h10q122 0 183.5 -43.5t61.5 -109.5q0 -73 -71 -120.5t-193 -47.5q-65 0 -121.5 19t-80.5 37zM426 -76l429 771l152 -58l-429 -771zM6 277l69 115
q8 -6 22 -16t55.5 -26t80.5 -16q79 0 79 31q0 33 -114 33l-64 86q24 17 82 62q-76 -6 -151 -6v129h391v-94q-50 -41 -114 -86q157 -25 157 -127q0 -79 -70.5 -121.5t-181.5 -42.5q-75 0 -135 20t-83 40z" />
    <glyph glyph-name="fourfifths" horiz-adv-x="1311" 
d="M813 -147l59 107q81 -46 151 -46q91 0 91 35q0 39 -107 39q-27 0 -111 -6l-3 -1l19 268h347v-129q-112 0 -208 7l-3 -28h10q122 0 183.5 -43.5t61.5 -109.5q0 -73 -71 -120.5t-193 -47.5q-65 0 -121.5 19t-80.5 37zM426 -76l429 771l152 -58l-429 -771zM151 414
q25 1 69.5 3.5t63.5 2.5v45q6 16 6 43q-45 -18 -139 -94zM-10 297v123q65 59 151 121.5t139 94.5l54 33h126v-249h92v-123h-92v-83h-176v83h-294z" />
    <glyph glyph-name="ct" horiz-adv-x="1248" 
d="M27 236q0 136 102 211.5t256 79.5q-21 36 -21 80q0 59 53.5 98.5t166.5 39.5h387v-245h244v-180h-244v-96q0 -24 16.5 -40.5t50.5 -16.5q23 0 67 8.5t77 17.5l33 9v-153q-4 -3 -11 -8.5t-33 -18.5t-54.5 -23t-75 -18.5t-95.5 -8.5q-115 0 -170 54.5t-55 182.5v402h-128
q-42 0 -59 -9.5t-17 -41.5q0 -33 42 -51l45 -10v-184q-94 27 -184 27q-125 0 -125 -87q0 -45 29.5 -72.5t88.5 -27.5q49 0 98.5 17t74.5 34l25 18l65 -129q-3 -5 -9 -13.5t-30.5 -29.5t-54 -37t-81 -29.5t-111.5 -13.5q-164 0 -263.5 72.5t-99.5 191.5z" />
    <glyph glyph-name="halfcaron" horiz-adv-x="549" 
d="M145 587l90 207l140 -63l-94 -196z" />
    <glyph glyph-name="commaaccent" horiz-adv-x="382" 
d="M9 -249q60 113 60 197l146 -20q0 -39 -21.5 -98t-53.5 -102z" />
    <glyph glyph-name="a.alt" 
d="M296 256q0 -38 28.5 -68t87.5 -30q79 0 113 17v173q-25 5 -44 5q-103 0 -144 -24.5t-41 -72.5zM27 231q0 123 119.5 209.5t311.5 86.5q55 0 108 -6.5t89 -15.5t64.5 -18.5t42.5 -16.5l13 -6v-464h-240l-3 22h-12q-14 -18 -63 -34t-135 -16q-145 0 -220 72t-75 187z" />
    <glyph glyph-name="aring.alt" horiz-adv-x="844" 
d="M388 707q0 -19 15 -32.5t40 -13.5t40 13t15 33q0 18 -16 31t-39 13t-39 -13t-16 -31zM296 256q0 -38 28.5 -68t87.5 -30q79 0 113 17v173q-25 5 -44 5q-103 0 -144 -24.5t-41 -72.5zM273 706q0 65 47 107.5t123 42.5q73 0 121.5 -43t48.5 -107q0 -65 -47 -108.5
t-123 -43.5q-80 0 -125 43t-45 109zM27 231q0 123 119.5 209.5t311.5 86.5q55 0 108 -6.5t89 -15.5t64.5 -18.5t42.5 -16.5l13 -6v-464h-240l-3 22h-12q-14 -18 -63 -34t-135 -16q-145 0 -220 72t-75 187z" />
    <glyph glyph-name="agrave.alt" horiz-adv-x="844" 
d="M296 256q0 -38 28.5 -68t87.5 -30q79 0 113 17v173q-25 5 -44 5q-103 0 -144 -24.5t-41 -72.5zM258 699l111 125l199 -170l-81 -94zM27 231q0 123 119.5 209.5t311.5 86.5q55 0 108 -6.5t89 -15.5t64.5 -18.5t42.5 -16.5l13 -6v-464h-240l-3 22h-12q-14 -18 -63 -34
t-135 -16q-145 0 -220 72t-75 187z" />
    <glyph glyph-name="adieresis.alt" horiz-adv-x="844" 
d="M454 698q0 44 39 82t93 38q56 0 95 -38t39 -82t-39 -81.5t-95 -37.5q-55 0 -93.5 37.5t-38.5 81.5zM296 256q0 -38 28.5 -68t87.5 -30q79 0 113 17v173q-25 5 -44 5q-103 0 -144 -24.5t-41 -72.5zM154 698q0 44 38.5 82t93.5 38q56 0 94.5 -38t38.5 -82t-38.5 -81.5
t-94.5 -37.5q-55 0 -93.5 37.5t-38.5 81.5zM27 231q0 123 119.5 209.5t311.5 86.5q55 0 108 -6.5t89 -15.5t64.5 -18.5t42.5 -16.5l13 -6v-464h-240l-3 22h-12q-14 -18 -63 -34t-135 -16q-145 0 -220 72t-75 187z" />
    <glyph glyph-name="aogonek.alt" horiz-adv-x="844" 
d="M296 256q0 -38 28.5 -68t87.5 -30q79 0 113 17v173q-25 5 -44 5q-103 0 -144 -24.5t-41 -72.5zM27 231q0 123 119.5 209.5t311.5 86.5q55 0 108 -6.5t89 -15.5t64.5 -18.5t42.5 -16.5l13 -6v-464h-5q-5 -1 -13.5 -2.5t-30 -8.5t-37.5 -17t-29.5 -29.5t-13.5 -44.5
t19.5 -32t75.5 -7v-114q-123 0 -197.5 34t-74.5 109q0 64 81 112h-15l-3 22h-12q-14 -18 -63 -34t-135 -16q-145 0 -220 72t-75 187z" />
    <glyph glyph-name="abreve.alt" horiz-adv-x="844" 
d="M296 256q0 -38 28.5 -68t87.5 -30q79 0 113 17v173q-25 5 -44 5q-103 0 -144 -24.5t-41 -72.5zM187 671l88 142q3 -3 8 -8.5t21.5 -19.5t35 -24.5t46.5 -19t57 -8.5t57.5 8t48 20t34.5 24t23 20l7 8l88 -145q-4 -4 -10.5 -11.5t-30.5 -26.5t-51.5 -33.5t-72.5 -26.5
t-93 -12t-91.5 11.5t-72.5 28t-50.5 33.5t-31.5 29zM27 231q0 123 119.5 209.5t311.5 86.5q55 0 108 -6.5t89 -15.5t64.5 -18.5t42.5 -16.5l13 -6v-464h-240l-3 22h-12q-14 -18 -63 -34t-135 -16q-145 0 -220 72t-75 187z" />
    <glyph glyph-name="aacute.alt" horiz-adv-x="844" 
d="M301 654l199 170l111 -125l-229 -139zM296 256q0 -38 28.5 -68t87.5 -30q79 0 113 17v173q-25 5 -44 5q-103 0 -144 -24.5t-41 -72.5zM27 231q0 123 119.5 209.5t311.5 86.5q55 0 108 -6.5t89 -15.5t64.5 -18.5t42.5 -16.5l13 -6v-464h-240l-3 22h-12q-14 -18 -63 -34
t-135 -16q-145 0 -220 72t-75 187z" />
    <glyph glyph-name="amacron.alt" horiz-adv-x="844" 
d="M296 256q0 -38 28.5 -68t87.5 -30q79 0 113 17v173q-25 5 -44 5q-103 0 -144 -24.5t-41 -72.5zM256 589v121h357v-121h-357zM27 231q0 123 119.5 209.5t311.5 86.5q55 0 108 -6.5t89 -15.5t64.5 -18.5t42.5 -16.5l13 -6v-464h-240l-3 22h-12q-14 -18 -63 -34t-135 -16
q-145 0 -220 72t-75 187z" />
    <glyph glyph-name="acircumflex.alt" horiz-adv-x="844" 
d="M296 256q0 -38 28.5 -68t87.5 -30q79 0 113 17v173q-25 5 -44 5q-103 0 -144 -24.5t-41 -72.5zM209 702l235 131l236 -131l-84 -137l-152 97l-152 -97zM27 231q0 123 119.5 209.5t311.5 86.5q55 0 108 -6.5t89 -15.5t64.5 -18.5t42.5 -16.5l13 -6v-464h-240l-3 22h-12
q-14 -18 -63 -34t-135 -16q-145 0 -220 72t-75 187z" />
    <glyph glyph-name="atilde.alt" horiz-adv-x="844" 
d="M296 256q0 -38 28.5 -68t87.5 -30q79 0 113 17v173q-25 5 -44 5q-103 0 -144 -24.5t-41 -72.5zM198 705q3 5 8.5 13t23 28.5t34.5 36.5t42 29t47 13q41 0 71.5 -9t46 -20t38 -20t48.5 -9q28 0 52.5 7t34.5 14l10 7l37 -98q-1 -4 -4 -11.5t-14.5 -25.5t-25.5 -32
t-39 -25.5t-54 -11.5q-55 0 -107 27t-94 27q-27 0 -56 -12.5t-45 -24.5l-15 -13zM27 231q0 123 119.5 209.5t311.5 86.5q55 0 108 -6.5t89 -15.5t64.5 -18.5t42.5 -16.5l13 -6v-464h-240l-3 22h-12q-14 -18 -63 -34t-135 -16q-145 0 -220 72t-75 187z" />
    <glyph glyph-name="g.alt" 
d="M296 256q0 -38 28.5 -68t87.5 -30q79 0 113 17v173q-25 5 -44 5q-103 0 -144 -24.5t-41 -72.5zM27 231q0 123 119.5 209.5t311.5 86.5q55 0 108 -6.5t89 -15.5t64.5 -18.5t42.5 -16.5l13 -6v-383q0 -76 -23.5 -137.5t-64 -102.5t-96.5 -68.5t-119 -39.5t-133 -12
q-60 0 -112.5 7t-84.5 17t-55 20t-33 17l-9 7l85 172q11 -6 30.5 -15t76 -23.5t108.5 -14.5q79 0 123.5 33t53.5 81h-2q-14 -18 -63 -34t-135 -16q-145 0 -220 72t-75 187z" />
    <glyph glyph-name="gcommaaccent.alt" horiz-adv-x="844" 
d="M387 598q0 37 24 96t56 104l134 -18q-60 -113 -60 -197zM296 256q0 -38 28.5 -68t87.5 -30q79 0 113 17v173q-25 5 -44 5q-103 0 -144 -24.5t-41 -72.5zM27 231q0 123 119.5 209.5t311.5 86.5q55 0 108 -6.5t89 -15.5t64.5 -18.5t42.5 -16.5l13 -6v-383
q0 -76 -23.5 -137.5t-64 -102.5t-96.5 -68.5t-119 -39.5t-133 -12q-60 0 -112.5 7t-84.5 17t-55 20t-33 17l-9 7l85 172q11 -6 30.5 -15t76 -23.5t108.5 -14.5q79 0 123.5 33t53.5 81h-2q-14 -18 -63 -34t-135 -16q-145 0 -220 72t-75 187z" />
    <glyph glyph-name="gbreve.alt" horiz-adv-x="844" 
d="M296 256q0 -38 28.5 -68t87.5 -30q79 0 113 17v173q-25 5 -44 5q-103 0 -144 -24.5t-41 -72.5zM183 671l88 142q3 -3 8 -8.5t21.5 -19.5t35 -24.5t46.5 -19t57 -8.5t57.5 8t48 20t34.5 24t23 20l7 8l88 -145q-4 -4 -10.5 -11.5t-30.5 -26.5t-51.5 -33.5t-72.5 -26.5
t-93 -12t-91.5 11.5t-72.5 28t-50.5 33.5t-31.5 29zM27 231q0 123 119.5 209.5t311.5 86.5q55 0 108 -6.5t89 -15.5t64.5 -18.5t42.5 -16.5l13 -6v-383q0 -76 -23.5 -137.5t-64 -102.5t-96.5 -68.5t-119 -39.5t-133 -12q-60 0 -112.5 7t-84.5 17t-55 20t-33 17l-9 7l85 172
q11 -6 30.5 -15t76 -23.5t108.5 -14.5q79 0 123.5 33t53.5 81h-2q-14 -18 -63 -34t-135 -16q-145 0 -220 72t-75 187z" />
    <glyph glyph-name="afii10065.alt" horiz-adv-x="844" 
d="M296 256q0 -38 28.5 -68t87.5 -30q79 0 113 17v173q-25 5 -44 5q-103 0 -144 -24.5t-41 -72.5zM27 231q0 123 119.5 209.5t311.5 86.5q55 0 108 -6.5t89 -15.5t64.5 -18.5t42.5 -16.5l13 -6v-464h-240l-3 22h-12q-14 -18 -63 -34t-135 -16q-145 0 -220 72t-75 187z" />
    <glyph glyph-name="afii10069.alt" horiz-adv-x="844" 
d="M296 256q0 -38 28.5 -68t87.5 -30q79 0 113 17v173q-25 5 -44 5q-103 0 -144 -24.5t-41 -72.5zM27 231q0 123 119.5 209.5t311.5 86.5q55 0 108 -6.5t89 -15.5t64.5 -18.5t42.5 -16.5l13 -6v-383q0 -76 -23.5 -137.5t-64 -102.5t-96.5 -68.5t-119 -39.5t-133 -12
q-60 0 -112.5 7t-84.5 17t-55 20t-33 17l-9 7l85 172q11 -6 30.5 -15t76 -23.5t108.5 -14.5q79 0 123.5 33t53.5 81h-2q-14 -18 -63 -34t-135 -16q-145 0 -220 72t-75 187z" />
    <glyph glyph-name="zero.onum" horiz-adv-x="867" 
d="M292 248q0 -36 33.5 -61t108.5 -25q74 0 108 25t34 61t-34.5 62.5t-107.5 26.5q-71 0 -106.5 -27t-35.5 -62zM34 248q0 116 108.5 197.5t291.5 81.5q182 0 291.5 -81.5t109.5 -197.5t-109 -196t-292 -80q-184 0 -292 80t-108 196z" />
    <glyph glyph-name="one.onum" horiz-adv-x="620" 
d="M-15 276q68 58 139.5 114t109.5 83l37 27h263v-500h-263v255q-103 -83 -175 -131z" />
    <glyph glyph-name="two.onum" horiz-adv-x="662" 
d="M21 0v181q321 69 321 115q0 33 -100 33q-31 0 -71.5 -5.5t-65.5 -10.5l-25 -5v191q83 28 243 28q139 0 218 -51t79 -143q0 -81 -80 -143q3 0 9.5 0.5t9.5 0.5h70v-191h-608z" />
    <glyph glyph-name="three.onum" horiz-adv-x="739" 
d="M40 -104l62 164q97 -42 222 -42q113 0 113 47t-162 47l-91 123q46 33 114 86q-94 -6 -214 -6v185h560v-135q-70 -56 -163 -122q225 -36 225 -182q0 -76 -49 -131t-129 -81.5t-182 -26.5q-67 0 -123.5 7.5t-88.5 18.5t-55 22t-31 18z" />
    <glyph glyph-name="four.onum" horiz-adv-x="820" 
d="M246 157q26 1 89.5 3.5t94.5 3.5v84q1 7 1 18q0 18 -4 30h-3q-60 -42 -178 -139zM9 0v165q95 80 217.5 163.5t197.5 127.5l76 44h180v-335h131v-165h-131v-150h-250v150h-421z" />
    <glyph glyph-name="five.onum" horiz-adv-x="739" 
d="M70 -130l35 171q126 -23 183 -23q82 0 115 12t33 38q0 56 -154 56q-56 0 -158 -12h-4q5 109 12 206t11 140l4 42h497v-185q-167 0 -299 10q-1 -18 -5 -58h15q176 0 263.5 -56t87.5 -147q0 -106 -103.5 -174t-285.5 -68q-79 0 -140.5 12t-84.5 24z" />
    <glyph glyph-name="six.onum" horiz-adv-x="781" 
d="M293 237q0 -27 23.5 -50.5t84.5 -23.5q45 0 72 13.5t27 37.5q0 50 -91 50q-56 0 -116 -20v-7zM34 237q0 91 48 172t125 136t169.5 89.5t185.5 42.5l57 -174q-175 -16 -254 -87q53 16 107 16q126 0 207 -62t81 -134q0 -113 -106.5 -188.5t-273.5 -75.5q-164 0 -255 77.5
t-91 187.5z" />
    <glyph glyph-name="seven.onum" horiz-adv-x="701" 
d="M9 300v200h683v-140q-8 -8 -23 -23.5t-55.5 -66.5t-77 -106.5t-79.5 -141t-70 -172.5h-293q63 200 253 460q-165 -10 -338 -10z" />
    <glyph glyph-name="eight.onum" horiz-adv-x="822" 
d="M316 467q0 -27 101 -63q92 35 92 63q0 22 -27.5 34t-69.5 12t-69 -12t-27 -34zM290 197q0 -60 122 -60t122 60q0 16 -19 28.5t-49 20t-49.5 11t-36.5 5.5q-90 -31 -90 -65zM34 190q0 97 141 146q-105 62 -105 149q0 83 95.5 137.5t246.5 54.5t246 -54.5t95 -137.5
q0 -88 -108 -137q146 -56 146 -158q0 -107 -99 -162.5t-280 -55.5q-180 0 -279 55.5t-99 162.5z" />
    <glyph glyph-name="nine.onum" horiz-adv-x="781" 
d="M282 285q0 -50 90 -50q59 0 116 19v8q0 74 -108 74q-98 0 -98 -51zM21 278q0 109 104.5 179t275.5 70q165 0 255.5 -80t90.5 -185q0 -91 -50 -172t-129 -136t-170 -89.5t-179 -42.5l-57 174q158 14 242 84q-49 -13 -95 -13q-134 0 -211 56.5t-77 154.5z" />
    <glyph glyph-name="y.alt" horiz-adv-x="829" 
d="M30 -211l85 172q11 -6 30.5 -15t76 -23.5t108.5 -14.5q90 0 135 42.5t45 96.5v3h-4q-2 -3 -6 -8.5t-20.5 -19t-37 -23.5t-56 -18.5t-76.5 -8.5q-117 0 -182 69t-65 181v278h250v-276q0 -24 21.5 -43t62.5 -19q33 0 61.5 18t39.5 36l12 17v267h250v-419
q0 -76 -23.5 -137.5t-64 -102.5t-96.5 -68.5t-119 -39.5t-133 -12q-60 0 -112.5 7t-84.5 17t-55 20t-32 17z" />
    <glyph glyph-name="yacute.alt" horiz-adv-x="829" 
d="M275 654l199 170l111 -125l-229 -139zM30 -211l85 172q11 -6 30.5 -15t76 -23.5t108.5 -14.5q90 0 135 42.5t45 96.5v3h-4q-2 -3 -6 -8.5t-20.5 -19t-37 -23.5t-56 -18.5t-76.5 -8.5q-117 0 -182 69t-65 181v278h250v-276q0 -24 21.5 -43t62.5 -19q33 0 61.5 18t39.5 36
l12 17v267h250v-419q0 -76 -23.5 -137.5t-64 -102.5t-96.5 -68.5t-119 -39.5t-133 -12q-60 0 -112.5 7t-84.5 17t-55 20t-32 17z" />
    <glyph glyph-name="ydieresis.alt" horiz-adv-x="829" 
d="M428 698q0 44 39 82t93 38q56 0 95 -38t39 -82t-39 -81.5t-95 -37.5q-55 0 -93.5 37.5t-38.5 81.5zM128 698q0 44 38.5 82t93.5 38q56 0 94.5 -38t38.5 -82t-38.5 -81.5t-94.5 -37.5q-55 0 -93.5 37.5t-38.5 81.5zM30 -211l85 172q11 -6 30.5 -15t76 -23.5t108.5 -14.5
q90 0 135 42.5t45 96.5v3h-4q-2 -3 -6 -8.5t-20.5 -19t-37 -23.5t-56 -18.5t-76.5 -8.5q-117 0 -182 69t-65 181v278h250v-276q0 -24 21.5 -43t62.5 -19q33 0 61.5 18t39.5 36l12 17v267h250v-419q0 -76 -23.5 -137.5t-64 -102.5t-96.5 -68.5t-119 -39.5t-133 -12
q-60 0 -112.5 7t-84.5 17t-55 20t-32 17z" />
    <glyph glyph-name="afii10085.alt" horiz-adv-x="829" 
d="M30 -211l85 172q11 -6 30.5 -15t76 -23.5t108.5 -14.5q90 0 135 42.5t45 96.5v3h-4q-2 -3 -6 -8.5t-20.5 -19t-37 -23.5t-56 -18.5t-76.5 -8.5q-117 0 -182 69t-65 181v278h250v-276q0 -24 21.5 -43t62.5 -19q33 0 61.5 18t39.5 36l12 17v267h250v-419
q0 -76 -23.5 -137.5t-64 -102.5t-96.5 -68.5t-119 -39.5t-133 -12q-60 0 -112.5 7t-84.5 17t-55 20t-32 17z" />
    <glyph glyph-name="afii10110.alt" horiz-adv-x="829" 
d="M161 671l88 142q3 -3 8 -8.5t21.5 -19.5t35 -24.5t46.5 -19t57 -8.5t57.5 8t48 20t34.5 24t23 20l7 8l88 -145q-4 -4 -10.5 -11.5t-30.5 -26.5t-51.5 -33.5t-72.5 -26.5t-93 -12t-91.5 11.5t-72.5 28t-50.5 33.5t-31.5 29zM30 -211l85 172q11 -6 30.5 -15t76 -23.5
t108.5 -14.5q90 0 135 42.5t45 96.5v3h-4q-2 -3 -6 -8.5t-20.5 -19t-37 -23.5t-56 -18.5t-76.5 -8.5q-117 0 -182 69t-65 181v278h250v-276q0 -24 21.5 -43t62.5 -19q33 0 61.5 18t39.5 36l12 17v267h250v-419q0 -76 -23.5 -137.5t-64 -102.5t-96.5 -68.5t-119 -39.5
t-133 -12q-60 0 -112.5 7t-84.5 17t-55 20t-32 17z" />
    <glyph glyph-name="afii10066.alt" horiz-adv-x="779" 
d="M303 234q0 -80 84 -80q92 0 92 82q0 10 -2.5 19.5t-10.5 25.5t-29.5 28.5t-53.5 18.5q-4 0 -10 2q-70 -31 -70 -96zM27 201q0 56 15 97t41.5 64.5t46.5 34.5t47 20q-94 70 -94 150q0 88 70 148.5t170 60.5q59 0 119 -17.5t93 -17.5q23 0 45.5 8.5t33.5 16.5l11 9l122 -84
q-1 -5 -3 -14t-14 -31.5t-29.5 -40t-52 -31.5t-78.5 -14q-56 0 -118 15.5t-82 15.5q-45 0 -45 -24q0 -34 192 -101q35 -12 62 -23.5t61.5 -32t57 -43.5t38.5 -57.5t16 -74.5q0 -126 -97 -194.5t-264 -68.5q-163 0 -263.5 64t-100.5 165z" />
    <glyph glyph-name="fleuron" horiz-adv-x="1123" 
d="M688 361q0 -63 14 -96l21 -39q18 31 58 78.5t64 85.5t24 73q0 33 -18 59.5t-48 26.5q-42 0 -69 -30.5t-36.5 -70.5t-9.5 -87zM286 266q0 -51 42 -81.5t91 -30.5q19 0 38 5.5t42 15t39 13.5q-1 1 -1 3q-37 63 -89 187q-17 10 -24 10q-61 0 -99.5 -31.5t-38.5 -90.5z
M25 474q0 109 75.5 186t170.5 77q42 0 79 -10t65.5 -24.5t56 -41.5t46.5 -50.5t41.5 -63t36.5 -67t36 -74.5q4 2 6 4q-22 56 -22 103q0 61 34.5 107.5t77.5 66.5t83 20q108 0 172.5 -61.5t64.5 -183.5q0 -57 -23 -109.5t-55.5 -88.5t-64.5 -64.5t-55 -49.5t-23 -32
q0 -26 24 -28h2q30 0 42 16.5t12 54.5h59q16 -20 16 -47q0 -49 -48 -92.5t-107 -43.5q-114 0 -201 89q-16 -2 -87.5 -31t-143.5 -29q-139 0 -221 66t-82 201q0 114 78 179t198 65q8 0 17 -3q-41 60 -94 60q-63 0 -100 -26.5t-37 -74.5h-129z" />
    <glyph glyph-name="fleuron.001" horiz-adv-x="1123" 
d="M585 528q1 -1 1 -3q37 -63 89 -187q17 -10 24 -10q61 0 99.5 31.5t38.5 90.5q0 51 -42 81.5t-91 30.5q-19 0 -38 -5.5t-42 -15t-39 -13.5zM254 253q0 -33 18 -59.5t48 -26.5q42 0 69 30.5t36.5 70.5t9.5 87q0 63 -14 96l-21 39q-18 -31 -58 -78.5t-64 -85.5t-24 -73z
M75 254q0 57 23 109.5t55.5 88.5t64.5 64.5t55 49.5t23 32q0 26 -24 28h-2q-30 0 -42 -16.5t-12 -54.5h-59q-16 20 -16 47q0 49 48 92.5t107 43.5q114 0 201 -89q16 2 87.5 31t143.5 29q139 0 221 -66t82 -201q0 -114 -78 -179t-198 -65q-8 0 -17 3q41 -60 94 -60
q63 0 100 26.5t37 74.5h129q0 -109 -75.5 -186t-170.5 -77q-42 0 -79 10t-65.5 24.5t-56 41.5t-46.5 50.5t-41.5 63t-36.5 67t-36 74.5q-4 -2 -6 -4q22 -56 22 -103q0 -61 -34.5 -107.5t-77.5 -66.5t-83 -20q-108 0 -172.5 61.5t-64.5 183.5z" />
    <glyph glyph-name="afii10083_afii10077" horiz-adv-x="1372" 
d="M27 236q0 139 106.5 215t264.5 76q48 0 99.5 -7t78.5 -14l28 -7v-184q-94 27 -184 27q-125 0 -125 -87q0 -100 186 -100q63 0 110.5 19t74.5 48t43 72t21.5 83t5.5 89q0 6 -0.5 17t-0.5 17h562v-500h-252v320h-101q-60 -348 -491 -348q-199 0 -312.5 72t-113.5 192z" />
    <glyph glyph-name="afii10070_afii10077" horiz-adv-x="1467" 
d="M278 310q108 0 170 -1q0 -2 1 -3q-1 35 -20.5 49t-65.5 14q-39 0 -61 -16t-24 -43zM27 231q0 133 99 214.5t235 81.5q144 0 230 -66.5t86 -167.5q0 -21 -10.5 -45.5t-20.5 -37.5l-11 -14h-349q2 -29 44.5 -40.5t152.5 -11.5q70 0 117.5 4.5t89 18t66 35.5t42.5 59.5
t25 89t7 123.5v26h562v-500h-252v320h-100q-27 -191 -153.5 -269.5t-403.5 -78.5q-220 0 -338 66t-118 193z" />
    <glyph glyph-name="afii10101_afii10077" horiz-adv-x="1372" 
d="M27 236q0 139 106.5 215t264.5 76q46 0 98.5 -7t82.5 -14l30 -7v-186q-97 29 -189 29q-93 0 -116 -27l240 6v-131l-243 5q16 -22 57.5 -31t122.5 -9q63 0 110.5 19t74.5 48t43 72t21.5 83t5.5 89q0 6 -0.5 17t-0.5 17h562v-500h-252v320h-101q-60 -348 -491 -348
q-199 0 -312.5 72t-113.5 192z" />
    <glyph glyph-name="afii10083_afii10106" horiz-adv-x="1738" 
d="M1297 129q32 -2 42 -2q63 0 85 15.5t22 42.5q0 44 -83 44q-34 0 -66 -8v-92zM27 236q0 139 106.5 215t264.5 76q48 0 99.5 -7t78.5 -14l28 -7v-184q-94 27 -184 27q-125 0 -125 -87q0 -100 186 -100q63 0 110.5 19t74.5 48t43 72t21.5 83t5.5 89q0 6 -0.5 17t-0.5 17h562
v-141h6q31 23 129 23q117 0 198.5 -51t81.5 -142q0 -105 -102 -161t-296 -56q-62 0 -129 7t-103 14l-35 7h-2v320h-101q-60 -348 -491 -348q-199 0 -312.5 72t-113.5 192z" />
    <glyph glyph-name="afii10070_afii10106" horiz-adv-x="1833" 
d="M1392 129q32 -2 42 -2q63 0 85 15.5t22 42.5q0 44 -83 44q-34 0 -66 -8v-92zM278 310q108 0 170 -1q0 -2 1 -3q-1 35 -20.5 49t-65.5 14q-39 0 -61 -16t-24 -43zM27 231q0 133 99 214.5t235 81.5q144 0 230 -66.5t86 -167.5q0 -21 -10.5 -45.5t-20.5 -37.5l-11 -14h-349
q2 -29 44.5 -40.5t152.5 -11.5q70 0 117.5 4.5t89 18t66 35.5t42.5 59.5t25 89t7 123.5v26h562v-141h6q31 23 129 23q117 0 198.5 -51t81.5 -142q0 -105 -102 -161t-296 -56q-62 0 -129 7t-102 14l-36 7h-2v320h-100q-27 -191 -153.5 -269.5t-403.5 -78.5q-220 0 -338 66
t-118 193z" />
    <glyph glyph-name="afii10101_afii10106" horiz-adv-x="1738" 
d="M1297 129q32 -2 42 -2q63 0 85 15.5t22 42.5q0 44 -83 44q-34 0 -66 -8v-92zM27 236q0 139 106.5 215t264.5 76q46 0 98.5 -7t82.5 -14l30 -7v-186q-97 29 -189 29q-93 0 -116 -27l240 6v-131l-243 5q16 -22 57.5 -31t122.5 -9q63 0 110.5 19t74.5 48t43 72t21.5 83
t5.5 89q0 6 -0.5 17t-0.5 17h562v-141h6q31 23 129 23q117 0 198.5 -51t81.5 -142q0 -105 -102 -161t-296 -56q-62 0 -129 7t-103 14l-35 7h-2v320h-101q-60 -348 -491 -348q-199 0 -312.5 72t-113.5 192z" />
    <glyph glyph-name="H_E" horiz-adv-x="1345" 
d="M92 0v650h263v-230h297v230h639v-185h-377v-45h300v-179h-300v-56h391v-185h-653v241h-297v-241h-263z" />
    <glyph glyph-name="H_P" horiz-adv-x="1407" 
d="M914 346q24 -3 57 -3q66 0 109 17t43 50q0 74 -126 74q-19 0 -83 -4v-134zM92 0v650h263v-240h297v240h17q183 27 339 27q167 0 269 -72t102 -194q0 -83 -52.5 -142.5t-123.5 -84.5t-147 -25q-79 0 -142 9v-168h-262v231h-297v-231h-263z" />
    <glyph glyph-name="afii10029_E" horiz-adv-x="1334" 
d="M39 202q43 6 74 19.5t54 39.5t37.5 57t24.5 84.5t15.5 108t11.5 139.5h1024v-185h-378v-42h301v-178h-301v-60h392v-185h-654v465h-164q-10 -85 -24.5 -150t-42 -128t-66 -105.5t-98 -72t-136.5 -37.5z" />
    <glyph glyph-name="afii10042_E" horiz-adv-x="1666" 
d="M92 0v650h263v-471h177v471h263v-471h178v471h639v-185h-377v-42h300v-178h-300v-60h391v-185h-1534z" />
    <glyph glyph-name="AndrijType" horiz-adv-x="2117" 
d="M1778 748q0 22 16 38t37 16q22 0 38 -16t16 -38t-16 -37.5t-38 -15.5q-21 0 -37 15.5t-16 37.5zM1654 244l10 75q18 -5 32 -5q79 0 79 125q0 31 1 73t1 72q0 10 -3 12l-26 6l2 54q65 5 92 5q23 0 29.5 -16t6.5 -49q0 -32 -2.5 -72t-2.5 -72q0 -218 -151 -218
q-28 0 -68 10zM1577 748q0 22 16 38t37 16q22 0 37.5 -16t15.5 -38t-15.5 -37.5t-37.5 -15.5q-21 0 -37 15.5t-16 37.5zM1546 602l2 54q66 5 93 5q23 0 29.5 -16t6.5 -49q0 -18 -2 -54.5t-2 -55.5q0 -25 12 -25l17 3v-47q-27 -18 -62 -18q-38 0 -52 17t-14 58q0 19 2 55.5
t2 54.5q0 11 -4 12zM1330 109q0 74 47 121t122 47q37 0 73 -21.5t36 -59.5q0 -33 -21.5 -48.5t-49.5 -15.5v-3q55 -7 111 -7q135 0 213.5 49.5t78.5 148.5l84 -26q0 -124 -96.5 -188.5t-254.5 -64.5q-97 0 -209 26l-5 75q29 0 46.5 11t17.5 31q0 16 -10.5 24t-24.5 8
q-29 0 -43 -29t-14 -71q0 -54 26 -84t72 -30q35 0 77 18l32 -54q-59 -46 -133 -46t-124.5 49.5t-50.5 139.5zM1302 602l3 54q77 5 94 5q20 -13 20 -57v-46h1q0 19 5.5 42t22 44.5t39.5 21.5q8 0 16.5 -2t12.5 -4l5 -2v-93q-38 2 -54 2q-10 0 -21 -23t-14 -46q0 -15 -0.5 -45
t-0.5 -45l-101 -5q0 30 1.5 90.5t1.5 90.5q0 10 -2 10zM1116 59q15 -4 30 -4q59 0 59 64q0 59 -44 59q-29 0 -43 -27q0 -30 -2 -92zM1062 534q0 -56 46 -56q14 0 24 7t13 15l3 7q0 36 6 88q-18 5 -31 5q-32 0 -46.5 -19t-14.5 -47zM988 198l3 54q91 5 108 5q20 -1 20 -29
v-31h1q0 3 1 7t6 15.5t12.5 20t24.5 15.5t39 7q51 0 78.5 -36t27.5 -91q0 -62 -45 -103.5t-134 -41.5h-15q-1 -37 -1 -111l-101 -5q0 51 2 153t2 153q0 10 -1 10zM958 517q0 62 45.5 105.5t132.5 43.5q12 0 32 -2q21 70 69 118l80 -54q-46 -48 -58 -100.5t-12 -141.5
q0 -25 13 -25l17 3v-47q-28 -18 -63 -18t-49.5 14t-16.5 46h-2q0 -3 -0.5 -7t-5.5 -15.5t-12.5 -20t-23.5 -15.5t-38 -7q-52 0 -80 34t-28 89zM614 -134l12 80q22 -3 41 -3q82 0 121 60q-12 41 -33.5 89t-38.5 48l-85 -14l-10 57q6 5 18 12t50.5 18.5t78.5 11.5
q49 0 79 -140q11 29 21 74.5t14 76.5l5 30l97 -15q-42 -169 -102 -265q-79 -125 -212 -125q-23 0 -56 5zM571 611l13 63q10 -4 29.5 -6t45 -3.5t38.5 -3.5q23 -3 29.5 -18t6.5 -47v-3h2q0 3 1 8t7 17.5t14 22t24.5 17.5t37.5 8q45 0 64.5 -26t19.5 -78q0 -9 -1.5 -34.5
t-1.5 -41.5q0 -25 12 -25l17 3v-47q-28 -18 -63 -18q-38 0 -51.5 17t-13.5 58l2 84q0 22 -23 22q-31 0 -48 -34q-2 -92 -2 -138l-99 -5q0 30 1 90.5t1 90.5q0 10 -3 12q-1 1 -24.5 5t-34.5 10zM329 522h95l-18 88q-12 38 -28 49q-19 -64 -49 -137zM228 156q0 68 55.5 121.5
t168.5 53.5q28 0 68 -5q50 -4 67 -4q113 0 136 57l72 -10q-34 -125 -199 -125h-20v-148q0 -24 6 -24h24v-67q-76 -10 -108 -10q-28 0 -28 101v155q-86 0 -125.5 -24.5t-39.5 -74.5zM92 324q26 0 55 32.5t58.5 94t49 107.5t44.5 113q-47 -5 -77 -26t-30 -58q0 -19 11 -47
l-70 -28q-13 30 -13 61q0 71 61 120.5t144 49.5q152 0 178 -99l37 -157q7 -21 16 -21l27 4v-56q-63 -15 -98 -15q-20 0 -28.5 10t-16.5 40l-2 9h-136q-97 -209 -202 -209z" />
    </font>
</defs>
</svg>
